<svg width="100" height="75" viewBox="0 0 100 75" fill="none" xmlns="http://www.w3.org/2000/svg">
<rect width="100" height="75" fill="#331B1B"/>
<path d="M23.3914 20.616H25.1834L29.2154 31H27.5994L26.4154 27.848H21.9674L20.7994 31H19.2634L23.3914 20.616ZM26.0314 26.776L24.2714 22.088H24.1274L22.3674 26.776H26.0314ZM34.1649 31.16C33.5889 31.16 33.1249 31.128 32.7729 31.064C32.4316 31.0107 32.0903 30.904 31.7489 30.744C31.0556 30.4133 30.7089 29.656 30.7089 28.472V19.8H32.1489V22.12V23.032C32.1383 23.3093 32.1329 23.6187 32.1329 23.96C32.1863 23.7147 32.4103 23.5067 32.8049 23.336C33.2103 23.176 33.7969 23.096 34.5649 23.096C36.6983 23.096 37.7649 23.8267 37.7649 25.288V28.472C37.7649 28.9307 37.6956 29.3307 37.5569 29.672C37.4289 30.0133 37.2583 30.28 37.0449 30.472C36.8529 30.6533 36.5863 30.7973 36.2449 30.904C35.9143 31.0107 35.5836 31.08 35.2529 31.112C34.9543 31.144 34.5916 31.16 34.1649 31.16ZM34.1969 30.216C34.7516 30.216 35.1729 30.1787 35.4609 30.104C35.7596 30.0187 35.9729 29.8693 36.1009 29.656C36.2289 29.4427 36.2929 29.1173 36.2929 28.68V25.64C36.2929 25.2027 36.2289 24.8773 36.1009 24.664C35.9729 24.44 35.7596 24.296 35.4609 24.232C35.1729 24.1573 34.7463 24.12 34.1809 24.12C33.6583 24.12 33.2529 24.1627 32.9649 24.248C32.6769 24.3333 32.4689 24.488 32.3409 24.712C32.2129 24.9253 32.1489 25.2347 32.1489 25.64V28.68C32.1489 29.1173 32.2076 29.4427 32.3249 29.656C32.4529 29.8693 32.6609 30.0187 32.9489 30.104C33.2369 30.1787 33.6529 30.216 34.1969 30.216ZM42.3426 31.16C41.5212 31.16 40.6359 31.096 39.6866 30.968V29.864C40.9346 30.0667 41.8306 30.168 42.3746 30.168C43.0572 30.168 43.5479 30.104 43.8466 29.976C44.1452 29.8373 44.2946 29.5867 44.2946 29.224V28.44C44.2946 28.1093 44.1826 27.8747 43.9586 27.736C43.7346 27.5973 43.3719 27.528 42.8706 27.528H41.9906C41.1906 27.528 40.5772 27.3627 40.1506 27.032C39.7346 26.7013 39.5266 26.2373 39.5266 25.64V24.92C39.5266 23.704 40.6786 23.096 42.9826 23.096C43.1532 23.096 43.9372 23.1387 45.3346 23.224V24.264C44.3852 24.1147 43.5799 24.04 42.9186 24.04C42.1612 24.04 41.6439 24.1147 41.3666 24.264C41.0892 24.4133 40.9506 24.664 40.9506 25.016V25.672C40.9506 26.1947 41.4252 26.456 42.3746 26.456H43.2706C44.9026 26.456 45.7186 27.064 45.7186 28.28V28.952C45.7186 29.752 45.4412 30.3227 44.8866 30.664C44.3319 30.9947 43.4839 31.16 42.3426 31.16ZM50.9569 31.16C50.2956 31.16 49.7783 31.0907 49.4049 30.952C49.0316 30.8027 48.7596 30.5573 48.5889 30.216C48.4289 29.864 48.3489 29.3733 48.3489 28.744V24.2H46.6209V23.256H48.3489V20.856H49.8049V23.256H52.5729V24.2H49.8049V28.824C49.8049 29.208 49.8476 29.496 49.9329 29.688C50.0289 29.88 50.1889 30.0187 50.4129 30.104C50.6476 30.1787 50.9836 30.216 51.4209 30.216C51.5596 30.216 51.9436 30.1733 52.5729 30.088V31.032C52.0289 31.1173 51.4903 31.16 50.9569 31.16ZM54.1464 23.256H55.5064V24.52C55.5064 24.2747 55.6131 24.0453 55.8264 23.832C56.0398 23.608 56.3118 23.432 56.6424 23.304C56.9731 23.1653 57.2984 23.096 57.6184 23.096H58.3224V24.328H57.5224C56.8398 24.328 56.3438 24.4187 56.0344 24.6C55.7358 24.7707 55.5864 25.0853 55.5864 25.544V31H54.1464V23.256ZM62.1398 31.16C61.4038 31.16 60.8331 31.0907 60.4278 30.952C60.0331 30.8133 59.7451 30.568 59.5638 30.216C59.3931 29.864 59.3078 29.3573 59.3078 28.696C59.3078 28.1093 59.3878 27.656 59.5478 27.336C59.7185 27.0053 60.0011 26.7707 60.3958 26.632C60.8011 26.4933 61.3718 26.424 62.1078 26.424H64.4278V25.192C64.4278 24.904 64.3691 24.6853 64.2518 24.536C64.1451 24.376 63.9585 24.264 63.6918 24.2C63.4358 24.136 63.0571 24.104 62.5558 24.104C61.7558 24.104 60.8705 24.168 59.8998 24.296V23.24C60.9558 23.144 61.9105 23.096 62.7638 23.096C63.6598 23.096 64.3211 23.1653 64.7478 23.304C65.1745 23.432 65.4678 23.6613 65.6278 23.992C65.7878 24.3227 65.8678 24.8347 65.8678 25.528V31H64.4758V30.264C64.3585 30.8613 63.5798 31.16 62.1398 31.16ZM62.3798 30.216C62.9025 30.216 63.3451 30.1787 63.7078 30.104C64.1878 30.008 64.4278 29.784 64.4278 29.432V27.32H62.2038C61.7451 27.32 61.4145 27.3573 61.2118 27.432C61.0091 27.496 60.8758 27.624 60.8118 27.816C60.7478 28.008 60.7158 28.3173 60.7158 28.744C60.7158 29.128 60.7531 29.4267 60.8278 29.64C60.9025 29.8427 61.0358 29.992 61.2278 30.088C61.4198 30.1733 61.7078 30.216 62.0918 30.216H62.3798ZM71.4852 31.16C70.9519 31.16 70.5625 31.1493 70.3172 31.128C70.0825 31.1067 69.8105 31.0533 69.5012 30.968C69.1705 30.8827 68.9145 30.7547 68.7332 30.584C68.5519 30.4133 68.3972 30.1627 68.2692 29.832C68.1412 29.512 68.0772 29.112 68.0772 28.632V25.784C68.0772 24.92 68.2425 24.3013 68.5732 23.928C68.7545 23.7147 68.9359 23.5547 69.1172 23.448C69.3092 23.3307 69.5545 23.2507 69.8532 23.208C70.1519 23.1653 70.4185 23.1387 70.6532 23.128C70.8879 23.1067 71.2185 23.096 71.6452 23.096C72.3812 23.096 73.1172 23.176 73.8532 23.336V24.392C72.9999 24.1787 72.2052 24.072 71.4692 24.072C70.9145 24.072 70.5039 24.1147 70.2372 24.2C69.9812 24.2747 69.7999 24.4187 69.6932 24.632C69.5972 24.8347 69.5492 25.1493 69.5492 25.576V28.744C69.5492 29.1387 69.6025 29.432 69.7092 29.624C69.8265 29.816 70.0292 29.9547 70.3172 30.04C70.6159 30.1147 71.0532 30.152 71.6292 30.152C72.4079 30.152 73.1865 30.0507 73.9652 29.848V30.936C73.2399 31.0853 72.4132 31.16 71.4852 31.16ZM79.0351 31.16C78.3737 31.16 77.8564 31.0907 77.4831 30.952C77.1097 30.8027 76.8377 30.5573 76.6671 30.216C76.5071 29.864 76.4271 29.3733 76.4271 28.744V24.2H74.6991V23.256H76.4271V20.856H77.8831V23.256H80.6511V24.2H77.8831V28.824C77.8831 29.208 77.9257 29.496 78.0111 29.688C78.1071 29.88 78.2671 30.0187 78.4911 30.104C78.7257 30.1787 79.0617 30.216 79.4991 30.216C79.6377 30.216 80.0217 30.1733 80.6511 30.088V31.032C80.1071 31.1173 79.5684 31.16 79.0351 31.16ZM24.6018 39.616H31.7378V40.704H26.1538V44.096H31.2098V45.184H26.1538V50H24.6018V39.616ZM35.8429 50.16C35.1069 50.16 34.5363 50.0907 34.1309 49.952C33.7363 49.8133 33.4483 49.568 33.2669 49.216C33.0963 48.864 33.0109 48.3573 33.0109 47.696C33.0109 47.1093 33.0909 46.656 33.2509 46.336C33.4216 46.0053 33.7043 45.7707 34.0989 45.632C34.5043 45.4933 35.0749 45.424 35.8109 45.424H38.1309V44.192C38.1309 43.904 38.0723 43.6853 37.9549 43.536C37.8483 43.376 37.6616 43.264 37.3949 43.2C37.1389 43.136 36.7603 43.104 36.2589 43.104C35.4589 43.104 34.5736 43.168 33.6029 43.296V42.24C34.6589 42.144 35.6136 42.096 36.4669 42.096C37.3629 42.096 38.0243 42.1653 38.4509 42.304C38.8776 42.432 39.1709 42.6613 39.3309 42.992C39.4909 43.3227 39.5709 43.8347 39.5709 44.528V50H38.1789V49.264C38.0616 49.8613 37.2829 50.16 35.8429 50.16ZM36.0829 49.216C36.6056 49.216 37.0483 49.1787 37.4109 49.104C37.8909 49.008 38.1309 48.784 38.1309 48.432V46.32H35.9069C35.4483 46.32 35.1176 46.3573 34.9149 46.432C34.7123 46.496 34.5789 46.624 34.5149 46.816C34.4509 47.008 34.4189 47.3173 34.4189 47.744C34.4189 48.128 34.4563 48.4267 34.5309 48.64C34.6056 48.8427 34.7389 48.992 34.9309 49.088C35.1229 49.1733 35.4109 49.216 35.7949 49.216H36.0829ZM45.1883 50.16C44.655 50.16 44.2656 50.1493 44.0203 50.128C43.7856 50.1067 43.5136 50.0533 43.2043 49.968C42.8736 49.8827 42.6176 49.7547 42.4363 49.584C42.255 49.4133 42.1003 49.1627 41.9723 48.832C41.8443 48.512 41.7803 48.112 41.7803 47.632V44.784C41.7803 43.92 41.9456 43.3013 42.2763 42.928C42.4576 42.7147 42.639 42.5547 42.8203 42.448C43.0123 42.3307 43.2576 42.2507 43.5563 42.208C43.855 42.1653 44.1216 42.1387 44.3563 42.128C44.591 42.1067 44.9216 42.096 45.3483 42.096C46.0843 42.096 46.8203 42.176 47.5563 42.336V43.392C46.703 43.1787 45.9083 43.072 45.1723 43.072C44.6176 43.072 44.207 43.1147 43.9403 43.2C43.6843 43.2747 43.503 43.4187 43.3963 43.632C43.3003 43.8347 43.2523 44.1493 43.2523 44.576V47.744C43.2523 48.1387 43.3056 48.432 43.4123 48.624C43.5296 48.816 43.7323 48.9547 44.0203 49.04C44.319 49.1147 44.7563 49.152 45.3323 49.152C46.111 49.152 46.8896 49.0507 47.6683 48.848V49.936C46.943 50.0853 46.1163 50.16 45.1883 50.16ZM52.7382 50.16C52.0769 50.16 51.5595 50.0907 51.1862 49.952C50.8129 49.8027 50.5409 49.5573 50.3702 49.216C50.2102 48.864 50.1302 48.3733 50.1302 47.744V43.2H48.4022V42.256H50.1302V39.856H51.5862V42.256H54.3542V43.2H51.5862V47.824C51.5862 48.208 51.6289 48.496 51.7142 48.688C51.8102 48.88 51.9702 49.0187 52.1942 49.104C52.4289 49.1787 52.7649 49.216 53.2022 49.216C53.3409 49.216 53.7249 49.1733 54.3542 49.088V50.032C53.8102 50.1173 53.2715 50.16 52.7382 50.16ZM59.2077 50.16C58.525 50.16 58.013 50.1333 57.6717 50.08C57.3304 50.0373 56.989 49.936 56.6477 49.776C56.2957 49.616 56.0397 49.36 55.8797 49.008C55.7197 48.6453 55.6397 48.16 55.6397 47.552V44.864C55.6397 44.384 55.6984 43.9627 55.8157 43.6C55.933 43.2373 56.0877 42.9547 56.2797 42.752C56.4397 42.5707 56.6797 42.432 56.9997 42.336C57.3304 42.2293 57.6664 42.16 58.0077 42.128C58.3917 42.1067 58.7917 42.096 59.2077 42.096C59.7624 42.096 60.1784 42.112 60.4557 42.144C60.7437 42.1653 61.0477 42.2187 61.3677 42.304C61.6984 42.4 61.9544 42.544 62.1357 42.736C62.317 42.928 62.4717 43.2053 62.5997 43.568C62.717 43.9413 62.7757 44.3733 62.7757 44.864V47.552C62.7757 48.4587 62.5677 49.12 62.1517 49.536C61.981 49.7067 61.7357 49.84 61.4157 49.936C61.0957 50.032 60.765 50.096 60.4237 50.128C60.0184 50.1493 59.613 50.16 59.2077 50.16ZM59.2077 49.216C59.6557 49.216 59.981 49.2053 60.1837 49.184C60.3864 49.1627 60.5837 49.104 60.7757 49.008C60.9677 48.9227 61.101 48.784 61.1757 48.592C61.261 48.3893 61.3037 48.112 61.3037 47.76V44.624C61.3037 44.144 61.245 43.7973 61.1277 43.584C61.0104 43.36 60.8077 43.216 60.5197 43.152C60.2424 43.0773 59.805 43.04 59.2077 43.04C58.6104 43.04 58.1677 43.0773 57.8797 43.152C57.6024 43.216 57.405 43.36 57.2877 43.584C57.1704 43.7973 57.1117 44.144 57.1117 44.624V47.76C57.1117 48.112 57.149 48.3893 57.2237 48.592C57.309 48.784 57.4477 48.9227 57.6397 49.008C57.8317 49.104 58.029 49.1627 58.2317 49.184C58.4344 49.2053 58.7597 49.216 59.2077 49.216ZM65.0214 42.256H66.3814V43.52C66.3814 43.2747 66.4881 43.0453 66.7014 42.832C66.9148 42.608 67.1868 42.432 67.5174 42.304C67.8481 42.1653 68.1734 42.096 68.4934 42.096H69.1974V43.328H68.3974C67.7148 43.328 67.2188 43.4187 66.9094 43.6C66.6108 43.7707 66.4614 44.0853 66.4614 44.544V50H65.0214V42.256ZM72.4708 50.112L69.4788 42.256H71.0468L73.2068 48.576H73.2388L75.1908 42.256H76.6468L72.7588 53.328H71.2548L72.4708 50.112Z" fill="white"/>
</svg>
