<svg width="100" height="75" viewBox="0 0 100 75" fill="none" xmlns="http://www.w3.org/2000/svg">
<rect width="100" height="75" fill="#09687D"/>
<path d="M28.5716 42L27.1956 38.464H22.6676L21.3076 42H19.8516L24.3156 30.528H25.6116L30.0596 42H28.5716ZM25.4836 33.728C25.4516 33.6427 25.3982 33.488 25.3236 33.264C25.2489 33.04 25.1742 32.8107 25.0996 32.576C25.0356 32.3307 24.9822 32.144 24.9396 32.016C24.8649 32.3467 24.7796 32.672 24.6836 32.992C24.5876 33.3013 24.5076 33.5467 24.4436 33.728L23.1476 37.184H26.7636L25.4836 33.728ZM34.4703 42.16C33.4036 42.16 32.5503 41.792 31.9103 41.056C31.2703 40.3093 30.9503 39.2 30.9503 37.728C30.9503 36.256 31.2703 35.1467 31.9103 34.4C32.561 33.6427 33.4196 33.264 34.4863 33.264C35.1476 33.264 35.6863 33.3867 36.1023 33.632C36.529 33.8773 36.8756 34.176 37.1423 34.528H37.2383C37.2276 34.3893 37.2063 34.1867 37.1743 33.92C37.153 33.6427 37.1423 33.424 37.1423 33.264V29.84H38.5503V42H37.4143L37.2063 40.848H37.1423C36.8863 41.2107 36.545 41.52 36.1183 41.776C35.6916 42.032 35.1423 42.16 34.4703 42.16ZM34.6943 40.992C35.601 40.992 36.2356 40.7467 36.5983 40.256C36.9716 39.7547 37.1583 39.0027 37.1583 38V37.744C37.1583 36.6773 36.9823 35.8613 36.6303 35.296C36.2783 34.72 35.6276 34.432 34.6783 34.432C33.921 34.432 33.3503 34.736 32.9663 35.344C32.593 35.9413 32.4063 36.7467 32.4063 37.76C32.4063 38.784 32.593 39.5787 32.9663 40.144C33.3503 40.7093 33.9263 40.992 34.6943 40.992ZM44.5221 33.28C45.5674 33.28 46.3407 33.5093 46.8421 33.968C47.3434 34.4267 47.5941 35.1573 47.5941 36.16V42H46.5701L46.2981 40.784H46.2341C45.8607 41.2533 45.4661 41.6 45.0501 41.824C44.6447 42.048 44.0794 42.16 43.3541 42.16C42.5754 42.16 41.9301 41.9573 41.4181 41.552C40.9061 41.136 40.6501 40.4907 40.6501 39.616C40.6501 38.7627 40.9861 38.1067 41.6581 37.648C42.3301 37.1787 43.3647 36.9227 44.7621 36.88L46.2181 36.832V36.32C46.2181 35.6053 46.0634 35.1093 45.7541 34.832C45.4447 34.5547 45.0074 34.416 44.4421 34.416C43.9941 34.416 43.5674 34.4853 43.1621 34.624C42.7567 34.752 42.3781 34.9013 42.0261 35.072L41.5941 34.016C41.9674 33.8133 42.4101 33.6427 42.9221 33.504C43.4341 33.3547 43.9674 33.28 44.5221 33.28ZM44.9381 37.856C43.8714 37.8987 43.1301 38.0693 42.7141 38.368C42.3087 38.6667 42.1061 39.088 42.1061 39.632C42.1061 40.112 42.2501 40.464 42.5381 40.688C42.8367 40.912 43.2154 41.024 43.6741 41.024C44.3994 41.024 45.0021 40.8267 45.4821 40.432C45.9621 40.0267 46.2021 39.408 46.2021 38.576V37.808L44.9381 37.856ZM54.3228 33.264C55.3788 33.264 56.2268 33.632 56.8668 34.368C57.5175 35.104 57.8428 36.2133 57.8428 37.696C57.8428 39.1573 57.5175 40.2667 56.8668 41.024C56.2268 41.7813 55.3735 42.16 54.3068 42.16C53.6455 42.16 53.0961 42.0373 52.6588 41.792C52.2321 41.536 51.8961 41.2427 51.6508 40.912H51.5548C51.5761 41.0933 51.5975 41.3227 51.6188 41.6C51.6401 41.8773 51.6508 42.1173 51.6508 42.32V45.84H50.2428V33.424H51.3948L51.5868 34.592H51.6508C51.9068 34.2187 52.2428 33.904 52.6588 33.648C53.0748 33.392 53.6295 33.264 54.3228 33.264ZM54.0668 34.448C53.1921 34.448 52.5735 34.6933 52.2108 35.184C51.8588 35.6747 51.6721 36.4213 51.6508 37.424V37.696C51.6508 38.752 51.8215 39.568 52.1628 40.144C52.5148 40.7093 53.1601 40.992 54.0988 40.992C54.6215 40.992 55.0481 40.848 55.3788 40.56C55.7201 40.272 55.9708 39.8827 56.1308 39.392C56.3015 38.8907 56.3868 38.32 56.3868 37.68C56.3868 36.6987 56.1948 35.9147 55.8108 35.328C55.4375 34.7413 54.8561 34.448 54.0668 34.448ZM62.9506 41.008C63.1639 41.008 63.3826 40.992 63.6066 40.96C63.8306 40.9173 64.0119 40.8747 64.1506 40.832V41.904C64.0012 41.9787 63.7879 42.0373 63.5106 42.08C63.2332 42.1333 62.9666 42.16 62.7106 42.16C62.2626 42.16 61.8466 42.0853 61.4626 41.936C61.0892 41.776 60.7852 41.504 60.5506 41.12C60.3159 40.736 60.1986 40.1973 60.1986 39.504V34.512H58.9826V33.84L60.2146 33.28L60.7746 31.456H61.6066V33.424H64.0866V34.512H61.6066V39.472C61.6066 39.9947 61.7292 40.384 61.9746 40.64C62.2306 40.8853 62.5559 41.008 62.9506 41.008ZM69.1798 33.264C69.9158 33.264 70.5451 33.424 71.0678 33.744C71.6011 34.064 72.0065 34.5173 72.2838 35.104C72.5718 35.68 72.7158 36.3573 72.7158 37.136V37.984H66.8438C66.8651 38.9547 67.1105 39.696 67.5798 40.208C68.0598 40.7093 68.7265 40.96 69.5798 40.96C70.1238 40.96 70.6038 40.912 71.0198 40.816C71.4465 40.7093 71.8838 40.56 72.3318 40.368V41.6C71.8945 41.792 71.4625 41.9307 71.0358 42.016C70.6091 42.112 70.1025 42.16 69.5158 42.16C68.7051 42.16 67.9851 41.9947 67.3558 41.664C66.7371 41.3333 66.2518 40.8427 65.8998 40.192C65.5585 39.5307 65.3878 38.7253 65.3878 37.776C65.3878 36.8373 65.5425 36.032 65.8518 35.36C66.1718 34.688 66.6145 34.1707 67.1798 33.808C67.7558 33.4453 68.4225 33.264 69.1798 33.264ZM69.1638 34.416C68.4918 34.416 67.9585 34.6347 67.5638 35.072C67.1798 35.4987 66.9505 36.096 66.8758 36.864H71.2438C71.2331 36.1387 71.0625 35.552 70.7318 35.104C70.4011 34.6453 69.8785 34.416 69.1638 34.416ZM78.8991 33.264C79.0591 33.264 79.2297 33.2747 79.4111 33.296C79.6031 33.3067 79.7684 33.328 79.9071 33.36L79.7311 34.656C79.5924 34.624 79.4377 34.5973 79.2671 34.576C79.1071 34.5547 78.9524 34.544 78.8031 34.544C78.3657 34.544 77.9551 34.6667 77.5711 34.912C77.1871 35.1467 76.8777 35.4827 76.6431 35.92C76.4191 36.3467 76.3071 36.848 76.3071 37.424V42H74.8991V33.424H76.0511L76.2111 34.992H76.2751C76.5524 34.5227 76.9097 34.1173 77.3471 33.776C77.7844 33.4347 78.3017 33.264 78.8991 33.264Z" fill="white"/>
</svg>
