<svg width="100" height="75" viewBox="0 0 100 75" fill="none" xmlns="http://www.w3.org/2000/svg">
<rect width="100" height="75" fill="#24922F"/>
<path d="M31.8409 34.012C31.8409 32.3693 31.3275 31.548 30.3009 31.548C30.0769 31.548 29.8715 31.5573 29.6849 31.576C29.5169 31.5947 29.4142 31.66 29.3769 31.772C29.3022 31.9213 29.2649 32.2947 29.2649 32.892V36.14H30.2449C30.7115 36.14 31.0942 35.9627 31.3929 35.608C31.6915 35.2347 31.8409 34.7027 31.8409 34.012ZM28.0049 30.848L30.8329 30.792C31.8222 30.792 32.6622 31.016 33.3529 31.464C34.1742 31.9867 34.5849 32.7427 34.5849 33.732C34.5849 34.6467 34.0902 35.3933 33.1009 35.972C32.8769 36.1027 32.7089 36.1867 32.5969 36.224C32.5035 36.2613 32.4569 36.2893 32.4569 36.308C32.4569 36.3267 32.5129 36.3453 32.6249 36.364C32.7555 36.3827 32.9889 36.4667 33.3249 36.616C33.6795 36.7467 34.0062 36.952 34.3049 37.232C35.0702 37.8853 35.4529 38.6227 35.4529 39.444C35.4529 40.06 35.2755 40.6293 34.9209 41.152C34.5662 41.6747 34.1089 42.104 33.5489 42.44C32.9889 42.7573 32.3729 42.944 31.7009 43C31.0289 43.056 30.4689 43.0747 30.0209 43.056C29.5729 43.056 29.1529 43.056 28.7609 43.056C27.6222 43.056 26.4835 43.056 25.3449 43.056C25.3075 43 25.2889 42.888 25.2889 42.72C25.2889 42.552 25.3075 42.44 25.3449 42.384C25.4195 42.384 25.5782 42.3653 25.8209 42.328C26.2315 42.272 26.4742 42.1787 26.5489 42.048C26.6422 41.824 26.6889 41.2453 26.6889 40.312V33.508C26.6889 32.612 26.6422 32.0333 26.5489 31.772C26.4182 31.5853 26.0169 31.492 25.3449 31.492C25.3075 31.4173 25.2889 31.296 25.2889 31.128C25.2889 30.96 25.3075 30.848 25.3449 30.792C25.7742 30.8293 26.2222 30.848 26.6889 30.848H28.0049ZM29.2649 40.984C29.2649 41.5627 29.3115 41.9173 29.4049 42.048C29.4982 42.16 29.6569 42.2253 29.8809 42.244C30.1049 42.2627 30.3289 42.272 30.5529 42.272C30.7955 42.272 31.0289 42.2347 31.2529 42.16C31.4955 42.0667 31.7102 41.9173 31.8969 41.712C32.3449 41.2827 32.5689 40.6293 32.5689 39.752C32.5689 38.464 32.1582 37.5867 31.3369 37.12C31.0382 36.952 30.6742 36.868 30.2449 36.868H29.2649V40.984ZM38.8606 42.944C38.0953 42.944 37.2459 42.9907 36.3126 43.084C36.2753 43.028 36.2566 42.916 36.2566 42.748C36.2566 42.58 36.2753 42.4587 36.3126 42.384C36.7046 42.384 36.9939 42.3467 37.1806 42.272C37.3673 42.1787 37.4793 42.104 37.5166 42.048C37.6099 41.824 37.6566 41.2453 37.6566 40.312V37.904C37.6566 37.7547 37.6379 37.5307 37.6006 37.232C37.5633 36.9333 37.5259 36.7467 37.4886 36.672C37.3579 36.4293 36.9659 36.308 36.3126 36.308C36.2753 36.2893 36.2566 36.196 36.2566 36.028C36.2753 35.8413 36.3033 35.748 36.3406 35.748C37.0499 35.692 37.7406 35.5613 38.4126 35.356C39.0846 35.132 39.5979 34.936 39.9526 34.768C40.0086 34.7867 40.0739 34.8333 40.1486 34.908C40.2233 34.9827 40.2513 35.0387 40.2326 35.076C40.2326 35.1133 40.2233 35.1973 40.2046 35.328C40.1859 35.4587 40.1673 35.608 40.1486 35.776C40.1299 35.9253 40.1113 36.0747 40.0926 36.224C40.0739 36.3733 40.0646 36.476 40.0646 36.532C40.0646 36.5693 40.0833 36.5973 40.1206 36.616C40.1579 36.616 40.1766 36.6067 40.1766 36.588C40.5126 36.028 40.7926 35.636 41.0166 35.412C41.5019 34.964 41.9966 34.74 42.5006 34.74C43.0606 34.74 43.4433 34.8427 43.6486 35.048C43.7979 35.272 43.8726 35.524 43.8726 35.804C43.8726 36.0653 43.8446 36.2893 43.7886 36.476C43.7326 36.644 43.6486 36.8027 43.5366 36.952C43.3126 37.2693 43.0513 37.428 42.7526 37.428C42.5846 37.428 42.4353 37.372 42.3046 37.26C42.1926 37.148 42.0806 37.0453 41.9686 36.952C41.8753 36.8587 41.7726 36.7747 41.6606 36.7C41.5673 36.6067 41.4366 36.56 41.2686 36.56C41.1006 36.56 40.9419 36.6253 40.7926 36.756C40.6433 36.868 40.5126 37.008 40.4006 37.176C40.1766 37.512 40.0646 37.8107 40.0646 38.072V40.312C40.0646 41.2453 40.0926 41.7867 40.1486 41.936C40.2046 42.0667 40.2793 42.16 40.3726 42.216C40.4659 42.2533 40.5686 42.2907 40.6806 42.328C40.8673 42.3653 41.0633 42.384 41.2686 42.384C41.3059 42.4587 41.3246 42.58 41.3246 42.748C41.3246 42.916 41.3059 43.028 41.2686 43.084C40.3353 42.9907 39.5326 42.944 38.8606 42.944ZM48.4842 35.076C48.4469 35.1693 48.3816 35.5147 48.2882 36.112V40.312C48.2882 41.2453 48.3162 41.7867 48.3722 41.936C48.4282 42.0667 48.5029 42.16 48.5962 42.216C48.6896 42.2533 48.7922 42.2907 48.9042 42.328C49.0909 42.3653 49.2869 42.384 49.4922 42.384C49.5296 42.4587 49.5482 42.58 49.5482 42.748C49.5482 42.916 49.5296 43.028 49.4922 43.084C48.5589 42.9907 47.7562 42.944 47.0842 42.944C46.3189 42.944 45.4696 42.9907 44.5362 43.084C44.4989 43.028 44.4802 42.916 44.4802 42.748C44.4802 42.58 44.4989 42.4587 44.5362 42.384C44.9282 42.384 45.2176 42.3467 45.4042 42.272C45.5909 42.1787 45.7029 42.104 45.7402 42.048C45.8336 41.824 45.8802 41.2453 45.8802 40.312V37.904C45.8802 37.7547 45.8616 37.5307 45.8242 37.232C45.7869 36.9333 45.7496 36.7467 45.7122 36.672C45.5816 36.4293 45.1896 36.308 44.5362 36.308C44.4989 36.2893 44.4802 36.196 44.4802 36.028C44.4989 35.8413 44.5269 35.748 44.5642 35.748C45.2736 35.692 45.9642 35.5613 46.6362 35.356C47.3082 35.132 47.8216 34.936 48.1762 34.768C48.2322 34.7867 48.2976 34.8333 48.3722 34.908C48.4469 34.9827 48.4842 35.0387 48.4842 35.076ZM45.5722 31.604C45.5722 31.2307 45.6936 30.9227 45.9362 30.68C46.1976 30.4187 46.5149 30.288 46.8882 30.288C47.2616 30.288 47.5789 30.4187 47.8402 30.68C48.1016 30.9227 48.2322 31.2307 48.2322 31.604C48.2322 31.9773 48.1016 32.2947 47.8402 32.556C47.5789 32.8173 47.2616 32.948 46.8882 32.948C46.5149 32.948 46.1976 32.8173 45.9362 32.556C45.6936 32.2947 45.5722 31.9773 45.5722 31.604ZM55.4367 42.692V42.384C55.4367 42.3093 55.4087 42.2907 55.3527 42.328C55.2967 42.3653 55.194 42.4307 55.0447 42.524C54.8954 42.6173 54.718 42.7107 54.5127 42.804C53.5607 43.2333 52.674 43.2427 51.8527 42.832C51.0127 42.44 50.4154 41.768 50.0607 40.816C49.874 40.3493 49.7807 39.7893 49.7807 39.136C49.7807 38.464 49.9487 37.848 50.2847 37.288C50.6394 36.7093 51.0687 36.2333 51.5727 35.86C52.0767 35.4867 52.5994 35.216 53.1407 35.048C53.7007 34.8613 54.186 34.768 54.5967 34.768C55.0074 34.768 55.2594 34.7773 55.3527 34.796C55.4087 34.796 55.4367 34.656 55.4367 34.376V32.696C55.4367 32.304 55.3994 32.0053 55.3247 31.8C55.2687 31.688 55.0914 31.604 54.7927 31.548C54.5127 31.492 54.3167 31.464 54.2047 31.464C54.1674 31.464 54.1487 31.38 54.1487 31.212C54.1487 31.0253 54.1674 30.9133 54.2047 30.876C55.25 30.7827 56.0994 30.6427 56.7527 30.456C57.406 30.2507 57.7514 30.1573 57.7887 30.176C57.8447 30.176 57.9007 30.2133 57.9567 30.288C58.0127 30.3627 58.0407 30.428 58.0407 30.484C57.91 31.0067 57.8447 31.6227 57.8447 32.332V41.012C57.8447 41.1613 57.8447 41.292 57.8447 41.404C57.8634 41.516 57.9194 41.6187 58.0127 41.712C58.1247 41.824 58.4047 41.88 58.8527 41.88C58.89 41.9547 58.9087 42.0573 58.9087 42.188C58.9087 42.3 58.8714 42.4027 58.7967 42.496C58.4607 42.5147 57.9847 42.5987 57.3687 42.748C56.2674 43.0093 55.67 43.14 55.5767 43.14C55.4834 43.14 55.4367 42.9907 55.4367 42.692ZM54.2607 41.964C54.522 41.964 54.7834 41.88 55.0447 41.712C55.306 41.544 55.4367 41.404 55.4367 41.292V36.532C55.4367 36.364 55.2967 36.1867 55.0167 36C54.7367 35.7947 54.4194 35.692 54.0647 35.692C53.7287 35.692 53.458 35.776 53.2527 35.944C53.0474 36.0933 52.8794 36.2987 52.7487 36.56C52.5247 37.064 52.4127 37.7733 52.4127 38.688C52.4127 39.584 52.5714 40.3587 52.8887 41.012C53.2247 41.6467 53.682 41.964 54.2607 41.964ZM66.6457 36.224C66.1417 36.1867 65.8244 36.1587 65.6937 36.14C65.5631 36.1213 65.4977 36.1307 65.4977 36.168C65.7591 36.56 65.8897 36.9707 65.8897 37.4C65.8897 37.8293 65.8057 38.212 65.6377 38.548C65.4697 38.884 65.2271 39.1733 64.9097 39.416C64.2377 39.976 63.4444 40.256 62.5297 40.256C62.1751 40.256 61.8577 40.228 61.5777 40.172C61.4844 40.2653 61.3817 40.3587 61.2697 40.452C61.1764 40.5453 61.1297 40.6573 61.1297 40.788C61.1297 40.9 61.2231 41.0027 61.4097 41.096C61.5964 41.1707 61.8297 41.208 62.1097 41.208C62.4084 41.208 62.7911 41.208 63.2577 41.208C63.7431 41.1893 64.1724 41.1987 64.5457 41.236C64.9191 41.2547 65.2551 41.348 65.5537 41.516C65.8711 41.6653 66.1324 41.8427 66.3377 42.048C66.7297 42.44 66.9257 42.8787 66.9257 43.364C66.9257 43.8493 66.7857 44.3253 66.5057 44.792C66.2257 45.2587 65.8524 45.6507 65.3857 45.968C64.3777 46.6773 63.2391 47.032 61.9697 47.032C61.0551 47.032 60.3084 46.836 59.7297 46.444C59.1697 46.052 58.8897 45.5387 58.8897 44.904C58.8897 44.5307 59.0577 44.176 59.3937 43.84C59.7484 43.5227 60.1031 43.28 60.4577 43.112C60.1404 43.0187 59.8697 42.7947 59.6457 42.44C59.4404 42.0667 59.3377 41.684 59.3377 41.292C59.3377 40.9933 59.8511 40.5453 60.8777 39.948C60.3364 39.7427 59.9071 39.4347 59.5897 39.024C59.2911 38.5947 59.1417 38.1467 59.1417 37.68C59.1417 37.2133 59.2257 36.8213 59.3937 36.504C59.5804 36.168 59.8231 35.8693 60.1217 35.608C60.7564 35.0853 61.5497 34.824 62.5017 34.824C63.3417 34.824 63.9951 34.9733 64.4617 35.272C64.4991 35.3093 64.5364 35.328 64.5737 35.328L66.8977 35.104C67.0284 35.1787 67.0937 35.2533 67.0937 35.328C67.0937 35.384 67.0377 35.5333 66.9257 35.776C66.8324 36.0187 66.7391 36.168 66.6457 36.224ZM61.2137 43.252C61.0084 43.5133 60.9057 43.784 60.9057 44.064C60.9057 44.68 61.1111 45.156 61.5217 45.492C61.9324 45.828 62.4084 45.996 62.9497 45.996C63.5097 45.996 63.9297 45.94 64.2097 45.828C64.4897 45.7347 64.7137 45.6133 64.8817 45.464C65.1617 45.2213 65.3017 44.8947 65.3017 44.484C65.3017 44.0733 65.1057 43.7653 64.7137 43.56C64.3217 43.3547 63.8271 43.252 63.2297 43.252H61.2137ZM62.4177 35.496C61.8204 35.496 61.4844 35.888 61.4097 36.672C61.3911 36.896 61.3817 37.1293 61.3817 37.372C61.3817 37.596 61.4004 37.848 61.4377 38.128C61.4937 38.3893 61.5684 38.632 61.6617 38.856C61.9044 39.3413 62.2497 39.584 62.6977 39.584C63.2951 39.584 63.6031 39.1733 63.6217 38.352C63.6404 38.1467 63.6497 37.932 63.6497 37.708C63.6497 37.484 63.6311 37.2413 63.5937 36.98C63.5564 36.7 63.4911 36.448 63.3977 36.224C63.1737 35.7387 62.8471 35.496 62.4177 35.496ZM70.2561 37.792C70.2934 37.792 70.4148 37.792 70.6201 37.792C70.8441 37.7733 71.0868 37.7547 71.3481 37.736C71.9454 37.7173 72.3748 37.6893 72.6361 37.652C72.8041 37.6333 72.8881 37.5307 72.8881 37.344C72.8881 37.1387 72.8694 36.924 72.8321 36.7C72.7948 36.476 72.7294 36.28 72.6361 36.112C72.4308 35.7013 72.1601 35.496 71.8241 35.496C71.5068 35.496 71.2548 35.5893 71.0681 35.776C70.8814 35.944 70.7228 36.1493 70.5921 36.392C70.3681 36.8773 70.2561 37.344 70.2561 37.792ZM74.6801 38.296C73.5601 38.3893 72.0854 38.464 70.2561 38.52C70.2561 39.6587 70.5734 40.4987 71.2081 41.04C71.6934 41.432 72.2161 41.628 72.7761 41.628C73.3548 41.628 73.8028 41.5253 74.1201 41.32C74.4374 41.1147 74.6988 40.9093 74.9041 40.704C75.0534 40.7413 75.1281 40.844 75.1281 41.012C75.1281 41.18 75.0908 41.32 75.0161 41.432C74.9601 41.5253 74.8388 41.6747 74.6521 41.88C74.4654 42.0667 74.2321 42.2533 73.9521 42.44C73.2428 42.9253 72.5614 43.168 71.9081 43.168C71.2548 43.168 70.6948 43.084 70.2281 42.916C69.7614 42.7293 69.3508 42.468 68.9961 42.132C68.2308 41.404 67.8481 40.4613 67.8481 39.304C67.8481 38.1093 68.2588 37.064 69.0801 36.168C69.9574 35.216 70.9094 34.74 71.9361 34.74C73.0374 34.74 73.8774 35.0667 74.4561 35.72C74.9414 36.2427 75.1841 36.8493 75.1841 37.54C75.1841 37.7453 75.1374 37.9227 75.0441 38.072C74.9508 38.2213 74.8294 38.296 74.6801 38.296Z" fill="white"/>
</svg>
