<svg width="100" height="75" viewBox="0 0 100 75" fill="none" xmlns="http://www.w3.org/2000/svg">
<rect width="100" height="75" fill="#743009"/>
<path d="M27.1882 33.36C27.1882 32.816 27.1135 32.416 26.9642 32.16C26.8149 31.8933 26.5162 31.76 26.0682 31.76H25.7482V31.44H29.9082C31.0709 31.44 32.0789 31.632 32.9322 32.016C33.7962 32.4 34.2282 33.1413 34.2282 34.24C34.2282 34.7413 34.0575 35.1947 33.7162 35.6C33.3749 36.0053 32.8522 36.3253 32.1482 36.56C33.1295 36.72 33.8122 37.0133 34.1962 37.44C34.5909 37.856 34.7882 38.416 34.7882 39.12C34.7882 40.1973 34.3615 40.9493 33.5082 41.376C32.6655 41.792 31.6255 42 30.3882 42H27.1882V33.36ZM30.1482 36.32C30.5855 36.32 30.9962 36.24 31.3802 36.08C31.7749 35.9093 32.0949 35.664 32.3402 35.344C32.5855 35.0133 32.7082 34.6187 32.7082 34.16C32.7082 33.68 32.5642 33.28 32.2762 32.96C31.9882 32.6293 31.6202 32.3893 31.1722 32.24C30.7349 32.08 30.2869 32 29.8282 32C29.4549 32 29.0549 32.0533 28.6282 32.16V36.32H30.1482ZM30.1482 41.44C31.1189 41.44 31.8655 41.248 32.3882 40.864C32.9215 40.48 33.1882 39.9253 33.1882 39.2C33.1882 38.4747 32.9269 37.92 32.4042 37.536C31.8922 37.152 31.1402 36.96 30.1482 36.96H28.6282V41.216C29.1402 41.3653 29.6469 41.44 30.1482 41.44ZM39.3333 42.16C38.5333 42.16 37.8773 41.9467 37.3653 41.52C36.864 41.0933 36.6133 40.3467 36.6133 39.28V36.4C36.6133 35.856 36.5386 35.456 36.3893 35.2C36.24 34.9333 35.9413 34.8 35.4933 34.8H35.3333V34.48H36.6133C37.008 34.48 37.3013 34.5333 37.4933 34.64C37.696 34.736 37.84 34.9173 37.9253 35.184C38.0106 35.4507 38.0533 35.856 38.0533 36.4V39.28C38.0533 40.0267 38.2186 40.576 38.5493 40.928C38.8906 41.2693 39.312 41.44 39.8133 41.44C40.3786 41.44 40.912 41.1573 41.4133 40.592V34.48H42.8533V42H42.0533L41.4933 41.36H41.4133C41.1893 41.584 40.896 41.776 40.5333 41.936C40.1813 42.0853 39.7813 42.16 39.3333 42.16ZM46.0078 33.52C45.7625 33.52 45.5491 33.4187 45.3678 33.216C45.1971 33.0133 45.1118 32.7733 45.1118 32.496C45.1118 32.272 45.1758 32.096 45.3038 31.968C45.4425 31.84 45.6238 31.776 45.8478 31.776C46.0931 31.776 46.3011 31.8773 46.4718 32.08C46.6531 32.2827 46.7438 32.5227 46.7438 32.8C46.7438 33.024 46.6745 33.2 46.5358 33.328C46.4078 33.456 46.2318 33.52 46.0078 33.52ZM45.3998 36.4C45.3998 35.856 45.3251 35.456 45.1758 35.2C45.0265 34.9333 44.7278 34.8 44.2798 34.8H43.9598V34.48H45.3998C45.7945 34.48 46.0878 34.5333 46.2798 34.64C46.4825 34.736 46.6265 34.9173 46.7118 35.184C46.7971 35.4507 46.8398 35.856 46.8398 36.4V42H45.3998V36.4ZM49.2863 33.36C49.2863 32.816 49.2116 32.416 49.0623 32.16C48.913 31.8933 48.6143 31.76 48.1663 31.76H47.8463V31.44H49.2863C49.681 31.44 49.9743 31.4933 50.1663 31.6C50.369 31.696 50.513 31.8773 50.5983 32.144C50.6836 32.4107 50.7263 32.816 50.7263 33.36V42H49.2863V33.36ZM55.5773 42.16C54.6493 42.16 53.9346 41.792 53.4333 41.056C52.9426 40.32 52.6973 39.3813 52.6973 38.24C52.6973 37.0987 52.9533 36.16 53.4653 35.424C53.988 34.688 54.7453 34.32 55.7373 34.32C56.1426 34.32 56.5 34.3627 56.8093 34.448C57.1186 34.5333 57.428 34.6507 57.7373 34.8V33.36C57.7373 32.816 57.6626 32.416 57.5133 32.16C57.364 31.8933 57.0653 31.76 56.6173 31.76H56.2973V31.44H57.7373C58.132 31.44 58.4253 31.4933 58.6173 31.6C58.82 31.696 58.964 31.8773 59.0493 32.144C59.1346 32.4107 59.1773 32.816 59.1773 33.36V42H58.3773L57.8173 41.28H57.7373C57.5026 41.5467 57.2253 41.76 56.9053 41.92C56.596 42.08 56.1533 42.16 55.5773 42.16ZM56.0573 41.52C56.4946 41.52 56.8253 41.44 57.0493 41.28C57.2733 41.12 57.5026 40.88 57.7373 40.56V35.44C57.4173 35.2907 57.14 35.1733 56.9053 35.088C56.6706 35.0027 56.4413 34.96 56.2173 34.96C55.5346 34.96 55.028 35.2587 54.6973 35.856C54.3773 36.4533 54.2173 37.248 54.2173 38.24C54.2173 39.2213 54.372 40.016 54.6813 40.624C54.9906 41.2213 55.4493 41.52 56.0573 41.52ZM64.4159 42.16C63.6906 42.16 63.0773 41.9893 62.5759 41.648C62.0746 41.296 61.6959 40.8267 61.4399 40.24C61.1839 39.6427 61.0559 38.976 61.0559 38.24C61.0559 37.5147 61.1839 36.8533 61.4399 36.256C61.6959 35.6587 62.0639 35.1893 62.5439 34.848C63.0346 34.496 63.6053 34.32 64.2559 34.32C65.3333 34.32 66.1333 34.624 66.6559 35.232C67.1893 35.8293 67.4559 36.6987 67.4559 37.84L67.4239 38.48H62.5759C62.5759 39.376 62.7679 40.1067 63.1519 40.672C63.5359 41.2373 64.0639 41.52 64.7359 41.52C65.2373 41.52 65.6586 41.4133 65.9999 41.2C66.3519 40.9867 66.6773 40.6667 66.9759 40.24L67.2959 40.48C66.9439 41.0667 66.5333 41.4933 66.0639 41.76C65.5946 42.0267 65.0453 42.16 64.4159 42.16ZM65.9359 37.84C65.9359 36.9013 65.7973 36.1867 65.5199 35.696C65.2426 35.2053 64.8213 34.96 64.2559 34.96C63.9359 34.96 63.6479 35.088 63.3919 35.344C63.1359 35.5893 62.9333 35.9307 62.7839 36.368C62.6453 36.8053 62.5759 37.296 62.5759 37.84H65.9359ZM69.4284 36.4C69.4284 35.856 69.3538 35.456 69.2044 35.2C69.0551 34.9333 68.7564 34.8 68.3084 34.8H68.1484V34.48H69.4284C69.8338 34.48 70.1378 34.5387 70.3404 34.656C70.5538 34.7627 70.7031 34.944 70.7884 35.2H70.8684C71.0604 34.9547 71.3164 34.7467 71.6364 34.576C71.9671 34.4053 72.3511 34.32 72.7884 34.32C73.2151 34.32 73.5351 34.4 73.7484 34.56C73.9298 34.6987 74.1164 34.9387 74.3084 35.28L73.6684 35.76C73.5511 35.6 73.3804 35.4827 73.1564 35.408C72.9324 35.3227 72.6764 35.28 72.3884 35.28C72.0684 35.28 71.7751 35.3547 71.5084 35.504C71.2418 35.6427 71.0284 35.8347 70.8684 36.08V42H69.4284V36.4Z" fill="white"/>
</svg>
