<svg width="100" height="75" viewBox="0 0 100 75" fill="none" xmlns="http://www.w3.org/2000/svg">
<rect width="100" height="75" fill="#213B7D"/>
<path d="M32.9057 22.905C32.0623 22.905 31.3987 23.1873 30.9147 23.752C30.4307 24.3167 30.1887 25.0903 30.1887 26.073C30.1887 27.0483 30.4123 27.822 30.8597 28.394C31.3143 28.9587 31.9927 29.241 32.8947 29.241C33.2393 29.241 33.5657 29.2117 33.8737 29.153C34.1817 29.0943 34.4823 29.021 34.7757 28.933V29.791C34.4823 29.901 34.178 29.9817 33.8627 30.033C33.5547 30.0843 33.1843 30.11 32.7517 30.11C31.9523 30.11 31.285 29.945 30.7497 29.615C30.2143 29.285 29.811 28.8157 29.5397 28.207C29.2757 27.5983 29.1437 26.8833 29.1437 26.062C29.1437 25.27 29.2867 24.5733 29.5727 23.972C29.866 23.3633 30.295 22.8903 30.8597 22.553C31.4243 22.2083 32.11 22.036 32.9167 22.036C33.7453 22.036 34.4677 22.19 35.0837 22.498L34.6877 23.334C34.4457 23.224 34.1743 23.125 33.8737 23.037C33.5803 22.949 33.2577 22.905 32.9057 22.905ZM37.3259 24.093C37.3259 24.3863 37.3075 24.6613 37.2709 24.918H37.3369C37.5275 24.6173 37.7842 24.39 38.1069 24.236C38.4369 24.082 38.7925 24.005 39.1739 24.005C39.8925 24.005 40.4315 24.1773 40.7909 24.522C41.1502 24.8593 41.3299 25.4057 41.3299 26.161V30H40.3729V26.227C40.3729 25.281 39.9329 24.808 39.0529 24.808C38.3929 24.808 37.9382 24.995 37.6889 25.369C37.4469 25.7357 37.3259 26.2637 37.3259 26.953V30H36.3579V21.64H37.3259V24.093ZM45.3907 24.005C46.1093 24.005 46.641 24.1627 46.9857 24.478C47.3303 24.7933 47.5027 25.2957 47.5027 25.985V30H46.7987L46.6117 29.164H46.5677C46.311 29.4867 46.0397 29.725 45.7537 29.879C45.475 30.033 45.0863 30.11 44.5877 30.11C44.0523 30.11 43.6087 29.9707 43.2567 29.692C42.9047 29.406 42.7287 28.9623 42.7287 28.361C42.7287 27.7743 42.9597 27.3233 43.4217 27.008C43.8837 26.6853 44.595 26.5093 45.5557 26.48L46.5567 26.447V26.095C46.5567 25.6037 46.4503 25.2627 46.2377 25.072C46.025 24.8813 45.7243 24.786 45.3357 24.786C45.0277 24.786 44.7343 24.8337 44.4557 24.929C44.177 25.017 43.9167 25.1197 43.6747 25.237L43.3777 24.511C43.6343 24.3717 43.9387 24.2543 44.2907 24.159C44.6427 24.0563 45.0093 24.005 45.3907 24.005ZM45.6767 27.151C44.9433 27.1803 44.4337 27.2977 44.1477 27.503C43.869 27.7083 43.7297 27.998 43.7297 28.372C43.7297 28.702 43.8287 28.944 44.0267 29.098C44.232 29.252 44.4923 29.329 44.8077 29.329C45.3063 29.329 45.7207 29.1933 46.0507 28.922C46.3807 28.6433 46.5457 28.218 46.5457 27.646V27.118L45.6767 27.151ZM49.8187 21.893C49.9653 21.893 50.0937 21.9443 50.2037 22.047C50.321 22.1423 50.3797 22.2963 50.3797 22.509C50.3797 22.7143 50.321 22.8683 50.2037 22.971C50.0937 23.0737 49.9653 23.125 49.8187 23.125C49.6573 23.125 49.5217 23.0737 49.4117 22.971C49.3017 22.8683 49.2467 22.7143 49.2467 22.509C49.2467 22.2963 49.3017 22.1423 49.4117 22.047C49.5217 21.9443 49.6573 21.893 49.8187 21.893ZM50.2917 24.104V30H49.3237V24.104H50.2917ZM54.9976 23.994C55.7016 23.994 56.2333 24.1663 56.5926 24.511C56.9519 24.8483 57.1316 25.3983 57.1316 26.161V30H56.1746V26.227C56.1746 25.281 55.7346 24.808 54.8546 24.808C54.2019 24.808 53.7509 24.9913 53.5016 25.358C53.2523 25.7247 53.1276 26.2527 53.1276 26.942V30H52.1596V24.104H52.9406L53.0836 24.907H53.1386C53.3293 24.599 53.5933 24.3717 53.9306 24.225C54.2679 24.071 54.6236 23.994 54.9976 23.994ZM67.1469 27.041C67.1469 28.0163 66.8976 28.7717 66.3989 29.307C65.9076 29.8423 65.2403 30.11 64.3969 30.11C63.8763 30.11 63.4106 29.9927 62.9999 29.758C62.5966 29.516 62.2776 29.1677 62.0429 28.713C61.8083 28.251 61.6909 27.6937 61.6909 27.041C61.6909 26.0657 61.9366 25.314 62.4279 24.786C62.9193 24.258 63.5866 23.994 64.4299 23.994C64.9653 23.994 65.4346 24.115 65.8379 24.357C66.2486 24.5917 66.5676 24.9363 66.7949 25.391C67.0296 25.8383 67.1469 26.3883 67.1469 27.041ZM62.6919 27.041C62.6919 27.7377 62.8276 28.2913 63.0989 28.702C63.3776 29.1053 63.8176 29.307 64.4189 29.307C65.0129 29.307 65.4493 29.1053 65.7279 28.702C66.0066 28.2913 66.1459 27.7377 66.1459 27.041C66.1459 26.3443 66.0066 25.798 65.7279 25.402C65.4493 25.006 65.0093 24.808 64.4079 24.808C63.8066 24.808 63.3703 25.006 63.0989 25.402C62.8276 25.798 62.6919 26.3443 62.6919 27.041ZM71.3981 24.852H69.9131V30H68.9451V24.852H67.9111V24.401L68.9451 24.071V23.73C68.9451 22.9673 69.1138 22.421 69.4511 22.091C69.7884 21.7537 70.2578 21.585 70.8591 21.585C71.0938 21.585 71.3064 21.607 71.4971 21.651C71.6951 21.6877 71.8638 21.7317 72.0031 21.783L71.7501 22.542C71.6328 22.5053 71.4971 22.4687 71.3431 22.432C71.1891 22.3953 71.0314 22.377 70.8701 22.377C70.5474 22.377 70.3054 22.487 70.1441 22.707C69.9901 22.9197 69.9131 23.257 69.9131 23.719V24.104H71.3981V24.852ZM15.819 42.146C16.7943 42.146 17.513 42.333 17.975 42.707C18.4443 43.0737 18.679 43.631 18.679 44.379C18.679 44.797 18.602 45.1453 18.448 45.424C18.294 45.7027 18.096 45.9263 17.854 46.095C17.6193 46.2563 17.37 46.3847 17.106 46.48L19.262 50H18.107L16.204 46.755H14.642V50H13.652V42.146H15.819ZM15.764 43.004H14.642V45.919H15.819C16.457 45.919 16.9226 45.7943 17.216 45.545C17.5093 45.2883 17.656 44.9143 17.656 44.423C17.656 43.9097 17.502 43.5467 17.194 43.334C16.886 43.114 16.4093 43.004 15.764 43.004ZM22.6397 43.994C23.1457 43.994 23.5784 44.104 23.9377 44.324C24.3044 44.544 24.5831 44.8557 24.7737 45.259C24.9717 45.655 25.0707 46.1207 25.0707 46.656V47.239H21.0337C21.0484 47.9063 21.2171 48.416 21.5397 48.768C21.8697 49.1127 22.3281 49.285 22.9147 49.285C23.2887 49.285 23.6187 49.252 23.9047 49.186C24.1981 49.1127 24.4987 49.01 24.8067 48.878V49.725C24.5061 49.857 24.2091 49.9523 23.9157 50.011C23.6224 50.077 23.2741 50.11 22.8707 50.11C22.3134 50.11 21.8184 49.9963 21.3857 49.769C20.9604 49.5417 20.6267 49.2043 20.3847 48.757C20.1501 48.3023 20.0327 47.7487 20.0327 47.096C20.0327 46.4507 20.1391 45.897 20.3517 45.435C20.5717 44.973 20.8761 44.6173 21.2647 44.368C21.6607 44.1187 22.1191 43.994 22.6397 43.994ZM22.6287 44.786C22.1667 44.786 21.8001 44.9363 21.5287 45.237C21.2647 45.5303 21.1071 45.941 21.0557 46.469H24.0587C24.0514 45.9703 23.9341 45.567 23.7067 45.259C23.4794 44.9437 23.1201 44.786 22.6287 44.786ZM30.4107 48.372C30.4107 48.944 30.1981 49.3767 29.7727 49.67C29.3474 49.9633 28.7754 50.11 28.0567 50.11C27.6461 50.11 27.2904 50.077 26.9897 50.011C26.6964 49.945 26.4361 49.8533 26.2087 49.736V48.856C26.4434 48.9733 26.7257 49.0833 27.0557 49.186C27.3931 49.2813 27.7341 49.329 28.0787 49.329C28.5701 49.329 28.9257 49.252 29.1457 49.098C29.3657 48.9367 29.4757 48.724 29.4757 48.46C29.4757 48.3133 29.4354 48.1813 29.3547 48.064C29.2741 47.9467 29.1274 47.8293 28.9147 47.712C28.7094 47.5947 28.4124 47.4627 28.0237 47.316C27.6424 47.1693 27.3161 47.0227 27.0447 46.876C26.7734 46.7293 26.5644 46.5533 26.4177 46.348C26.2711 46.1427 26.1977 45.8787 26.1977 45.556C26.1977 45.0573 26.3994 44.6723 26.8027 44.401C27.2134 44.1297 27.7487 43.994 28.4087 43.994C28.7681 43.994 29.1017 44.0307 29.4097 44.104C29.7251 44.17 30.0184 44.2653 30.2897 44.39L29.9597 45.16C29.7104 45.0573 29.4501 44.9693 29.1787 44.896C28.9074 44.8227 28.6287 44.786 28.3427 44.786C27.9467 44.786 27.6424 44.852 27.4297 44.984C27.2244 45.1087 27.1217 45.281 27.1217 45.501C27.1217 45.6623 27.1694 45.8017 27.2647 45.919C27.3601 46.029 27.5177 46.139 27.7377 46.249C27.9651 46.3517 28.2657 46.4763 28.6397 46.623C29.0137 46.7623 29.3327 46.9053 29.5967 47.052C29.8607 47.1987 30.0624 47.3783 30.2017 47.591C30.3411 47.7963 30.4107 48.0567 30.4107 48.372ZM34.6404 43.994C35.3664 43.994 35.9494 44.247 36.3894 44.753C36.8367 45.259 37.0604 46.0217 37.0604 47.041C37.0604 48.0457 36.8367 48.8083 36.3894 49.329C35.9494 49.8497 35.3627 50.11 34.6294 50.11C34.1747 50.11 33.7971 50.0257 33.4964 49.857C33.2031 49.681 32.9721 49.4793 32.8034 49.252H32.7374C32.7521 49.3767 32.7667 49.5343 32.7814 49.725C32.7961 49.9157 32.8034 50.0807 32.8034 50.22V52.64H31.8354V44.104H32.6274L32.7594 44.907H32.8034C32.9794 44.6503 33.2104 44.434 33.4964 44.258C33.7824 44.082 34.1637 43.994 34.6404 43.994ZM34.4644 44.808C33.8631 44.808 33.4377 44.9767 33.1884 45.314C32.9464 45.6513 32.8181 46.1647 32.8034 46.854V47.041C32.8034 47.767 32.9207 48.328 33.1554 48.724C33.3974 49.1127 33.8411 49.307 34.4864 49.307C34.8457 49.307 35.1391 49.208 35.3664 49.01C35.6011 48.812 35.7734 48.5443 35.8834 48.207C36.0007 47.8623 36.0594 47.47 36.0594 47.03C36.0594 46.3553 35.9274 45.8163 35.6634 45.413C35.4067 45.0097 35.0071 44.808 34.4644 44.808ZM43.729 47.041C43.729 48.0163 43.4796 48.7717 42.981 49.307C42.4896 49.8423 41.8223 50.11 40.979 50.11C40.4583 50.11 39.9926 49.9927 39.582 49.758C39.1786 49.516 38.8596 49.1677 38.625 48.713C38.3903 48.251 38.273 47.6937 38.273 47.041C38.273 46.0657 38.5186 45.314 39.01 44.786C39.5013 44.258 40.1686 43.994 41.012 43.994C41.5473 43.994 42.0166 44.115 42.42 44.357C42.8306 44.5917 43.1496 44.9363 43.377 45.391C43.6116 45.8383 43.729 46.3883 43.729 47.041ZM39.274 47.041C39.274 47.7377 39.4096 48.2913 39.681 48.702C39.9596 49.1053 40.3996 49.307 41.001 49.307C41.595 49.307 42.0313 49.1053 42.31 48.702C42.5886 48.2913 42.728 47.7377 42.728 47.041C42.728 46.3443 42.5886 45.798 42.31 45.402C42.0313 45.006 41.5913 44.808 40.99 44.808C40.3886 44.808 39.9523 45.006 39.681 45.402C39.4096 45.798 39.274 46.3443 39.274 47.041ZM48.1011 43.994C48.8051 43.994 49.3368 44.1663 49.6961 44.511C50.0555 44.8483 50.2351 45.3983 50.2351 46.161V50H49.2781V46.227C49.2781 45.281 48.8381 44.808 47.9581 44.808C47.3055 44.808 46.8545 44.9913 46.6051 45.358C46.3558 45.7247 46.2311 46.2527 46.2311 46.942V50H45.2631V44.104H46.0441L46.1871 44.907H46.2421C46.4328 44.599 46.6968 44.3717 47.0341 44.225C47.3715 44.071 47.7271 43.994 48.1011 43.994ZM55.9019 48.372C55.9019 48.944 55.6893 49.3767 55.2639 49.67C54.8386 49.9633 54.2666 50.11 53.5479 50.11C53.1373 50.11 52.7816 50.077 52.4809 50.011C52.1876 49.945 51.9273 49.8533 51.6999 49.736V48.856C51.9346 48.9733 52.2169 49.0833 52.5469 49.186C52.8843 49.2813 53.2253 49.329 53.5699 49.329C54.0613 49.329 54.4169 49.252 54.6369 49.098C54.8569 48.9367 54.9669 48.724 54.9669 48.46C54.9669 48.3133 54.9266 48.1813 54.8459 48.064C54.7653 47.9467 54.6186 47.8293 54.4059 47.712C54.2006 47.5947 53.9036 47.4627 53.5149 47.316C53.1336 47.1693 52.8073 47.0227 52.5359 46.876C52.2646 46.7293 52.0556 46.5533 51.9089 46.348C51.7623 46.1427 51.6889 45.8787 51.6889 45.556C51.6889 45.0573 51.8906 44.6723 52.2939 44.401C52.7046 44.1297 53.2399 43.994 53.8999 43.994C54.2593 43.994 54.5929 44.0307 54.9009 44.104C55.2163 44.17 55.5096 44.2653 55.7809 44.39L55.4509 45.16C55.2016 45.0573 54.9413 44.9693 54.6699 44.896C54.3986 44.8227 54.1199 44.786 53.8339 44.786C53.4379 44.786 53.1336 44.852 52.9209 44.984C52.7156 45.1087 52.6129 45.281 52.6129 45.501C52.6129 45.6623 52.6606 45.8017 52.7559 45.919C52.8513 46.029 53.0089 46.139 53.2289 46.249C53.4563 46.3517 53.7569 46.4763 54.1309 46.623C54.5049 46.7623 54.8239 46.9053 55.0879 47.052C55.3519 47.1987 55.5536 47.3783 55.6929 47.591C55.8323 47.7963 55.9019 48.0567 55.9019 48.372ZM59.5596 44.005C60.2783 44.005 60.8099 44.1627 61.1546 44.478C61.4993 44.7933 61.6716 45.2957 61.6716 45.985V50H60.9676L60.7806 49.164H60.7366C60.4799 49.4867 60.2086 49.725 59.9226 49.879C59.6439 50.033 59.2553 50.11 58.7566 50.11C58.2213 50.11 57.7776 49.9707 57.4256 49.692C57.0736 49.406 56.8976 48.9623 56.8976 48.361C56.8976 47.7743 57.1286 47.3233 57.5906 47.008C58.0526 46.6853 58.7639 46.5093 59.7246 46.48L60.7256 46.447V46.095C60.7256 45.6037 60.6193 45.2627 60.4066 45.072C60.1939 44.8813 59.8933 44.786 59.5046 44.786C59.1966 44.786 58.9033 44.8337 58.6246 44.929C58.3459 45.017 58.0856 45.1197 57.8436 45.237L57.5466 44.511C57.8033 44.3717 58.1076 44.2543 58.4596 44.159C58.8116 44.0563 59.1783 44.005 59.5596 44.005ZM59.8456 47.151C59.1123 47.1803 58.6026 47.2977 58.3166 47.503C58.0379 47.7083 57.8986 47.998 57.8986 48.372C57.8986 48.702 57.9976 48.944 58.1956 49.098C58.4009 49.252 58.6613 49.329 58.9766 49.329C59.4753 49.329 59.8896 49.1933 60.2196 48.922C60.5496 48.6433 60.7146 48.218 60.7146 47.646V47.118L59.8456 47.151ZM64.4606 43.675C64.4606 43.9243 64.4533 44.159 64.4386 44.379C64.4313 44.5917 64.4203 44.7603 64.4056 44.885H64.4606C64.6293 44.6357 64.8603 44.4267 65.1536 44.258C65.447 44.0893 65.8246 44.005 66.2866 44.005C67.02 44.005 67.6066 44.2617 68.0466 44.775C68.494 45.281 68.7176 46.04 68.7176 47.052C68.7176 48.064 68.494 48.8267 68.0466 49.34C67.5993 49.8533 67.0126 50.11 66.2866 50.11C65.8246 50.11 65.447 50.0257 65.1536 49.857C64.8603 49.6883 64.6293 49.4867 64.4606 49.252H64.3836L64.1856 50H63.4926V41.64H64.4606V43.675ZM66.1216 44.808C65.4983 44.808 65.0656 44.9877 64.8236 45.347C64.5816 45.7063 64.4606 46.2637 64.4606 47.019V47.063C64.4606 47.789 64.578 48.3463 64.8126 48.735C65.0546 49.1163 65.4983 49.307 66.1436 49.307C66.6716 49.307 67.064 49.1127 67.3206 48.724C67.5846 48.3353 67.7166 47.7743 67.7166 47.041C67.7166 45.5523 67.185 44.808 66.1216 44.808ZM70.7552 41.893C70.9019 41.893 71.0302 41.9443 71.1402 42.047C71.2575 42.1423 71.3162 42.2963 71.3162 42.509C71.3162 42.7143 71.2575 42.8683 71.1402 42.971C71.0302 43.0737 70.9019 43.125 70.7552 43.125C70.5939 43.125 70.4582 43.0737 70.3482 42.971C70.2382 42.8683 70.1832 42.7143 70.1832 42.509C70.1832 42.2963 70.2382 42.1423 70.3482 42.047C70.4582 41.9443 70.5939 41.893 70.7552 41.893ZM71.2282 44.104V50H70.2602V44.104H71.2282ZM74.0641 50H73.0961V41.64H74.0641V50ZM76.4271 41.893C76.5737 41.893 76.7021 41.9443 76.8121 42.047C76.9294 42.1423 76.9881 42.2963 76.9881 42.509C76.9881 42.7143 76.9294 42.8683 76.8121 42.971C76.7021 43.0737 76.5737 43.125 76.4271 43.125C76.2657 43.125 76.1301 43.0737 76.0201 42.971C75.9101 42.8683 75.8551 42.7143 75.8551 42.509C75.8551 42.2963 75.9101 42.1423 76.0201 42.047C76.1301 41.9443 76.2657 41.893 76.4271 41.893ZM76.9001 44.104V50H75.9321V44.104H76.9001ZM80.737 49.318C80.8837 49.318 81.034 49.307 81.188 49.285C81.342 49.2557 81.4667 49.2263 81.562 49.197V49.934C81.4593 49.9853 81.3127 50.0257 81.122 50.055C80.9313 50.0917 80.748 50.11 80.572 50.11C80.264 50.11 79.978 50.0587 79.714 49.956C79.4573 49.846 79.2483 49.659 79.087 49.395C78.9257 49.131 78.845 48.7607 78.845 48.284V44.852H78.009V44.39L78.856 44.005L79.241 42.751H79.813V44.104H81.518V44.852H79.813V48.262C79.813 48.6213 79.8973 48.889 80.066 49.065C80.242 49.2337 80.4657 49.318 80.737 49.318ZM81.8186 44.104H82.8526L84.1286 47.459C84.2386 47.7523 84.3376 48.0347 84.4256 48.306C84.5136 48.57 84.5796 48.823 84.6236 49.065H84.6676C84.7116 48.8817 84.7813 48.6433 84.8766 48.35C84.972 48.0493 85.071 47.7487 85.1736 47.448L86.3726 44.104H87.4176L84.8766 50.814C84.6713 51.3713 84.4036 51.815 84.0736 52.145C83.751 52.475 83.3036 52.64 82.7316 52.64C82.5556 52.64 82.4016 52.629 82.2696 52.607C82.1376 52.5923 82.024 52.574 81.9286 52.552V51.782C82.0093 51.7967 82.1046 51.8113 82.2146 51.826C82.332 51.8407 82.453 51.848 82.5776 51.848C82.915 51.848 83.1863 51.7527 83.3916 51.562C83.6043 51.3713 83.7693 51.1183 83.8866 50.803L84.1946 50.022L81.8186 44.104Z" fill="white"/>
</svg>
