<svg width="100" height="75" viewBox="0 0 100 75" fill="none" xmlns="http://www.w3.org/2000/svg">
<rect width="100" height="75" fill="#0D411B"/>
<path d="M21.3519 33.632C21.5119 33.728 21.5919 33.8613 21.5919 34.032C21.5919 34.128 21.5545 34.2347 21.4799 34.352C21.3839 34.4693 21.2612 34.528 21.1119 34.528C21.0265 34.528 20.9412 34.5013 20.8559 34.448C20.0025 33.8827 19.0692 33.6 18.0559 33.6C17.1919 33.6 16.4079 33.8027 15.7039 34.208C15.0105 34.6133 14.4612 35.184 14.0559 35.92C13.6612 36.6453 13.4639 37.472 13.4639 38.4C13.4639 39.3493 13.6665 40.192 14.0719 40.928C14.4772 41.6533 15.0265 42.2187 15.7199 42.624C16.4239 43.0187 17.2025 43.216 18.0559 43.216C19.0692 43.216 19.9972 42.9387 20.8399 42.384C20.9252 42.3307 21.0159 42.304 21.1119 42.304C21.2612 42.304 21.3839 42.368 21.4799 42.496C21.5545 42.5813 21.5919 42.6827 21.5919 42.8C21.5919 42.9707 21.5172 43.0987 21.3679 43.184C20.9519 43.4613 20.4399 43.696 19.8319 43.888C19.2239 44.0693 18.6319 44.16 18.0559 44.16C17.0425 44.16 16.1039 43.92 15.2399 43.44C14.3865 42.9493 13.7039 42.2667 13.1919 41.392C12.6905 40.5173 12.4399 39.52 12.4399 38.4C12.4399 37.3227 12.6905 36.3467 13.1919 35.472C13.6932 34.5867 14.3705 33.8987 15.2239 33.408C16.0772 32.9067 17.0212 32.656 18.0559 32.656C18.6532 32.656 19.2345 32.7413 19.7999 32.912C20.3759 33.0827 20.8932 33.3227 21.3519 33.632ZM30.941 39.904C30.941 40.704 30.765 41.4293 30.413 42.08C30.061 42.7307 29.5757 43.2427 28.957 43.616C28.3383 43.9787 27.6503 44.16 26.893 44.16C26.1357 44.16 25.4477 43.9787 24.829 43.616C24.2103 43.2427 23.725 42.7307 23.373 42.08C23.021 41.4293 22.845 40.704 22.845 39.904C22.845 39.104 23.021 38.3787 23.373 37.728C23.725 37.0773 24.2103 36.5653 24.829 36.192C25.4477 35.8187 26.1357 35.632 26.893 35.632C27.6503 35.632 28.3383 35.8187 28.957 36.192C29.5757 36.5653 30.061 37.0773 30.413 37.728C30.765 38.3787 30.941 39.104 30.941 39.904ZM29.981 39.904C29.981 39.264 29.8477 38.688 29.581 38.176C29.3143 37.664 28.941 37.264 28.461 36.976C27.9917 36.6773 27.469 36.528 26.893 36.528C26.317 36.528 25.7943 36.6773 25.325 36.976C24.8557 37.264 24.4823 37.664 24.205 38.176C23.9383 38.688 23.805 39.264 23.805 39.904C23.805 40.5333 23.9383 41.104 24.205 41.616C24.4823 42.128 24.8557 42.5333 25.325 42.832C25.7943 43.12 26.317 43.264 26.893 43.264C27.469 43.264 27.9917 43.12 28.461 42.832C28.941 42.544 29.3143 42.144 29.581 41.632C29.8477 41.12 29.981 40.544 29.981 39.904ZM42.1846 35.76C43.1446 35.76 43.8486 36.0587 44.2966 36.656C44.7553 37.2427 44.9846 38.0213 44.9846 38.992V43.52C44.9846 43.6587 44.9366 43.776 44.8406 43.872C44.7553 43.9573 44.6433 44 44.5046 44C44.366 44 44.2486 43.9573 44.1526 43.872C44.0673 43.776 44.0246 43.6587 44.0246 43.52V39.04C44.0246 38.336 43.854 37.7653 43.5126 37.328C43.182 36.88 42.6646 36.656 41.9606 36.656C41.5126 36.656 41.086 36.7627 40.6806 36.976C40.286 37.1893 39.966 37.4827 39.7206 37.856C39.4753 38.2187 39.3526 38.6133 39.3526 39.04V43.52C39.3526 43.6587 39.3046 43.776 39.2086 43.872C39.1233 43.9573 39.0113 44 38.8726 44C38.734 44 38.6166 43.9573 38.5206 43.872C38.4353 43.776 38.3926 43.6587 38.3926 43.52V38.992C38.3926 38.2987 38.2326 37.7387 37.9126 37.312C37.5926 36.8747 37.0913 36.656 36.4086 36.656C35.9713 36.656 35.5553 36.7627 35.1606 36.976C34.7766 37.1893 34.462 37.4773 34.2166 37.84C33.982 38.192 33.8646 38.576 33.8646 38.992V43.52C33.8646 43.6587 33.8166 43.776 33.7206 43.872C33.6353 43.9573 33.5233 44 33.3846 44C33.246 44 33.1286 43.9573 33.0326 43.872C32.9473 43.776 32.9046 43.6587 32.9046 43.52V36.352C32.9046 36.2133 32.9473 36.1013 33.0326 36.016C33.1286 35.92 33.246 35.872 33.3846 35.872C33.5233 35.872 33.6353 35.92 33.7206 36.016C33.8166 36.1013 33.8646 36.2133 33.8646 36.352V37.28C34.1526 36.8427 34.542 36.48 35.0326 36.192C35.5233 35.904 36.0406 35.76 36.5846 35.76C37.2033 35.76 37.7366 35.9093 38.1846 36.208C38.6326 36.5067 38.9526 36.944 39.1446 37.52C39.3686 37.0507 39.7793 36.64 40.3766 36.288C40.974 35.936 41.5766 35.76 42.1846 35.76ZM56.7784 35.76C57.7384 35.76 58.4424 36.0587 58.8904 36.656C59.349 37.2427 59.5784 38.0213 59.5784 38.992V43.52C59.5784 43.6587 59.5304 43.776 59.4344 43.872C59.349 43.9573 59.237 44 59.0984 44C58.9597 44 58.8424 43.9573 58.7464 43.872C58.661 43.776 58.6184 43.6587 58.6184 43.52V39.04C58.6184 38.336 58.4477 37.7653 58.1064 37.328C57.7757 36.88 57.2584 36.656 56.5544 36.656C56.1064 36.656 55.6797 36.7627 55.2744 36.976C54.8797 37.1893 54.5597 37.4827 54.3144 37.856C54.069 38.2187 53.9464 38.6133 53.9464 39.04V43.52C53.9464 43.6587 53.8984 43.776 53.8024 43.872C53.717 43.9573 53.605 44 53.4664 44C53.3277 44 53.2104 43.9573 53.1144 43.872C53.029 43.776 52.9864 43.6587 52.9864 43.52V38.992C52.9864 38.2987 52.8264 37.7387 52.5064 37.312C52.1864 36.8747 51.685 36.656 51.0024 36.656C50.565 36.656 50.149 36.7627 49.7544 36.976C49.3704 37.1893 49.0557 37.4773 48.8104 37.84C48.5757 38.192 48.4584 38.576 48.4584 38.992V43.52C48.4584 43.6587 48.4104 43.776 48.3144 43.872C48.229 43.9573 48.117 44 47.9784 44C47.8397 44 47.7224 43.9573 47.6264 43.872C47.541 43.776 47.4984 43.6587 47.4984 43.52V36.352C47.4984 36.2133 47.541 36.1013 47.6264 36.016C47.7224 35.92 47.8397 35.872 47.9784 35.872C48.117 35.872 48.229 35.92 48.3144 36.016C48.4104 36.1013 48.4584 36.2133 48.4584 36.352V37.28C48.7464 36.8427 49.1357 36.48 49.6264 36.192C50.117 35.904 50.6344 35.76 51.1784 35.76C51.797 35.76 52.3304 35.9093 52.7784 36.208C53.2264 36.5067 53.5464 36.944 53.7384 37.52C53.9624 37.0507 54.373 36.64 54.9704 36.288C55.5677 35.936 56.1704 35.76 56.7784 35.76ZM68.7321 35.824C68.8708 35.824 68.9828 35.872 69.0681 35.968C69.1641 36.064 69.2121 36.1813 69.2121 36.32V43.52C69.2121 43.6587 69.1641 43.776 69.0681 43.872C68.9828 43.9573 68.8708 44 68.7321 44C68.5935 44 68.4761 43.9573 68.3801 43.872C68.2948 43.776 68.2521 43.6587 68.2521 43.52V42.448C67.9855 42.928 67.5855 43.3333 67.0521 43.664C66.5188 43.9947 65.9375 44.16 65.3081 44.16C64.5935 44.16 63.9481 43.9733 63.3721 43.6C62.8068 43.2267 62.3588 42.7147 62.0281 42.064C61.7081 41.4133 61.5481 40.6827 61.5481 39.872C61.5481 39.0613 61.7135 38.336 62.0441 37.696C62.3748 37.0453 62.8228 36.5387 63.3881 36.176C63.9641 35.8133 64.5988 35.632 65.2921 35.632C65.9321 35.632 66.5188 35.7867 67.0521 36.096C67.5855 36.4053 67.9855 36.8107 68.2521 37.312V36.32C68.2521 36.1813 68.2948 36.064 68.3801 35.968C68.4761 35.872 68.5935 35.824 68.7321 35.824ZM65.4041 43.264C65.9588 43.264 66.4548 43.12 66.8921 42.832C67.3401 42.5333 67.6868 42.128 67.9321 41.616C68.1881 41.0933 68.3161 40.512 68.3161 39.872C68.3161 39.2533 68.1881 38.688 67.9321 38.176C67.6868 37.664 67.3401 37.264 66.8921 36.976C66.4548 36.6773 65.9588 36.528 65.4041 36.528C64.8495 36.528 64.3481 36.672 63.9001 36.96C63.4628 37.248 63.1161 37.648 62.8601 38.16C62.6148 38.6613 62.4921 39.232 62.4921 39.872C62.4921 40.512 62.6148 41.0933 62.8601 41.616C63.1055 42.128 63.4468 42.5333 63.8841 42.832C64.3321 43.12 64.8388 43.264 65.4041 43.264ZM75.5731 35.632C76.5651 35.632 77.2905 35.9253 77.7491 36.512C78.2185 37.088 78.4531 37.856 78.4531 38.816V43.52C78.4531 43.6587 78.4051 43.776 78.3091 43.872C78.2131 43.9573 78.1011 44 77.9731 44C77.8345 44 77.7171 43.9573 77.6211 43.872C77.5358 43.776 77.4931 43.6587 77.4931 43.52V38.864C77.4931 38.1707 77.3171 37.6107 76.9651 37.184C76.6238 36.7467 76.0905 36.528 75.3651 36.528C74.9065 36.528 74.4691 36.6347 74.0531 36.848C73.6478 37.0613 73.3171 37.3493 73.0611 37.712C72.8051 38.064 72.6771 38.448 72.6771 38.864V43.52C72.6771 43.6587 72.6291 43.776 72.5331 43.872C72.4478 43.9573 72.3358 44 72.1971 44C72.0585 44 71.9411 43.9573 71.8451 43.872C71.7598 43.776 71.7171 43.6587 71.7171 43.52V36.352C71.7171 36.2133 71.7598 36.1013 71.8451 36.016C71.9411 35.92 72.0585 35.872 72.1971 35.872C72.3358 35.872 72.4478 35.92 72.5331 36.016C72.6291 36.1013 72.6771 36.2133 72.6771 36.352V37.232C72.9651 36.7733 73.3758 36.3947 73.9091 36.096C74.4531 35.7867 75.0078 35.632 75.5731 35.632ZM87.6071 32.16C87.7458 32.16 87.8578 32.208 87.9431 32.304C88.0391 32.3893 88.0871 32.5013 88.0871 32.64V43.52C88.0871 43.6587 88.0391 43.776 87.9431 43.872C87.8578 43.9573 87.7458 44 87.6071 44C87.4685 44 87.3511 43.9573 87.2551 43.872C87.1698 43.776 87.1271 43.6587 87.1271 43.52V42.4C86.8605 42.8907 86.4605 43.3067 85.9271 43.648C85.4045 43.9893 84.8231 44.16 84.1831 44.16C83.4791 44.16 82.8391 43.9787 82.2631 43.616C81.6978 43.2427 81.2498 42.7307 80.9191 42.08C80.5885 41.4293 80.4231 40.6987 80.4231 39.888C80.4231 39.088 80.5885 38.3627 80.9191 37.712C81.2498 37.0613 81.6978 36.5547 82.2631 36.192C82.8391 35.8187 83.4738 35.632 84.1671 35.632C84.7965 35.632 85.3778 35.792 85.9111 36.112C86.4445 36.4213 86.8498 36.8267 87.1271 37.328V32.64C87.1271 32.5013 87.1698 32.3893 87.2551 32.304C87.3511 32.208 87.4685 32.16 87.6071 32.16ZM84.2791 43.264C84.8338 43.264 85.3298 43.12 85.7671 42.832C86.2151 42.544 86.5618 42.144 86.8071 41.632C87.0631 41.1093 87.1911 40.528 87.1911 39.888C87.1911 39.2587 87.0631 38.688 86.8071 38.176C86.5618 37.664 86.2151 37.264 85.7671 36.976C85.3298 36.6773 84.8338 36.528 84.2791 36.528C83.7245 36.528 83.2231 36.6773 82.7751 36.976C82.3378 37.264 81.9911 37.664 81.7351 38.176C81.4898 38.688 81.3671 39.2587 81.3671 39.888C81.3671 40.528 81.4898 41.104 81.7351 41.616C81.9911 42.128 82.3378 42.5333 82.7751 42.832C83.2231 43.12 83.7245 43.264 84.2791 43.264Z" fill="white"/>
</svg>
