<svg width="100" height="75" viewBox="0 0 100 75" fill="none" xmlns="http://www.w3.org/2000/svg">
<rect width="100" height="75" fill="#A4A710"/>
<path d="M19.1848 43C18.5608 43 18.1168 42.874 17.8528 42.622C17.6008 42.358 17.4748 41.914 17.4748 41.29V32.11C17.4748 31.486 17.6008 31.048 17.8528 30.796C18.1168 30.532 18.5608 30.4 19.1848 30.4H21.5068C21.8548 30.4 22.1008 30.49 22.2448 30.67C22.4008 30.838 22.5148 31.096 22.5868 31.444H19.7608C19.3888 31.444 19.1548 31.522 19.0588 31.678C18.9628 31.834 18.9148 32.098 18.9148 32.47V40.93C18.9148 41.302 18.9628 41.566 19.0588 41.722C19.1548 41.878 19.3888 41.956 19.7608 41.956H22.5868V42.514C22.5868 42.706 22.5568 42.838 22.4968 42.91C22.4488 42.97 22.3288 43 22.1368 43H19.1848ZM24.2746 35.566C24.2746 34.942 24.4006 34.504 24.6526 34.252C24.9166 33.988 25.3606 33.856 25.9846 33.856H28.5046C29.1286 33.856 29.5666 33.988 29.8186 34.252C30.0826 34.504 30.2146 34.942 30.2146 35.566V41.29C30.2146 41.914 30.0826 42.358 29.8186 42.622C29.5666 42.874 29.1286 43 28.5046 43H25.9846C25.3606 43 24.9166 42.874 24.6526 42.622C24.4006 42.358 24.2746 41.914 24.2746 41.29V35.566ZM26.5606 34.9C26.1886 34.9 25.9546 34.978 25.8586 35.134C25.7626 35.29 25.7146 35.554 25.7146 35.926V40.93C25.7146 41.302 25.7626 41.566 25.8586 41.722C25.9546 41.878 26.1886 41.956 26.5606 41.956H27.9286C28.3006 41.956 28.5346 41.878 28.6306 41.722C28.7266 41.566 28.7746 41.302 28.7746 40.93V35.926C28.7746 35.554 28.7266 35.29 28.6306 35.134C28.5346 34.978 28.3006 34.9 27.9286 34.9H26.5606ZM38.3516 42.514C38.3516 42.706 38.3156 42.838 38.2436 42.91C38.1836 42.97 38.0576 43 37.8656 43H36.9116V35.926C36.9116 35.554 36.8636 35.29 36.7676 35.134C36.6716 34.978 36.4376 34.9 36.0656 34.9H33.9596V42.514C33.9596 42.706 33.9236 42.838 33.8516 42.91C33.7916 42.97 33.6656 43 33.4736 43H32.5196V34.342C32.5196 34.15 32.5496 34.024 32.6096 33.964C32.6816 33.892 32.8136 33.856 33.0056 33.856H33.9596V34.9C34.0316 34.552 34.1396 34.294 34.2836 34.126C34.4396 33.946 34.6916 33.856 35.0396 33.856H36.6416C37.2656 33.856 37.7036 33.988 37.9556 34.252C38.2196 34.504 38.3516 34.942 38.3516 35.566V42.514ZM42.7436 42.514C42.7436 42.706 42.7076 42.838 42.6356 42.91C42.5756 42.97 42.4496 43 42.2576 43H41.3036V35.926C41.3036 35.554 41.2556 35.29 41.1596 35.134C41.0636 34.978 40.8296 34.9 40.4576 34.9H38.2976C38.3696 34.552 38.4776 34.294 38.6216 34.126C38.7776 33.946 39.0296 33.856 39.3776 33.856H41.0336C41.6576 33.856 42.0956 33.988 42.3476 34.252C42.6116 34.504 42.7436 34.942 42.7436 35.566V42.514ZM49.3004 33.856C49.9244 33.856 50.3624 33.988 50.6144 34.252C50.8784 34.504 51.0104 34.942 51.0104 35.566V41.29C51.0104 41.914 50.8784 42.358 50.6144 42.622C50.3624 42.874 49.9244 43 49.3004 43H47.5904C47.2424 43 46.9904 42.916 46.8344 42.748C46.6904 42.568 46.5824 42.304 46.5104 41.956V46.132C46.5104 46.324 46.4744 46.45 46.4024 46.51C46.3424 46.582 46.2164 46.618 46.0244 46.618H45.0704V34.342C45.0704 34.15 45.1004 34.024 45.1604 33.964C45.2324 33.892 45.3644 33.856 45.5564 33.856H46.5104V41.956H48.7244C49.0964 41.956 49.3304 41.878 49.4264 41.722C49.5224 41.566 49.5704 41.302 49.5704 40.93V35.926C49.5704 35.554 49.5224 35.29 49.4264 35.134C49.3304 34.978 49.0964 34.9 48.7244 34.9H47.2304V34.342C47.2304 34.15 47.2544 34.024 47.3024 33.964C47.3624 33.892 47.4884 33.856 47.6804 33.856H49.3004ZM53.2785 35.566C53.2785 34.942 53.4045 34.504 53.6565 34.252C53.9205 33.988 54.3645 33.856 54.9885 33.856H57.5085C58.1325 33.856 58.5705 33.988 58.8225 34.252C59.0865 34.504 59.2185 34.942 59.2185 35.566V41.29C59.2185 41.914 59.0865 42.358 58.8225 42.622C58.5705 42.874 58.1325 43 57.5085 43H54.9885C54.3645 43 53.9205 42.874 53.6565 42.622C53.4045 42.358 53.2785 41.914 53.2785 41.29V35.566ZM55.5645 34.9C55.1925 34.9 54.9585 34.978 54.8625 35.134C54.7665 35.29 54.7185 35.554 54.7185 35.926V40.93C54.7185 41.302 54.7665 41.566 54.8625 41.722C54.9585 41.878 55.1925 41.956 55.5645 41.956H56.9325C57.3045 41.956 57.5385 41.878 57.6345 41.722C57.7305 41.566 57.7785 41.302 57.7785 40.93V35.926C57.7785 35.554 57.7305 35.29 57.6345 35.134C57.5385 34.978 57.3045 34.9 56.9325 34.9H55.5645ZM62.9095 38.95C62.5975 38.95 62.3395 38.926 62.1355 38.878C61.9435 38.83 61.7875 38.746 61.6675 38.626C61.5595 38.494 61.4815 38.326 61.4335 38.122C61.3975 37.918 61.3795 37.66 61.3795 37.348V35.566C61.3795 34.942 61.5055 34.504 61.7575 34.252C62.0215 33.988 62.4655 33.856 63.0895 33.856H65.5015C65.6935 33.856 65.8135 33.892 65.8615 33.964C65.9215 34.024 65.9515 34.15 65.9515 34.342V34.9H63.5755C63.2035 34.9 62.9695 34.978 62.8735 35.134C62.7775 35.29 62.7295 35.554 62.7295 35.926V36.88C62.7295 37.096 62.7355 37.276 62.7475 37.42C62.7715 37.552 62.8135 37.654 62.8735 37.726C62.9335 37.798 63.0175 37.846 63.1255 37.87C63.2455 37.894 63.3955 37.906 63.5755 37.906H64.6015C64.9135 37.906 65.1655 37.93 65.3575 37.978C65.5615 38.026 65.7175 38.116 65.8255 38.248C65.9455 38.368 66.0235 38.53 66.0595 38.734C66.1075 38.938 66.1315 39.196 66.1315 39.508V41.29C66.1315 41.914 65.9995 42.358 65.7355 42.622C65.4835 42.874 65.0455 43 64.4215 43H61.8295C61.6375 43 61.5115 42.97 61.4515 42.91C61.4035 42.838 61.3795 42.706 61.3795 42.514V41.956H63.9355C64.3075 41.956 64.5415 41.878 64.6375 41.722C64.7335 41.566 64.7815 41.302 64.7815 40.93V39.976C64.7815 39.604 64.7335 39.34 64.6375 39.184C64.5415 39.028 64.3075 38.95 63.9355 38.95H62.9095ZM68.2015 31.93C68.2015 31.738 68.2315 31.612 68.2915 31.552C68.3635 31.48 68.4955 31.444 68.6875 31.444H69.7855V32.398C69.7855 32.59 69.7495 32.722 69.6775 32.794C69.6175 32.854 69.4915 32.884 69.2995 32.884H68.2015V31.93ZM69.7135 33.856V42.514C69.7135 42.706 69.6775 42.838 69.6055 42.91C69.5455 42.97 69.4195 43 69.2275 43H68.2735V34.342C68.2735 34.15 68.3035 34.024 68.3635 33.964C68.4355 33.892 68.5675 33.856 68.7595 33.856H69.7135ZM75.2748 33.856C75.4668 33.856 75.5868 33.892 75.6348 33.964C75.6948 34.024 75.7248 34.15 75.7248 34.342V34.9H73.5108V40.93C73.5108 41.302 73.5588 41.566 73.6548 41.722C73.7508 41.878 73.9848 41.956 74.3568 41.956H75.9228C75.8988 42.304 75.8268 42.568 75.7068 42.748C75.5988 42.916 75.3708 43 75.0228 43H73.7808C73.1568 43 72.7128 42.874 72.4488 42.622C72.1968 42.358 72.0708 41.914 72.0708 41.29V32.254C72.0708 32.062 72.1008 31.936 72.1608 31.876C72.2328 31.804 72.3648 31.768 72.5568 31.768H73.5108V33.856H75.2748ZM82.3616 41.956V42.514C82.3616 42.706 82.3316 42.838 82.2716 42.91C82.2236 42.97 82.1036 43 81.9116 43H79.1936C78.5696 43 78.1256 42.874 77.8616 42.622C77.6096 42.358 77.4836 41.914 77.4836 41.29V35.566C77.4836 34.942 77.6096 34.504 77.8616 34.252C78.1256 33.988 78.5696 33.856 79.1936 33.856H81.1736C81.7976 33.856 82.2356 33.988 82.4876 34.252C82.7516 34.504 82.8836 34.942 82.8836 35.566V37.582C82.8836 38.206 82.7516 38.65 82.4876 38.914C82.2356 39.166 81.7976 39.292 81.1736 39.292H80.0936C79.9016 39.292 79.7756 39.262 79.7156 39.202C79.6676 39.13 79.6436 38.998 79.6436 38.806V38.248H80.6876C81.0596 38.248 81.2936 38.17 81.3896 38.014C81.4856 37.858 81.5336 37.594 81.5336 37.222V35.836C81.5336 35.464 81.4736 35.218 81.3536 35.098C81.2336 34.966 80.9876 34.9 80.6156 34.9H79.8416C79.4456 34.9 79.1936 34.972 79.0856 35.116C78.9776 35.248 78.9236 35.518 78.9236 35.926V40.93C78.9236 41.302 78.9716 41.566 79.0676 41.722C79.1636 41.878 79.3976 41.956 79.7696 41.956H82.3616Z" fill="white"/>
</svg>
