<svg width="100" height="75" viewBox="0 0 100 75" fill="none" xmlns="http://www.w3.org/2000/svg">
<rect width="100" height="75" fill="#40AEAE"/>
<path d="M11.1497 43V30.4H15.3077C16.2557 30.4 17.1377 30.562 17.9537 30.886C18.7697 31.198 19.4717 31.63 20.0597 32.182C20.6477 32.734 21.1037 33.4 21.4277 34.18C21.7637 34.948 21.9317 35.788 21.9317 36.7C21.9317 37.612 21.7637 38.458 21.4277 39.238C21.1037 40.006 20.6477 40.666 20.0597 41.218C19.4837 41.77 18.7877 42.208 17.9717 42.532C17.1557 42.844 16.2677 43 15.3077 43H11.1497ZM15.3797 31.66H12.5357V41.74H15.3797C16.0997 41.74 16.7777 41.614 17.4137 41.362C18.0497 41.098 18.5957 40.744 19.0517 40.3C19.5077 39.844 19.8677 39.31 20.1317 38.698C20.3957 38.074 20.5277 37.408 20.5277 36.7C20.5277 35.992 20.3957 35.332 20.1317 34.72C19.8677 34.096 19.5077 33.562 19.0517 33.118C18.5957 32.662 18.0497 32.308 17.4137 32.056C16.7777 31.792 16.0997 31.66 15.3797 31.66ZM31.4488 42.046C30.9448 42.418 30.4168 42.7 29.8648 42.892C29.3248 43.072 28.7308 43.162 28.0828 43.162C27.4348 43.162 26.8228 43.042 26.2468 42.802C25.6828 42.562 25.1908 42.232 24.7708 41.812C24.3628 41.392 24.0388 40.9 23.7988 40.336C23.5588 39.76 23.4388 39.142 23.4388 38.482C23.4388 37.834 23.5528 37.228 23.7808 36.664C24.0208 36.1 24.3388 35.608 24.7348 35.188C25.1308 34.768 25.5988 34.438 26.1388 34.198C26.6908 33.958 27.2728 33.838 27.8848 33.838C28.4848 33.838 29.0428 33.958 29.5588 34.198C30.0868 34.438 30.5368 34.768 30.9088 35.188C31.2928 35.608 31.5928 36.1 31.8087 36.664C32.0368 37.228 32.1508 37.834 32.1508 38.482V38.896H24.7528C24.8488 39.784 25.2148 40.522 25.8508 41.11C26.4868 41.698 27.2488 41.992 28.1368 41.992C28.6048 41.992 29.0608 41.92 29.5048 41.776C29.9488 41.632 30.3208 41.428 30.6208 41.164L31.4488 42.046ZM27.8488 35.008C27.0688 35.008 26.3908 35.272 25.8148 35.8C25.2508 36.328 24.9088 37.006 24.7888 37.834H30.8188C30.6988 37.042 30.3568 36.376 29.7928 35.836C29.2408 35.284 28.5928 35.008 27.8488 35.008ZM38.2425 41.956C38.7225 41.956 39.1845 41.86 39.6285 41.668C40.0725 41.476 40.4865 41.194 40.8705 40.822L41.6985 41.722C41.2185 42.178 40.6785 42.532 40.0785 42.784C39.4785 43.036 38.8545 43.162 38.2065 43.162C37.5705 43.162 36.9705 43.042 36.4065 42.802C35.8425 42.562 35.3565 42.232 34.9485 41.812C34.5405 41.392 34.2165 40.894 33.9765 40.318C33.7365 39.742 33.6165 39.13 33.6165 38.482C33.6165 37.834 33.7365 37.228 33.9765 36.664C34.2165 36.088 34.5405 35.59 34.9485 35.17C35.3565 34.75 35.8425 34.42 36.4065 34.18C36.9705 33.928 37.5705 33.802 38.2065 33.802C38.8545 33.802 39.4845 33.928 40.0965 34.18C40.7205 34.432 41.2665 34.78 41.7345 35.224L40.8885 36.196C40.5285 35.824 40.1145 35.536 39.6465 35.332C39.1785 35.128 38.7045 35.026 38.2245 35.026C37.7685 35.026 37.3365 35.116 36.9285 35.296C36.5205 35.476 36.1665 35.722 35.8665 36.034C35.5785 36.346 35.3505 36.712 35.1825 37.132C35.0145 37.552 34.9305 38.002 34.9305 38.482C34.9305 38.974 35.0145 39.436 35.1825 39.868C35.3625 40.288 35.5965 40.654 35.8845 40.966C36.1845 41.266 36.5385 41.506 36.9465 41.686C37.3545 41.866 37.7865 41.956 38.2425 41.956ZM42.4934 38.482C42.4934 37.834 42.6134 37.222 42.8534 36.646C43.0934 36.07 43.4174 35.572 43.8254 35.152C44.2454 34.732 44.7374 34.402 45.3014 34.162C45.8654 33.922 46.4654 33.802 47.1014 33.802C47.7374 33.802 48.3314 33.922 48.8834 34.162C49.4474 34.402 49.9334 34.732 50.3414 35.152C50.7614 35.572 51.0914 36.07 51.3314 36.646C51.5714 37.222 51.6914 37.834 51.6914 38.482C51.6914 39.142 51.5714 39.76 51.3314 40.336C51.0914 40.912 50.7614 41.41 50.3414 41.83C49.9334 42.25 49.4474 42.58 48.8834 42.82C48.3314 43.06 47.7374 43.18 47.1014 43.18C46.4654 43.18 45.8654 43.06 45.3014 42.82C44.7374 42.58 44.2454 42.25 43.8254 41.83C43.4174 41.41 43.0934 40.912 42.8534 40.336C42.6134 39.76 42.4934 39.142 42.4934 38.482ZM47.1014 41.992C47.5574 41.992 47.9834 41.902 48.3794 41.722C48.7874 41.542 49.1354 41.296 49.4234 40.984C49.7234 40.66 49.9574 40.288 50.1254 39.868C50.2934 39.436 50.3774 38.974 50.3774 38.482C50.3774 37.99 50.2934 37.534 50.1254 37.114C49.9574 36.682 49.7234 36.31 49.4234 35.998C49.1354 35.686 48.7874 35.44 48.3794 35.26C47.9834 35.08 47.5574 34.99 47.1014 34.99C46.6454 34.99 46.2134 35.08 45.8054 35.26C45.4094 35.44 45.0614 35.686 44.7614 35.998C44.4734 36.31 44.2394 36.682 44.0594 37.114C43.8914 37.534 43.8074 37.99 43.8074 38.482C43.8074 38.974 43.8914 39.436 44.0594 39.868C44.2274 40.288 44.4554 40.66 44.7434 40.984C45.0434 41.296 45.3974 41.542 45.8054 41.722C46.2134 41.902 46.6454 41.992 47.1014 41.992ZM53.5422 43V33.982H54.8742V35.26C55.1382 34.792 55.4862 34.432 55.9182 34.18C56.3502 33.916 56.8422 33.784 57.3942 33.784C57.5622 33.784 57.7122 33.796 57.8442 33.82C57.9762 33.832 58.1082 33.862 58.2402 33.91V35.134C58.0842 35.086 57.9282 35.05 57.7722 35.026C57.6162 34.99 57.4602 34.972 57.3042 34.972C56.7522 34.972 56.2662 35.134 55.8462 35.458C55.4262 35.77 55.1022 36.226 54.8742 36.826V43H53.5422ZM62.1343 43.162C61.1503 43.162 60.3463 42.91 59.7223 42.406C59.1103 41.902 58.8043 41.248 58.8043 40.444C58.8043 39.604 59.1283 38.938 59.7763 38.446C60.4243 37.942 61.3003 37.69 62.4043 37.69C62.8843 37.69 63.3463 37.744 63.7903 37.852C64.2463 37.96 64.6663 38.11 65.0503 38.302V37.114C65.0503 36.394 64.8463 35.854 64.4383 35.494C64.0303 35.122 63.4363 34.936 62.6562 34.936C62.2123 34.936 61.7623 35.002 61.3063 35.134C60.8623 35.254 60.3703 35.452 59.8303 35.728L59.3263 34.702C59.9743 34.39 60.5743 34.162 61.1263 34.018C61.6783 33.874 62.2303 33.802 62.7822 33.802C63.9223 33.802 64.7983 34.072 65.4103 34.612C66.0343 35.152 66.3463 35.926 66.3463 36.934V43H65.0503V42.118C64.6423 42.466 64.1923 42.73 63.7003 42.91C63.2203 43.078 62.6983 43.162 62.1343 43.162ZM60.0823 40.408C60.0823 40.912 60.2923 41.326 60.7123 41.65C61.1443 41.962 61.6963 42.118 62.3683 42.118C62.9083 42.118 63.4003 42.034 63.8443 41.866C64.2883 41.698 64.6903 41.434 65.0503 41.074V39.382C64.6783 39.13 64.2763 38.95 63.8443 38.842C63.4243 38.722 62.9563 38.662 62.4403 38.662C61.7203 38.662 61.1443 38.824 60.7123 39.148C60.2923 39.46 60.0823 39.88 60.0823 40.408ZM69.3359 40.984V35.116H67.3919V33.982H69.3359V31.696L70.6499 31.354V33.982H73.3679V35.116H70.6499V40.642C70.6499 41.122 70.7579 41.47 70.9739 41.686C71.1899 41.89 71.5439 41.992 72.0359 41.992C72.2879 41.992 72.5099 41.974 72.7019 41.938C72.9059 41.902 73.1219 41.842 73.3499 41.758V42.928C73.1219 43.012 72.8639 43.072 72.5759 43.108C72.2999 43.144 72.0299 43.162 71.7659 43.162C70.9859 43.162 70.3859 42.976 69.9659 42.604C69.5459 42.232 69.3359 41.692 69.3359 40.984ZM74.0989 38.482C74.0989 37.834 74.2189 37.222 74.4589 36.646C74.6989 36.07 75.0229 35.572 75.4309 35.152C75.8509 34.732 76.3429 34.402 76.9069 34.162C77.4709 33.922 78.0709 33.802 78.7069 33.802C79.3429 33.802 79.9369 33.922 80.4889 34.162C81.0529 34.402 81.5389 34.732 81.9469 35.152C82.3669 35.572 82.6969 36.07 82.9369 36.646C83.1769 37.222 83.2969 37.834 83.2969 38.482C83.2969 39.142 83.1769 39.76 82.9369 40.336C82.6969 40.912 82.3669 41.41 81.9469 41.83C81.5389 42.25 81.0529 42.58 80.4889 42.82C79.9369 43.06 79.3429 43.18 78.7069 43.18C78.0709 43.18 77.4709 43.06 76.9069 42.82C76.3429 42.58 75.8509 42.25 75.4309 41.83C75.0229 41.41 74.6989 40.912 74.4589 40.336C74.2189 39.76 74.0989 39.142 74.0989 38.482ZM78.7069 41.992C79.1629 41.992 79.5889 41.902 79.9849 41.722C80.3929 41.542 80.7409 41.296 81.0289 40.984C81.3289 40.66 81.5629 40.288 81.7309 39.868C81.8989 39.436 81.9829 38.974 81.9829 38.482C81.9829 37.99 81.8989 37.534 81.7309 37.114C81.5629 36.682 81.3289 36.31 81.0289 35.998C80.7409 35.686 80.3929 35.44 79.9849 35.26C79.5889 35.08 79.1629 34.99 78.7069 34.99C78.2509 34.99 77.8189 35.08 77.4109 35.26C77.0149 35.44 76.6669 35.686 76.3669 35.998C76.0789 36.31 75.8449 36.682 75.6649 37.114C75.4969 37.534 75.4129 37.99 75.4129 38.482C75.4129 38.974 75.4969 39.436 75.6649 39.868C75.8329 40.288 76.0609 40.66 76.3489 40.984C76.6489 41.296 77.0029 41.542 77.4109 41.722C77.8189 41.902 78.2509 41.992 78.7069 41.992ZM85.1477 43V33.982H86.4797V35.26C86.7437 34.792 87.0917 34.432 87.5237 34.18C87.9557 33.916 88.4477 33.784 88.9997 33.784C89.1677 33.784 89.3177 33.796 89.4497 33.82C89.5817 33.832 89.7137 33.862 89.8457 33.91V35.134C89.6897 35.086 89.5337 35.05 89.3777 35.026C89.2217 34.99 89.0657 34.972 88.9097 34.972C88.3577 34.972 87.8717 35.134 87.4517 35.458C87.0317 35.77 86.7077 36.226 86.4797 36.826V43H85.1477Z" fill="white"/>
</svg>
