<svg width="100" height="75" viewBox="0 0 100 75" fill="none" xmlns="http://www.w3.org/2000/svg">
<rect width="100" height="75" fill="#60136C"/>
<path d="M35.9961 28.6641C35.7943 28.9766 35.5501 29.2695 35.2637 29.543C34.9772 29.8164 34.6647 30.0573 34.3262 30.2656C33.9876 30.474 33.6296 30.64 33.252 30.7637C32.8743 30.8809 32.4967 30.9395 32.1191 30.9395L30.1953 30.959C29.9349 31.2715 29.7428 31.5742 29.6191 31.8672C29.4954 32.1602 29.4336 32.5052 29.4336 32.9023V35.6367H29.7168C29.9772 35.6367 30.293 35.6432 30.6641 35.6562C31.0352 35.6628 31.4095 35.653 31.7871 35.627C32.1712 35.6009 32.5358 35.5456 32.8809 35.4609C33.2259 35.3698 33.5059 35.2298 33.7207 35.041L33.9551 35.3242C33.7533 35.6302 33.5091 35.8874 33.2227 36.0957C32.9362 36.304 32.6237 36.4766 32.2852 36.6133C31.9466 36.7435 31.5885 36.8411 31.2109 36.9062C30.8333 36.9648 30.4557 36.9974 30.0781 37.0039H29.4336V40.7246C29.4336 41.5905 29.248 42.3587 28.877 43.0293C28.5059 43.7064 27.9655 44.2891 27.2559 44.7773L26.9141 44.3965C27.0247 44.2728 27.1126 44.1328 27.1777 43.9766C27.2428 43.8203 27.2917 43.6576 27.3242 43.4883C27.3633 43.319 27.3861 43.1497 27.3926 42.9805C27.4056 42.8047 27.4121 42.6387 27.4121 42.4824V37.0039H25.5176L26.5527 35.6367H27.4121V34.0352C27.4121 33.7292 27.474 33.4329 27.5977 33.1465C27.7279 32.8535 27.8906 32.5768 28.0859 32.3164C28.2812 32.056 28.4961 31.8118 28.7305 31.584C28.9648 31.3561 29.1927 31.1478 29.4141 30.959C29.1406 30.959 28.8802 30.959 28.6328 30.959C28.3919 30.9525 28.1478 30.9492 27.9004 30.9492C27.653 30.9492 27.3991 30.9492 27.1387 30.9492C26.8783 30.9427 26.5918 30.9395 26.2793 30.9395C26.0319 30.9395 25.8105 30.9655 25.6152 31.0176C25.4264 31.0632 25.2507 31.1315 25.0879 31.2227C24.9251 31.3138 24.7689 31.4277 24.6191 31.5645C24.4694 31.7012 24.3164 31.8607 24.1602 32.043L23.877 31.7402C24.0983 31.4342 24.362 31.1217 24.668 30.8027C24.974 30.4772 25.3027 30.181 25.6543 29.9141C26.0124 29.6471 26.3867 29.429 26.7773 29.2598C27.1745 29.084 27.5749 28.9961 27.9785 28.9961H31.7578C32.0117 28.9961 32.3242 28.9928 32.6953 28.9863C33.0664 28.9798 33.444 28.9603 33.8281 28.9277C34.2122 28.8887 34.5768 28.8301 34.9219 28.752C35.2669 28.6673 35.5436 28.5501 35.752 28.4004L35.9961 28.6641ZM42.5195 41.8379C42.4414 42.0072 42.3438 42.1667 42.2266 42.3164C42.1094 42.4661 41.9727 42.5996 41.8164 42.7168C41.6667 42.834 41.5007 42.9284 41.3184 43C41.1426 43.0651 40.957 43.0977 40.7617 43.0977C40.2474 43.0977 39.8763 42.9577 39.6484 42.6777C39.4271 42.3913 39.3164 42.0039 39.3164 41.5156V41.3398C39.1992 41.5612 39.0658 41.7826 38.916 42.0039C38.7728 42.2253 38.6068 42.4238 38.418 42.5996C38.2357 42.7754 38.0306 42.9186 37.8027 43.0293C37.5749 43.14 37.321 43.1953 37.041 43.1953C36.6178 43.1953 36.2435 43.1139 35.918 42.9512C35.5924 42.7884 35.319 42.5703 35.0977 42.2969C34.8763 42.0169 34.7103 41.6914 34.5996 41.3203C34.4889 40.9492 34.4336 40.5553 34.4336 40.1387C34.4336 39.5723 34.5312 39.0091 34.7266 38.4492C34.9284 37.8828 35.2083 37.3783 35.5664 36.9355C35.931 36.4928 36.3639 36.1348 36.8652 35.8613C37.373 35.5814 37.9362 35.4414 38.5547 35.4414C38.8021 35.4414 39.0495 35.4642 39.2969 35.5098C39.5443 35.5553 39.7786 35.6302 40 35.7344C40.2279 35.832 40.4329 35.9622 40.6152 36.125C40.804 36.2878 40.957 36.4863 41.0742 36.7207L39.6191 37.3359C39.541 37.2122 39.4499 37.0951 39.3457 36.9844C39.248 36.8672 39.1374 36.7663 39.0137 36.6816C38.8965 36.597 38.7695 36.5286 38.6328 36.4766C38.4961 36.4245 38.3529 36.3984 38.2031 36.3984C37.8646 36.3984 37.5618 36.5026 37.2949 36.7109C37.0345 36.9193 36.8099 37.1764 36.6211 37.4824C36.4388 37.7884 36.2988 38.1139 36.2012 38.459C36.1035 38.804 36.0547 39.1165 36.0547 39.3965C36.0547 39.6439 36.0775 39.9238 36.123 40.2363C36.1751 40.5423 36.263 40.832 36.3867 41.1055C36.5104 41.3789 36.6732 41.61 36.875 41.7988C37.0768 41.9876 37.3307 42.082 37.6367 42.082C37.8776 42.082 38.0859 42.0299 38.2617 41.9258C38.4375 41.8151 38.5872 41.6751 38.7109 41.5059C38.8346 41.3301 38.9355 41.1315 39.0137 40.9102C39.0983 40.6823 39.1602 40.4512 39.1992 40.2168C39.2448 39.9824 39.2741 39.7513 39.2871 39.5234C39.3066 39.2891 39.3164 39.0807 39.3164 38.8984V38.2246L41.0938 37.5996V41.5645C41.0938 41.6947 41.1263 41.8151 41.1914 41.9258C41.2565 42.0299 41.3574 42.082 41.4941 42.082C41.6569 42.082 41.8034 42.0234 41.9336 41.9062C42.0703 41.7826 42.1777 41.6589 42.2559 41.5352L42.5195 41.8379ZM50.2051 40.8809C49.9772 41.1738 49.7266 41.4603 49.4531 41.7402C49.1862 42.0137 48.8932 42.2578 48.5742 42.4727C48.2617 42.6875 47.9297 42.8633 47.5781 43C47.2266 43.1302 46.862 43.1953 46.4844 43.1953C46.4453 43.1953 46.4062 43.1921 46.3672 43.1855C46.3281 43.179 46.2891 43.1758 46.25 43.1758L45.8496 43.8789C45.9603 43.8073 46.0742 43.752 46.1914 43.7129C46.3086 43.6803 46.416 43.6543 46.5137 43.6348C46.6309 43.6087 46.7415 43.5957 46.8457 43.5957C46.9889 43.5957 47.1322 43.6217 47.2754 43.6738C47.4251 43.7324 47.5553 43.8171 47.666 43.9277C47.7767 44.0449 47.8678 44.1882 47.9395 44.3574C48.0111 44.5267 48.0469 44.7285 48.0469 44.9629C48.0469 45.1908 48.0013 45.3926 47.9102 45.5684C47.819 45.7441 47.7018 45.8906 47.5586 46.0078C47.4154 46.1315 47.2559 46.2227 47.0801 46.2812C46.9043 46.3464 46.735 46.3789 46.5723 46.3789C46.416 46.3789 46.2598 46.3464 46.1035 46.2812C45.9733 46.2292 45.8366 46.1478 45.6934 46.0371C45.5501 45.9264 45.4297 45.7669 45.332 45.5586L45.6055 45.3633C45.6641 45.4609 45.7292 45.5326 45.8008 45.5781C45.8724 45.6302 45.9375 45.6693 45.9961 45.6953C46.0677 45.7214 46.1393 45.7376 46.2109 45.7441C46.3932 45.7441 46.5527 45.6693 46.6895 45.5195C46.8327 45.3763 46.9043 45.1908 46.9043 44.9629C46.9043 44.7546 46.8359 44.5723 46.6992 44.416C46.5625 44.2598 46.3802 44.1816 46.1523 44.1816C46.0612 44.1816 45.9798 44.1882 45.9082 44.2012C45.8431 44.2142 45.7812 44.2305 45.7227 44.25C45.6641 44.276 45.625 44.3118 45.6055 44.3574L45.332 44.123L45.8887 43.1367C45.485 43.0781 45.1172 42.9544 44.7852 42.7656C44.4596 42.5703 44.1764 42.3229 43.9355 42.0234C43.6947 41.7174 43.5091 41.3594 43.3789 40.9492C43.2487 40.5391 43.1836 40.0898 43.1836 39.6016C43.1836 39.0286 43.2975 38.485 43.5254 37.9707C43.7598 37.4564 44.069 37.0072 44.4531 36.623C44.8438 36.2324 45.2962 35.9264 45.8105 35.7051C46.3249 35.4772 46.8652 35.3633 47.4316 35.3633C47.653 35.3633 47.8743 35.3861 48.0957 35.4316C48.3236 35.4707 48.5384 35.5358 48.7402 35.627C48.9486 35.7116 49.1374 35.8288 49.3066 35.9785C49.4824 36.1217 49.6289 36.2943 49.7461 36.4961L48.3496 37.2578C48.2845 37.1016 48.1901 36.9648 48.0664 36.8477C47.9492 36.7305 47.8158 36.6328 47.666 36.5547C47.5163 36.4766 47.3568 36.418 47.1875 36.3789C47.0247 36.3398 46.8652 36.3203 46.709 36.3203C46.3965 36.3203 46.1165 36.3919 45.8691 36.5352C45.6217 36.6719 45.4102 36.8542 45.2344 37.082C45.0651 37.3034 44.9349 37.5573 44.8438 37.8438C44.7526 38.1237 44.707 38.4102 44.707 38.7031C44.707 39.263 44.7754 39.7578 44.9121 40.1875C45.0488 40.6172 45.2376 40.9785 45.4785 41.2715C45.7194 41.5645 46.0026 41.7858 46.3281 41.9355C46.6536 42.0853 47.0085 42.1602 47.3926 42.1602C47.6139 42.1602 47.8418 42.1048 48.0762 41.9941C48.3105 41.8835 48.5352 41.7467 48.75 41.584C48.9714 41.4147 49.1797 41.2357 49.375 41.0469C49.5768 40.8581 49.7559 40.6888 49.9121 40.5391L50.2051 40.8809ZM59.1797 41.8379C59.1016 42.0072 59.0039 42.1667 58.8867 42.3164C58.7695 42.4661 58.6328 42.5996 58.4766 42.7168C58.3268 42.834 58.1608 42.9284 57.9785 43C57.8027 43.0651 57.6172 43.0977 57.4219 43.0977C56.9076 43.0977 56.5365 42.9577 56.3086 42.6777C56.0872 42.3913 55.9766 42.0039 55.9766 41.5156V41.3398C55.8594 41.5612 55.7259 41.7826 55.5762 42.0039C55.4329 42.2253 55.2669 42.4238 55.0781 42.5996C54.8958 42.7754 54.6908 42.9186 54.4629 43.0293C54.235 43.14 53.9811 43.1953 53.7012 43.1953C53.278 43.1953 52.9036 43.1139 52.5781 42.9512C52.2526 42.7884 51.9792 42.5703 51.7578 42.2969C51.5365 42.0169 51.3704 41.6914 51.2598 41.3203C51.1491 40.9492 51.0938 40.5553 51.0938 40.1387C51.0938 39.5723 51.1914 39.0091 51.3867 38.4492C51.5885 37.8828 51.8685 37.3783 52.2266 36.9355C52.5911 36.4928 53.0241 36.1348 53.5254 35.8613C54.0332 35.5814 54.5964 35.4414 55.2148 35.4414C55.4622 35.4414 55.7096 35.4642 55.957 35.5098C56.2044 35.5553 56.4388 35.6302 56.6602 35.7344C56.888 35.832 57.0931 35.9622 57.2754 36.125C57.4642 36.2878 57.6172 36.4863 57.7344 36.7207L56.2793 37.3359C56.2012 37.2122 56.11 37.0951 56.0059 36.9844C55.9082 36.8672 55.7975 36.7663 55.6738 36.6816C55.5566 36.597 55.4297 36.5286 55.293 36.4766C55.1562 36.4245 55.013 36.3984 54.8633 36.3984C54.5247 36.3984 54.222 36.5026 53.9551 36.7109C53.6947 36.9193 53.4701 37.1764 53.2812 37.4824C53.099 37.7884 52.959 38.1139 52.8613 38.459C52.7637 38.804 52.7148 39.1165 52.7148 39.3965C52.7148 39.6439 52.7376 39.9238 52.7832 40.2363C52.8353 40.5423 52.9232 40.832 53.0469 41.1055C53.1706 41.3789 53.3333 41.61 53.5352 41.7988C53.737 41.9876 53.9909 42.082 54.2969 42.082C54.5378 42.082 54.7461 42.0299 54.9219 41.9258C55.0977 41.8151 55.2474 41.6751 55.3711 41.5059C55.4948 41.3301 55.5957 41.1315 55.6738 40.9102C55.7585 40.6823 55.8203 40.4512 55.8594 40.2168C55.9049 39.9824 55.9342 39.7513 55.9473 39.5234C55.9668 39.2891 55.9766 39.0807 55.9766 38.8984V38.2246L57.7539 37.5996V41.5645C57.7539 41.6947 57.7865 41.8151 57.8516 41.9258C57.9167 42.0299 58.0176 42.082 58.1543 42.082C58.3171 42.082 58.4635 42.0234 58.5938 41.9062C58.7305 41.7826 58.8379 41.6589 58.916 41.5352L59.1797 41.8379ZM67.9883 41.8379C67.9102 42.0072 67.8092 42.1667 67.6855 42.3164C67.5618 42.4661 67.4251 42.5996 67.2754 42.7168C67.1257 42.834 66.9596 42.9284 66.7773 43C66.6016 43.0651 66.4193 43.0977 66.2305 43.0977C65.7161 43.0977 65.3418 42.9577 65.1074 42.6777C64.8796 42.3913 64.7656 42.0039 64.7656 41.5156V41.3398C64.6549 41.5612 64.528 41.7826 64.3848 42.0039C64.2415 42.2253 64.0755 42.4238 63.8867 42.5996C63.7044 42.7754 63.4961 42.9186 63.2617 43.0293C63.0339 43.14 62.7767 43.1953 62.4902 43.1953C62.054 43.1953 61.6699 43.1107 61.3379 42.9414C61.0124 42.7656 60.7389 42.5345 60.5176 42.248C60.2962 41.9551 60.127 41.6165 60.0098 41.2324C59.8991 40.8483 59.8438 40.4447 59.8438 40.0215C59.8438 39.4746 59.9284 38.9245 60.0977 38.3711C60.2669 37.8177 60.5143 37.3164 60.8398 36.8672C61.1654 36.418 61.5658 36.0534 62.041 35.7734C62.5163 35.487 63.0599 35.3438 63.6719 35.3438C64.0495 35.3438 64.4141 35.4349 64.7656 35.6172V29.6211L66.5723 28.9961V41.5645C66.5723 41.6947 66.6016 41.8151 66.6602 41.9258C66.7253 42.0299 66.8294 42.082 66.9727 42.082C67.1224 42.082 67.2624 42.0234 67.3926 41.9062C67.5228 41.7826 67.627 41.6589 67.7051 41.5352L67.9883 41.8379ZM64.7656 38.8984V36.8184C64.6159 36.6686 64.4466 36.5449 64.2578 36.4473C64.0755 36.3496 63.8737 36.3008 63.6523 36.3008C63.2682 36.3008 62.9427 36.4049 62.6758 36.6133C62.4089 36.8216 62.1908 37.082 62.0215 37.3945C61.8522 37.707 61.7285 38.0456 61.6504 38.4102C61.5723 38.7682 61.5332 39.1035 61.5332 39.416C61.5332 39.6634 61.556 39.9434 61.6016 40.2559C61.6536 40.5618 61.7383 40.8516 61.8555 41.125C61.9792 41.3919 62.1387 41.6198 62.334 41.8086C62.5358 41.9909 62.7865 42.082 63.0859 42.082C63.3268 42.082 63.5352 42.0299 63.7109 41.9258C63.8932 41.8151 64.0462 41.6751 64.1699 41.5059C64.2936 41.3301 64.3945 41.1315 64.4727 40.9102C64.5508 40.6823 64.6094 40.4512 64.6484 40.2168C64.694 39.9824 64.7233 39.7513 64.7363 39.5234C64.7559 39.2891 64.7656 39.0807 64.7656 38.8984ZM75.7324 41.0957C75.5046 41.3887 75.2539 41.6621 74.9805 41.916C74.7135 42.1699 74.4206 42.3913 74.1016 42.5801C73.7891 42.7689 73.457 42.9186 73.1055 43.0293C72.7539 43.14 72.3893 43.1953 72.0117 43.1953C71.5299 43.1953 71.0872 43.1107 70.6836 42.9414C70.2799 42.7656 69.9316 42.528 69.6387 42.2285C69.3457 41.9225 69.1178 41.5645 68.9551 41.1543C68.7923 40.7376 68.7109 40.2917 68.7109 39.8164C68.7109 39.4258 68.7663 39.0417 68.877 38.6641C68.9876 38.2865 69.1439 37.9316 69.3457 37.5996C69.5475 37.2676 69.7852 36.9616 70.0586 36.6816C70.3385 36.3952 70.6445 36.151 70.9766 35.9492C71.3086 35.7474 71.6602 35.5911 72.0312 35.4805C72.4023 35.3633 72.7832 35.3047 73.1738 35.3047C73.4473 35.3047 73.7044 35.3372 73.9453 35.4023C74.1927 35.4674 74.4108 35.5716 74.5996 35.7148C74.7884 35.8516 74.9382 36.0306 75.0488 36.252C75.1595 36.4668 75.2148 36.724 75.2148 37.0234C75.2148 37.2708 75.14 37.5312 74.9902 37.8047C74.847 38.0781 74.6549 38.3516 74.4141 38.625C74.1797 38.8984 73.9128 39.1686 73.6133 39.4355C73.3138 39.696 73.0078 39.9401 72.6953 40.168C72.3893 40.3893 72.0931 40.5846 71.8066 40.7539C71.5202 40.9232 71.2695 41.0534 71.0547 41.1445C71.2956 41.444 71.5755 41.6882 71.8945 41.877C72.2135 42.0658 72.5521 42.1602 72.9102 42.1602C73.138 42.1602 73.3691 42.1178 73.6035 42.0332C73.8379 41.9421 74.0625 41.8281 74.2773 41.6914C74.4987 41.5547 74.707 41.4049 74.9023 41.2422C75.1042 41.0794 75.2832 40.9264 75.4395 40.7832L75.7324 41.0957ZM73.3789 37.3848C73.3789 37.235 73.3529 37.0918 73.3008 36.9551C73.2552 36.8184 73.1868 36.7012 73.0957 36.6035C73.0046 36.4993 72.8939 36.418 72.7637 36.3594C72.64 36.2943 72.4967 36.2617 72.334 36.2617C72.041 36.2617 71.7708 36.3659 71.5234 36.5742C71.276 36.776 71.0612 37.0267 70.8789 37.3262C70.7031 37.6257 70.5632 37.9447 70.459 38.2832C70.3613 38.6152 70.3125 38.9082 70.3125 39.1621C70.3125 39.4095 70.3516 39.6634 70.4297 39.9238C70.5078 40.1842 70.6152 40.4349 70.752 40.6758C71.0124 40.5326 71.2956 40.334 71.6016 40.0801C71.9076 39.8262 72.1908 39.5495 72.4512 39.25C72.7181 38.944 72.9395 38.6283 73.1152 38.3027C73.291 37.9772 73.3789 37.6712 73.3789 37.3848Z" fill="white"/>
</svg>
