<svg width="100" height="75" viewBox="0 0 100 75" fill="none" xmlns="http://www.w3.org/2000/svg">
<rect width="100" height="75" fill="#510606"/>
<path d="M21.6787 24.5957C22.3805 24.5957 23.1211 24.6208 23.9004 24.6709C24.6842 24.721 25.5068 24.819 26.3682 24.9648V26.7012C25.9854 26.5918 25.598 26.5029 25.2061 26.4346C24.8141 26.3617 24.4199 26.3047 24.0234 26.2637C23.6315 26.2227 23.2396 26.193 22.8477 26.1748C22.4557 26.1566 22.0661 26.1452 21.6787 26.1406C21.4919 26.1406 21.2845 26.1452 21.0566 26.1543C20.8333 26.1589 20.5918 26.168 20.332 26.1816C20.0768 26.1953 19.8102 26.2158 19.5322 26.2432C19.2542 26.2705 18.9717 26.3047 18.6846 26.3457V28.834H24.6592V30.5156H18.6846V35H17.0029V24.9648C17.8551 24.819 18.6732 24.721 19.457 24.6709C20.2454 24.6208 20.986 24.5957 21.6787 24.5957ZM35.3779 32.2109C35.264 32.1107 35.1227 32.0127 34.9541 31.917C34.7855 31.8213 34.5781 31.737 34.332 31.6641C34.0859 31.5866 33.792 31.5251 33.4502 31.4795C33.113 31.4294 32.7165 31.4043 32.2607 31.4043C31.8551 31.4043 31.4701 31.4134 31.1055 31.4316C30.7454 31.4453 30.4287 31.4909 30.1553 31.5684C29.8818 31.6413 29.6654 31.7598 29.5059 31.9238C29.3464 32.0879 29.2666 32.3158 29.2666 32.6074V33.4824C29.6676 33.5462 30.1097 33.5986 30.5928 33.6396C31.0758 33.6807 31.6136 33.7012 32.2061 33.7012C32.68 33.7012 33.1836 33.6852 33.7168 33.6533C34.2546 33.6169 34.8083 33.5462 35.3779 33.4414V32.2109ZM32.3018 27.207C32.5296 27.207 32.8053 27.2184 33.1289 27.2412C33.4525 27.264 33.7897 27.305 34.1406 27.3643C34.4915 27.4189 34.8379 27.4964 35.1797 27.5967C35.526 27.6924 35.8359 27.82 36.1094 27.9795C36.3874 28.1344 36.6107 28.3213 36.7793 28.54C36.9479 28.7588 37.0322 29.0163 37.0322 29.3125V34.6035C36.6494 34.681 36.2165 34.7471 35.7334 34.8018C35.3187 34.8519 34.8242 34.8975 34.25 34.9385C33.6758 34.9795 33.0355 35 32.3291 35C31.6273 35 30.8799 34.9704 30.0869 34.9111C29.2985 34.8519 28.4736 34.7493 27.6123 34.6035V32.1426C27.6123 31.8783 27.6738 31.6481 27.7969 31.4521C27.9245 31.2516 28.0977 31.0807 28.3164 30.9395C28.5352 30.7982 28.7926 30.682 29.0889 30.5908C29.3851 30.4997 29.7041 30.4268 30.0459 30.3721C30.3877 30.3174 30.7432 30.2809 31.1123 30.2627C31.4814 30.2399 31.8506 30.2285 32.2197 30.2285C32.7803 30.2285 33.2565 30.265 33.6484 30.3379C34.0449 30.4062 34.373 30.4814 34.6328 30.5635C34.9336 30.6637 35.182 30.7754 35.3779 30.8984V29.791C35.3779 29.6042 35.3324 29.4447 35.2412 29.3125C35.1501 29.1758 35.027 29.0618 34.8721 28.9707C34.7171 28.875 34.5394 28.7998 34.3389 28.7451C34.1383 28.6859 33.9287 28.6403 33.71 28.6084C33.4912 28.5765 33.2679 28.556 33.04 28.5469C32.8167 28.5378 32.6071 28.5332 32.4111 28.5332C32.2061 28.5332 31.9873 28.54 31.7549 28.5537C31.5225 28.5628 31.29 28.5833 31.0576 28.6152C30.8298 28.6471 30.6087 28.6927 30.3945 28.752C30.1849 28.8066 29.998 28.8818 29.834 28.9775C29.6699 29.0732 29.5378 29.1895 29.4375 29.3262C29.3418 29.4583 29.2939 29.6178 29.2939 29.8047L27.5986 29.3672C27.5986 29.0618 27.6738 28.7975 27.8242 28.5742C27.9746 28.3464 28.1729 28.1527 28.4189 27.9932C28.6696 27.8337 28.9567 27.7038 29.2803 27.6035C29.6038 27.4987 29.9388 27.4189 30.2852 27.3643C30.6361 27.305 30.9847 27.264 31.3311 27.2412C31.6774 27.2184 32.001 27.207 32.3018 27.207ZM43.6768 27.084C44.055 27.084 44.4355 27.1022 44.8184 27.1387C45.2012 27.1751 45.568 27.2344 45.9189 27.3164C46.2699 27.3984 46.598 27.501 46.9033 27.624C47.2087 27.7471 47.473 27.8952 47.6963 28.0684C47.9242 28.2415 48.1019 28.4421 48.2295 28.6699C48.3571 28.8932 48.4209 29.1439 48.4209 29.4219L46.6709 29.6816C46.6709 29.4857 46.5866 29.3102 46.418 29.1553C46.2493 28.9958 46.026 28.8636 45.748 28.7588C45.4701 28.6494 45.151 28.5674 44.791 28.5127C44.431 28.4535 44.0596 28.4238 43.6768 28.4238C43.3122 28.4238 42.9521 28.4512 42.5967 28.5059C42.2412 28.556 41.9222 28.6335 41.6396 28.7383C41.3617 28.8431 41.1338 28.9753 40.9561 29.1348C40.7829 29.2897 40.6963 29.472 40.6963 29.6816V32.5254C40.6963 32.735 40.7829 32.9173 40.9561 33.0723C41.1338 33.2227 41.3617 33.3503 41.6396 33.4551C41.9222 33.5553 42.2412 33.6305 42.5967 33.6807C42.9521 33.7308 43.3122 33.7559 43.6768 33.7559C44.0596 33.7559 44.431 33.7285 44.791 33.6738C45.151 33.6191 45.4701 33.5417 45.748 33.4414C46.026 33.3366 46.2493 33.209 46.418 33.0586C46.5866 32.9036 46.6709 32.7259 46.6709 32.5254L48.4209 32.9629C48.4209 33.209 48.3571 33.4346 48.2295 33.6396C48.1019 33.8447 47.9242 34.0293 47.6963 34.1934C47.473 34.3529 47.2087 34.4919 46.9033 34.6104C46.598 34.7288 46.2699 34.8268 45.9189 34.9043C45.568 34.9818 45.2012 35.0387 44.8184 35.0752C44.4355 35.1162 44.055 35.1367 43.6768 35.1367C43.2985 35.1367 42.918 35.1162 42.5352 35.0752C42.1569 35.0387 41.7923 34.9818 41.4414 34.9043C41.0905 34.8268 40.7624 34.7288 40.457 34.6104C40.1562 34.4919 39.8919 34.3529 39.6641 34.1934C39.4408 34.0293 39.2653 33.847 39.1377 33.6465C39.0101 33.4414 38.9463 33.2135 38.9463 32.9629V29.4219C38.9463 29.1439 39.0101 28.8932 39.1377 28.6699C39.2653 28.4421 39.4408 28.2415 39.6641 28.0684C39.8919 27.8952 40.1562 27.7471 40.457 27.624C40.7624 27.501 41.0905 27.3984 41.4414 27.3164C41.7923 27.2344 42.1569 27.1751 42.5352 27.1387C42.918 27.1022 43.2985 27.084 43.6768 27.084ZM52.3037 27.1113H54.04V28.2598H52.3037V35H50.6768V28.2598H49.3916V27.1113H50.6768V24.7324H52.3037V27.1113ZM60.2061 27.084C60.5889 27.084 60.9694 27.1022 61.3477 27.1387C61.7305 27.1751 62.0973 27.2344 62.4482 27.3164C62.7992 27.3984 63.1273 27.501 63.4326 27.624C63.738 27.7471 64.0023 27.8952 64.2256 28.0684C64.4535 28.2415 64.6312 28.4421 64.7588 28.6699C64.8864 28.8932 64.9502 29.1439 64.9502 29.4219V32.9629C64.9502 33.209 64.8864 33.4346 64.7588 33.6396C64.6312 33.8447 64.4535 34.0293 64.2256 34.1934C64.0023 34.3529 63.738 34.4919 63.4326 34.6104C63.1273 34.7288 62.7992 34.8268 62.4482 34.9043C62.0973 34.9818 61.7305 35.0387 61.3477 35.0752C60.9648 35.1162 60.5843 35.1367 60.2061 35.1367C59.8278 35.1367 59.4473 35.1162 59.0645 35.0752C58.6862 35.0387 58.3216 34.9818 57.9707 34.9043C57.6198 34.8268 57.2917 34.7288 56.9863 34.6104C56.6855 34.4919 56.4212 34.3529 56.1934 34.1934C55.9701 34.0293 55.7946 33.847 55.667 33.6465C55.5394 33.4414 55.4756 33.2135 55.4756 32.9629V29.4219C55.4756 29.1439 55.5394 28.8932 55.667 28.6699C55.7946 28.4421 55.9701 28.2415 56.1934 28.0684C56.4212 27.8952 56.6855 27.7471 56.9863 27.624C57.2917 27.501 57.6198 27.3984 57.9707 27.3164C58.3216 27.2344 58.6862 27.1751 59.0645 27.1387C59.4473 27.1022 59.8278 27.084 60.2061 27.084ZM57.2119 32.5254C57.2119 32.735 57.2985 32.9173 57.4717 33.0723C57.6494 33.2227 57.8796 33.3503 58.1621 33.4551C58.4447 33.5553 58.7637 33.6305 59.1191 33.6807C59.4792 33.7308 59.8415 33.7559 60.2061 33.7559C60.5889 33.7559 60.958 33.7285 61.3135 33.6738C61.6735 33.6191 61.9925 33.5417 62.2705 33.4414C62.5485 33.3366 62.7695 33.209 62.9336 33.0586C63.1022 32.9036 63.1865 32.7259 63.1865 32.5254V29.6816C63.1865 29.4857 63.1022 29.3102 62.9336 29.1553C62.7695 28.9958 62.5485 28.8636 62.2705 28.7588C61.9925 28.6494 61.6735 28.5674 61.3135 28.5127C60.958 28.4535 60.5889 28.4238 60.2061 28.4238C59.8415 28.4238 59.4792 28.4512 59.1191 28.5059C58.7637 28.556 58.4447 28.6335 58.1621 28.7383C57.8796 28.8431 57.6494 28.9753 57.4717 29.1348C57.2985 29.2897 57.2119 29.472 57.2119 29.6816V32.5254ZM72.6885 27.207C72.6885 27.681 72.6725 28.1755 72.6406 28.6904C72.6087 29.2008 72.5472 29.7272 72.4561 30.2695H70.8018C70.8428 30.1146 70.8815 29.946 70.918 29.7637C70.9453 29.6087 70.9704 29.4287 70.9932 29.2236C71.0205 29.014 71.0342 28.793 71.0342 28.5605C70.6331 28.5697 70.3005 28.6084 70.0361 28.6768C69.7764 28.7406 69.5599 28.818 69.3867 28.9092C69.2135 28.9958 69.0723 29.0846 68.9629 29.1758C68.8535 29.2669 68.7555 29.3398 68.6689 29.3945V35H66.9189V29.3535C66.9007 29.2077 66.8574 29.0846 66.7891 28.9844C66.7253 28.8841 66.6569 28.8021 66.584 28.7383C66.502 28.6608 66.4085 28.597 66.3037 28.5469L67.0283 27.207C67.1969 27.2663 67.3633 27.346 67.5273 27.4463C67.6686 27.5329 67.8167 27.6445 67.9717 27.7812C68.1312 27.9134 68.2725 28.0775 68.3955 28.2734C68.6279 28.1139 68.8421 27.9795 69.0381 27.8701C69.234 27.7562 69.4232 27.6605 69.6055 27.583C69.7923 27.5055 69.9837 27.4463 70.1797 27.4053C70.3802 27.3597 70.599 27.3232 70.8359 27.2959C71.0775 27.2686 71.3464 27.2503 71.6426 27.2412C71.9434 27.2275 72.292 27.2161 72.6885 27.207ZM76.0518 31.8281C76.0518 32.0833 76.0859 32.3044 76.1543 32.4912C76.2227 32.6735 76.3161 32.8307 76.4346 32.9629C76.5531 33.0905 76.6875 33.1953 76.8379 33.2773C76.9928 33.3594 77.1546 33.4232 77.3232 33.4688C77.4919 33.5098 77.6628 33.5394 77.8359 33.5576C78.0091 33.5713 78.1755 33.5781 78.335 33.5781C78.9137 33.5781 79.4401 33.5029 79.9141 33.3525C80.388 33.2021 80.8096 33.0176 81.1787 32.7988V27.207L82.9424 27.3438V35.3418C82.9424 35.6654 82.874 35.9661 82.7373 36.2441C82.6006 36.5221 82.4023 36.7614 82.1426 36.9619C81.8828 37.167 81.5638 37.3265 81.1855 37.4404C80.8073 37.5544 80.3766 37.6113 79.8936 37.6113V36.4219C80.0758 36.4219 80.2445 36.4036 80.3994 36.3672C80.5544 36.3307 80.6888 36.2738 80.8027 36.1963C80.9212 36.1234 81.0124 36.0299 81.0762 35.916C81.1445 35.8066 81.1787 35.679 81.1787 35.5332V34.0977C80.9645 34.2298 80.7458 34.3506 80.5225 34.46C80.3037 34.5693 80.0736 34.665 79.832 34.7471C79.5905 34.8245 79.3376 34.8861 79.0732 34.9316C78.8089 34.9772 78.5309 35 78.2393 35C77.5329 35 76.929 34.943 76.4277 34.8291C75.9264 34.7106 75.514 34.5374 75.1904 34.3096C74.8714 34.0771 74.6367 33.79 74.4863 33.4482C74.3359 33.1064 74.2607 32.7077 74.2607 32.252V27.3438L76.0518 27.207V31.8281ZM25.083 47.1191L28.6514 41.6504C29.0387 41.6732 29.4056 41.7028 29.752 41.7393C30.0983 41.7712 30.4014 41.8053 30.6611 41.8418C30.9665 41.8828 31.249 41.9238 31.5088 41.9648V43.5371L30.2373 43.25V50.3047L31.5088 50.0176V51.7129C31.0257 51.8086 30.5495 51.8792 30.0801 51.9248C29.6107 51.9704 29.1344 52.0046 28.6514 52.0273V44.5215L25.083 50.0586L21.46 44.5078V52.0273C21.0726 52.0046 20.7057 51.9772 20.3594 51.9453C20.013 51.9134 19.71 51.8792 19.4502 51.8428C19.1449 51.8018 18.8623 51.7585 18.6025 51.7129V50.0176L19.874 50.3047V43.2363L18.6025 43.5234V41.9512C18.8623 41.9102 19.1449 41.8691 19.4502 41.8281C19.71 41.7917 20.013 41.7575 20.3594 41.7256C20.7057 41.6891 21.0726 41.6595 21.46 41.6367L25.083 47.1191ZM38.5498 44.207C38.7822 44.207 39.0625 44.2184 39.3906 44.2412C39.7188 44.264 40.0583 44.305 40.4092 44.3643C40.7646 44.4189 41.1156 44.4987 41.4619 44.6035C41.8083 44.7038 42.1182 44.8337 42.3916 44.9932C42.6696 45.1527 42.8929 45.3464 43.0615 45.5742C43.2347 45.7975 43.3213 46.0618 43.3213 46.3672V48.6777H35.4873V50.4277C36.0387 50.5052 36.5697 50.5599 37.0801 50.5918C37.5905 50.6191 38.0804 50.6328 38.5498 50.6328C39.2653 50.6328 39.9124 50.6055 40.4912 50.5508C41.0745 50.4961 41.5781 50.4346 42.002 50.3662C42.4896 50.2887 42.9294 50.1999 43.3213 50.0996V51.6172C42.4554 51.7539 41.6191 51.8519 40.8125 51.9111C40.0104 51.9704 39.2562 52 38.5498 52C37.8389 52 37.194 51.9818 36.6152 51.9453C36.0365 51.9043 35.5397 51.8587 35.125 51.8086C34.6419 51.7539 34.2067 51.6901 33.8193 51.6172V46.3672C33.8193 46.0618 33.8945 45.7975 34.0449 45.5742C34.1953 45.3464 34.3958 45.1527 34.6465 44.9932C34.8971 44.8337 35.1842 44.7038 35.5078 44.6035C35.8359 44.4987 36.1755 44.4189 36.5264 44.3643C36.8773 44.305 37.2259 44.264 37.5723 44.2412C37.9232 44.2184 38.249 44.207 38.5498 44.207ZM35.4873 47.584H41.626V46.791C41.626 46.6042 41.5804 46.4447 41.4893 46.3125C41.3981 46.1758 41.2751 46.0618 41.1201 45.9707C40.9697 45.8796 40.792 45.8066 40.5869 45.752C40.3864 45.6927 40.1768 45.6494 39.958 45.6221C39.7393 45.5902 39.5182 45.5697 39.2949 45.5605C39.0762 45.5514 38.8688 45.5469 38.6729 45.5469C38.4678 45.5469 38.2467 45.5514 38.0098 45.5605C37.7773 45.5697 37.5426 45.5902 37.3057 45.6221C37.0687 45.654 36.8408 45.6995 36.6221 45.7588C36.4033 45.8135 36.2096 45.8887 36.041 45.9844C35.8724 46.0755 35.738 46.1895 35.6377 46.3262C35.5374 46.4583 35.4873 46.6178 35.4873 46.8047V47.584ZM47.6553 44.1113H49.3916V45.2598H47.6553V52H46.0283V45.2598H44.7432V44.1113H46.0283V41.7324H47.6553V44.1113ZM55.8447 44.207C56.5465 44.207 57.1481 44.2663 57.6494 44.3848C58.1507 44.4987 58.5609 44.6719 58.8799 44.9043C59.2035 45.1322 59.4382 45.417 59.584 45.7588C59.7344 46.1006 59.8096 46.4993 59.8096 46.9551V52H58.0186V47.3789C58.0186 47.1237 57.9844 46.9049 57.916 46.7227C57.8477 46.5358 57.7542 46.3786 57.6357 46.251C57.5218 46.1188 57.3874 46.0117 57.2324 45.9297C57.0775 45.8477 56.9157 45.7861 56.7471 45.7451C56.583 45.6995 56.4144 45.6699 56.2412 45.6562C56.068 45.638 55.904 45.6289 55.749 45.6289C55.4574 45.6289 55.1794 45.6494 54.915 45.6904C54.6507 45.7314 54.4001 45.7884 54.1631 45.8613C53.9261 45.9297 53.7028 46.0117 53.4932 46.1074C53.2835 46.2031 53.0876 46.3034 52.9053 46.4082V52H51.1143V41.5957H52.9053V45.1094C53.1149 44.9818 53.3291 44.8633 53.5479 44.7539C53.7666 44.6445 53.9945 44.5488 54.2314 44.4668C54.473 44.3848 54.7259 44.321 54.9902 44.2754C55.2591 44.2298 55.5439 44.207 55.8447 44.207ZM66.5088 44.084C66.8916 44.084 67.2721 44.1022 67.6504 44.1387C68.0332 44.1751 68.4001 44.2344 68.751 44.3164C69.1019 44.3984 69.43 44.501 69.7354 44.624C70.0407 44.7471 70.305 44.8952 70.5283 45.0684C70.7562 45.2415 70.9339 45.4421 71.0615 45.6699C71.1891 45.8932 71.2529 46.1439 71.2529 46.4219V49.9629C71.2529 50.209 71.1891 50.4346 71.0615 50.6396C70.9339 50.8447 70.7562 51.0293 70.5283 51.1934C70.305 51.3529 70.0407 51.4919 69.7354 51.6104C69.43 51.7288 69.1019 51.8268 68.751 51.9043C68.4001 51.9818 68.0332 52.0387 67.6504 52.0752C67.2676 52.1162 66.887 52.1367 66.5088 52.1367C66.1305 52.1367 65.75 52.1162 65.3672 52.0752C64.9889 52.0387 64.6243 51.9818 64.2734 51.9043C63.9225 51.8268 63.5944 51.7288 63.2891 51.6104C62.9883 51.4919 62.724 51.3529 62.4961 51.1934C62.2728 51.0293 62.0973 50.847 61.9697 50.6465C61.8421 50.4414 61.7783 50.2135 61.7783 49.9629V46.4219C61.7783 46.1439 61.8421 45.8932 61.9697 45.6699C62.0973 45.4421 62.2728 45.2415 62.4961 45.0684C62.724 44.8952 62.9883 44.7471 63.2891 44.624C63.5944 44.501 63.9225 44.3984 64.2734 44.3164C64.6243 44.2344 64.9889 44.1751 65.3672 44.1387C65.75 44.1022 66.1305 44.084 66.5088 44.084ZM63.5146 49.5254C63.5146 49.735 63.6012 49.9173 63.7744 50.0723C63.9521 50.2227 64.1823 50.3503 64.4648 50.4551C64.7474 50.5553 65.0664 50.6305 65.4219 50.6807C65.7819 50.7308 66.1442 50.7559 66.5088 50.7559C66.8916 50.7559 67.2607 50.7285 67.6162 50.6738C67.9762 50.6191 68.2952 50.5417 68.5732 50.4414C68.8512 50.3366 69.0723 50.209 69.2363 50.0586C69.4049 49.9036 69.4893 49.7259 69.4893 49.5254V46.6816C69.4893 46.4857 69.4049 46.3102 69.2363 46.1553C69.0723 45.9958 68.8512 45.8636 68.5732 45.7588C68.2952 45.6494 67.9762 45.5674 67.6162 45.5127C67.2607 45.4535 66.8916 45.4238 66.5088 45.4238C66.1442 45.4238 65.7819 45.4512 65.4219 45.5059C65.0664 45.556 64.7474 45.6335 64.4648 45.7383C64.1823 45.8431 63.9521 45.9753 63.7744 46.1348C63.6012 46.2897 63.5146 46.472 63.5146 46.6816V49.5254ZM77.1865 44.207C77.5876 44.207 78.0068 44.2526 78.4443 44.3438C78.8864 44.4349 79.3148 44.5534 79.7295 44.6992V41.5957H81.5205V51.4668C81.279 51.5397 80.9896 51.6081 80.6523 51.6719C80.3197 51.7357 79.9619 51.7926 79.5791 51.8428C79.1963 51.8883 78.7975 51.9271 78.3828 51.959C77.9727 51.9863 77.5739 52 77.1865 52C76.4847 52 75.8581 51.9521 75.3066 51.8564C74.7552 51.7562 74.2881 51.6035 73.9053 51.3984C73.5225 51.1934 73.2308 50.9336 73.0303 50.6191C72.8298 50.3047 72.7295 49.931 72.7295 49.498V46.709C72.7295 46.276 72.8298 45.9023 73.0303 45.5879C73.2308 45.2734 73.5225 45.0137 73.9053 44.8086C74.2881 44.6035 74.7552 44.4531 75.3066 44.3574C75.8581 44.2572 76.4847 44.207 77.1865 44.207ZM77.6787 50.7285C77.861 50.7285 78.0456 50.7194 78.2324 50.7012C78.4238 50.6829 78.6084 50.6579 78.7861 50.626C78.9684 50.5941 79.1393 50.5576 79.2988 50.5166C79.4629 50.4756 79.6064 50.4323 79.7295 50.3867V46.0938C79.415 45.9434 79.0915 45.8203 78.7588 45.7246C78.4307 45.6243 78.0706 45.5742 77.6787 45.5742C77.3962 45.5742 77.1204 45.5811 76.8516 45.5947C76.5872 45.6038 76.3389 45.6289 76.1064 45.6699C75.874 45.7064 75.6598 45.7611 75.4639 45.834C75.2679 45.9023 75.0993 45.9958 74.958 46.1143C74.8213 46.2327 74.7142 46.3786 74.6367 46.5518C74.5592 46.7249 74.5205 46.9323 74.5205 47.1738V49.1836C74.5205 49.5527 74.6048 49.8421 74.7734 50.0518C74.9466 50.2568 75.1768 50.4095 75.4639 50.5098C75.751 50.61 76.0859 50.6715 76.4688 50.6943C76.8516 50.7171 77.2549 50.7285 77.6787 50.7285Z" fill="white"/>
</svg>
