<svg width="100" height="75" viewBox="0 0 100 75" fill="none" xmlns="http://www.w3.org/2000/svg">
<rect width="100" height="75" fill="#DF609D"/>
<path d="M12.8933 45V30.5H21.5733V32.52H15.0733V36.9H20.7533V38.94H15.0733V45H12.8933ZM24.8731 45H23.1731V29.46H24.8731V45ZM29.5938 49.02H27.8738C28.0604 48.6333 28.2338 48.26 28.3938 47.9C28.5671 47.5533 28.7338 47.1933 28.8938 46.82C29.0671 46.46 29.2404 46.08 29.4138 45.68C29.5871 45.2933 29.7804 44.8733 29.9938 44.42C29.6871 43.82 29.3738 43.1933 29.0538 42.54C28.7338 41.8733 28.4138 41.2067 28.0938 40.54C27.7738 39.8733 27.4538 39.2067 27.1338 38.54C26.8271 37.8733 26.5204 37.24 26.2138 36.64H28.0738C28.5538 37.5867 28.9471 38.3867 29.2538 39.04C29.5738 39.6933 29.8338 40.26 30.0338 40.74C30.2471 41.2067 30.4138 41.6067 30.5338 41.94C30.6671 42.2733 30.7804 42.58 30.8738 42.86C30.9804 42.58 31.0938 42.2733 31.2138 41.94C31.3471 41.6067 31.5138 41.2067 31.7138 40.74C31.9271 40.26 32.1871 39.6933 32.4938 39.04C32.8138 38.3867 33.2138 37.5867 33.6938 36.64H35.5538L29.5938 49.02ZM41.4241 37.98L40.8041 36.64H42.2841C42.6707 37.48 42.9974 38.2067 43.2641 38.82C43.5307 39.42 43.7574 39.9467 43.9441 40.4C44.1307 40.84 44.2841 41.2133 44.4041 41.52C44.5241 41.8267 44.6241 42.0867 44.7041 42.3C44.7841 41.9 44.8774 41.54 44.9841 41.22C45.1041 40.8867 45.2507 40.52 45.4241 40.12C45.5974 39.7067 45.8041 39.2333 46.0441 38.7C46.2974 38.1533 46.5974 37.4667 46.9441 36.64H48.6641L44.7041 45.5C44.4641 45.0067 44.2374 44.52 44.0241 44.04C43.8241 43.5467 43.6241 43.06 43.4241 42.58C43.2374 42.1 43.0374 41.62 42.8241 41.14C42.6241 40.66 42.4041 40.1667 42.1641 39.66L39.6241 45.5L35.8441 36.64H37.5641C37.9107 37.4667 38.1974 38.1533 38.4241 38.7C38.6507 39.2467 38.8374 39.72 38.9841 40.12C39.1441 40.52 39.2707 40.8867 39.3641 41.22C39.4574 41.54 39.5441 41.9 39.6241 42.3C39.6774 42.14 39.7374 41.96 39.8041 41.76C39.8841 41.56 39.9841 41.3067 40.1041 41C40.2374 40.68 40.4107 40.28 40.6241 39.8C40.8374 39.32 41.1041 38.7133 41.4241 37.98ZM56.7761 44.02C56.3761 44.38 55.8894 44.6667 55.3161 44.88C54.7428 45.0933 54.1561 45.2 53.5561 45.2C52.9428 45.2 52.3628 45.0867 51.8161 44.86C51.2828 44.62 50.8161 44.3067 50.4161 43.92C50.0161 43.52 49.6961 43.0533 49.4561 42.52C49.2294 41.9867 49.1161 41.42 49.1161 40.82C49.1161 40.22 49.2294 39.6533 49.4561 39.12C49.6961 38.5867 50.0161 38.12 50.4161 37.72C50.8161 37.32 51.2761 37.0067 51.7961 36.78C52.3294 36.54 52.8961 36.42 53.4961 36.42C54.4428 36.42 55.2628 36.7067 55.9561 37.28C56.6628 37.84 57.1694 38.58 57.4761 39.5C57.0628 39.6467 56.5894 39.8267 56.0561 40.04C55.5228 40.2533 54.9694 40.48 54.3961 40.72C53.8228 40.9467 53.2494 41.1733 52.6761 41.4C52.1028 41.6267 51.5694 41.8333 51.0761 42.02C51.3028 42.4733 51.6294 42.84 52.0561 43.12C52.4961 43.3867 52.9828 43.52 53.5161 43.52C53.8761 43.52 54.2361 43.4533 54.5961 43.32C54.9694 43.1867 55.2694 43.0067 55.4961 42.78L56.7761 44.02ZM55.3361 39.1C55.1761 38.7667 54.9228 38.52 54.5761 38.36C54.2294 38.1867 53.8761 38.1 53.5161 38.1C53.1294 38.1 52.7694 38.1733 52.4361 38.32C52.1161 38.4667 51.8361 38.6667 51.5961 38.92C51.3561 39.16 51.1628 39.44 51.0161 39.76C50.8828 40.08 50.8161 40.4067 50.8161 40.74C50.8161 40.8067 50.8161 40.8533 50.8161 40.88C50.8294 40.9067 50.8361 40.9267 50.8361 40.94C51.1828 40.8067 51.5561 40.66 51.9561 40.5C52.3694 40.3267 52.7761 40.16 53.1761 40C53.5761 39.8267 53.9628 39.6667 54.3361 39.52C54.7094 39.36 55.0428 39.22 55.3361 39.1ZM58.7339 33.44C58.7339 33.12 58.8472 32.8533 59.0739 32.64C59.3139 32.4267 59.5672 32.32 59.8339 32.32C60.1006 32.32 60.3472 32.4267 60.5739 32.64C60.8006 32.8533 60.9139 33.12 60.9139 33.44C60.9139 33.76 60.8006 34.0267 60.5739 34.24C60.3472 34.44 60.1006 34.54 59.8339 34.54C59.5672 34.54 59.3139 34.44 59.0739 34.24C58.8472 34.0267 58.7339 33.76 58.7339 33.44ZM60.6539 45H58.9539V36.64H60.6539V45ZM62.4955 40.84C62.4955 40.2133 62.6088 39.6333 62.8355 39.1C63.0621 38.5533 63.3688 38.0867 63.7555 37.7C64.1421 37.3 64.5955 36.9867 65.1155 36.76C65.6355 36.5333 66.1888 36.42 66.7755 36.42C67.2288 36.42 67.6288 36.48 67.9755 36.6C68.3355 36.72 68.6355 36.86 68.8755 37.02C69.1155 37.18 69.3021 37.34 69.4355 37.5C69.5821 37.6467 69.6755 37.7533 69.7155 37.82C69.7155 37.6333 69.7288 37.44 69.7555 37.24C69.7821 37.0267 69.7955 36.8267 69.7955 36.64H71.4355V44.62C71.4355 46.0067 71.0288 47.0867 70.2155 47.86C69.4021 48.6333 68.3021 49.02 66.9155 49.02C66.4355 49.02 66.0021 48.9667 65.6155 48.86C65.2421 48.7667 64.8955 48.64 64.5755 48.48C64.2688 48.32 63.9821 48.1333 63.7155 47.92C63.4621 47.7067 63.2088 47.4867 62.9555 47.26L64.0555 46.1C64.4688 46.4867 64.8888 46.7933 65.3155 47.02C65.7555 47.2467 66.2755 47.36 66.8755 47.36C67.7688 47.36 68.4621 47.1467 68.9555 46.72C69.4488 46.2933 69.7021 45.7 69.7155 44.94V44.36C69.7155 44.2533 69.7288 44.14 69.7555 44.02C69.7821 43.8867 69.7955 43.7867 69.7955 43.72C69.6755 43.88 69.5221 44.0533 69.3355 44.24C69.1621 44.4133 68.9555 44.5733 68.7155 44.72C68.4755 44.8533 68.1955 44.9667 67.8755 45.06C67.5555 45.1533 67.1955 45.2 66.7955 45.2C66.1688 45.2 65.5955 45.0867 65.0755 44.86C64.5555 44.6333 64.1021 44.3267 63.7155 43.94C63.3288 43.54 63.0288 43.08 62.8155 42.56C62.6021 42.0267 62.4955 41.4533 62.4955 40.84ZM64.2155 40.8C64.2155 41.1867 64.2821 41.5467 64.4155 41.88C64.5621 42.2133 64.7555 42.5 64.9955 42.74C65.2355 42.98 65.5221 43.1733 65.8555 43.32C66.1888 43.4533 66.5555 43.52 66.9555 43.52C67.3555 43.52 67.7221 43.4533 68.0555 43.32C68.4021 43.1733 68.6955 42.98 68.9355 42.74C69.1888 42.4867 69.3821 42.2 69.5155 41.88C69.6488 41.5467 69.7155 41.1867 69.7155 40.8C69.7155 40.4133 69.6488 40.06 69.5155 39.74C69.3821 39.4067 69.1888 39.12 68.9355 38.88C68.6955 38.64 68.4021 38.4533 68.0555 38.32C67.7221 38.1733 67.3555 38.1 66.9555 38.1C66.5555 38.1 66.1888 38.1733 65.8555 38.32C65.5221 38.4533 65.2355 38.64 64.9955 38.88C64.7555 39.12 64.5621 39.4067 64.4155 39.74C64.2821 40.06 64.2155 40.4133 64.2155 40.8ZM73.8367 29.46H75.5367V38.66C75.8301 37.9933 76.2434 37.46 76.7767 37.06C77.3101 36.6467 77.9967 36.4333 78.8367 36.42C79.6901 36.4067 80.3701 36.6333 80.8767 37.1C81.3967 37.5667 81.6701 38.1733 81.6967 38.92V45H79.9767V39.7C79.9501 39.2733 79.8034 38.9133 79.5367 38.62C79.2701 38.3133 78.8501 38.1467 78.2767 38.12C77.8767 38.12 77.5101 38.1933 77.1767 38.34C76.8434 38.4733 76.5567 38.66 76.3167 38.9C76.0767 39.14 75.8834 39.4267 75.7367 39.76C75.6034 40.0933 75.5367 40.46 75.5367 40.86V45H73.8367V29.46ZM84.7325 32.96H86.4325V36.66H88.6725V38.18H86.4325V45H84.7325V38.18H83.2325V36.66H84.7325V32.96Z" fill="white"/>
</svg>
