<svg width="189" height="189" viewBox="0 0 189 189" fill="none" xmlns="http://www.w3.org/2000/svg">
<circle cx="94.5" cy="94.5" r="94.5" fill="white"/>
<path fill-rule="evenodd" clip-rule="evenodd" d="M94.5 0C42.2887 0 0 42.2887 0 94.5C0 136.316 27.0506 171.636 64.6144 184.157C69.3394 184.984 71.1112 182.149 71.1112 179.668C71.1112 177.424 70.9931 169.982 70.9931 162.068C47.25 166.438 41.1075 156.279 39.2175 150.964C38.1544 148.247 33.5475 139.86 29.5312 137.616C26.2237 135.844 21.4987 131.473 29.4131 131.355C36.855 131.237 42.1706 138.206 43.9425 141.041C52.4475 155.334 66.0319 151.318 71.4656 148.838C72.2925 142.695 74.7731 138.561 77.49 136.198C56.4637 133.836 34.4925 125.685 34.4925 89.5387C34.4925 79.2619 38.1544 70.7569 44.1788 64.1419C43.2338 61.7794 39.9262 52.0931 45.1237 39.0994C45.1237 39.0994 53.0381 36.6188 71.1112 48.7856C78.6712 46.6594 86.7038 45.5962 94.7363 45.5962C102.769 45.5962 110.801 46.6594 118.361 48.7856C136.434 36.5006 144.349 39.0994 144.349 39.0994C149.546 52.0931 146.239 61.7794 145.294 64.1419C151.318 70.7569 154.98 79.1437 154.98 89.5387C154.98 125.803 132.891 133.836 111.864 136.198C115.29 139.151 118.243 144.821 118.243 153.681C118.243 166.32 118.125 176.479 118.125 179.668C118.125 182.149 119.897 185.102 124.622 184.157C161.949 171.636 189 136.198 189 94.5C189 42.2887 146.711 0 94.5 0Z" fill="#1B1F23"/>
</svg>
