<svg width="100" height="75" viewBox="0 0 100 75" fill="none" xmlns="http://www.w3.org/2000/svg">
<rect width="100" height="75" fill="#0B2347"/>
<path d="M17.8963 32.904V42.808C17.8963 42.936 17.8376 43 17.7203 43H17.2563C17.1496 43 17.0963 42.936 17.0963 42.808V32.904C17.0963 32.776 17.1496 32.712 17.2563 32.712H17.7203C17.8376 32.712 17.8963 32.776 17.8963 32.904ZM21.1678 43H20.7038C20.5971 43 20.5438 42.936 20.5438 42.808V35.032C20.5438 34.904 20.5971 34.84 20.7038 34.84H21.1678C21.2851 34.84 21.3438 34.904 21.3438 35.032V35.672H21.4078C21.7064 35.1173 22.2611 34.84 23.0718 34.84H24.1278C24.8104 34.84 25.3491 35.0427 25.7438 35.448C26.1384 35.8533 26.3358 36.408 26.3358 37.112V42.808C26.3358 42.936 26.2824 43 26.1758 43H25.7118C25.5944 43 25.5358 42.936 25.5358 42.808V37.144C25.5358 36.6427 25.4078 36.2533 25.1518 35.976C24.8958 35.6987 24.5224 35.56 24.0318 35.56H22.9918C22.4798 35.56 22.0744 35.6987 21.7758 35.976C21.4878 36.2427 21.3438 36.6267 21.3438 37.128V42.808C21.3438 42.936 21.2851 43 21.1678 43ZM29.0051 35.56H28.0291C27.9118 35.56 27.8531 35.5067 27.8531 35.4V35.016C27.8531 34.8987 27.9118 34.84 28.0291 34.84H29.0051C29.1011 34.84 29.1491 34.792 29.1491 34.696V33.4C29.1491 33.272 29.2078 33.208 29.3251 33.208H29.7891C29.9065 33.208 29.9651 33.272 29.9651 33.4V34.696C29.9651 34.792 30.0131 34.84 30.1091 34.84H32.0131C32.1305 34.84 32.1891 34.8987 32.1891 35.016V35.4C32.1891 35.5067 32.1305 35.56 32.0131 35.56H30.1091C30.0131 35.56 29.9651 35.608 29.9651 35.704V40.744C29.9651 41.2347 30.1038 41.6133 30.3811 41.88C30.6585 42.1467 31.0478 42.28 31.5491 42.28H32.1731C32.2905 42.28 32.3491 42.3387 32.3491 42.456V42.824C32.3491 42.9413 32.2905 43 32.1731 43H31.4851C30.7811 43 30.2158 42.8027 29.7891 42.408C29.3625 42.0133 29.1491 41.4693 29.1491 40.776V35.704C29.1491 35.608 29.1011 35.56 29.0051 35.56ZM39.624 43H36.28C35.5867 43 35.0373 42.7973 34.632 42.392C34.2373 41.9867 34.04 41.432 34.04 40.728V37.112C34.04 36.408 34.2373 35.8533 34.632 35.448C35.0373 35.0427 35.5867 34.84 36.28 34.84H37.656C38.3493 34.84 38.8987 35.0427 39.304 35.448C39.7093 35.8533 39.912 36.408 39.912 37.112V39.144C39.912 39.272 39.848 39.336 39.72 39.336H34.984C34.888 39.336 34.84 39.384 34.84 39.48V40.712C34.84 41.2133 34.968 41.6027 35.224 41.88C35.48 42.1467 35.8533 42.28 36.344 42.28H39.624C39.7413 42.28 39.8 42.3387 39.8 42.456V42.824C39.8 42.9413 39.7413 43 39.624 43ZM34.984 38.696H38.968C39.064 38.696 39.112 38.648 39.112 38.552V37.128C39.112 36.6267 38.984 36.2427 38.728 35.976C38.472 35.6987 38.0987 35.56 37.608 35.56H36.344C35.8533 35.56 35.48 35.6987 35.224 35.976C34.968 36.2427 34.84 36.6267 34.84 37.128V38.552C34.84 38.648 34.888 38.696 34.984 38.696ZM42.699 43H42.235C42.1283 43 42.075 42.936 42.075 42.808V35.032C42.075 34.904 42.1283 34.84 42.235 34.84H42.699C42.8163 34.84 42.875 34.904 42.875 35.032V35.704H42.939C43.0563 35.48 43.2643 35.2827 43.563 35.112C43.8617 34.9307 44.2297 34.84 44.667 34.84H45.291C45.4083 34.84 45.467 34.8987 45.467 35.016V35.4C45.467 35.5173 45.4083 35.5707 45.291 35.56H44.539C44.0163 35.56 43.6057 35.72 43.307 36.04C43.019 36.36 42.875 36.792 42.875 37.336V42.808C42.875 42.936 42.8163 43 42.699 43ZM47.7146 45.384H47.2506C47.144 45.384 47.0906 45.3253 47.0906 45.208V35.032C47.0906 34.904 47.144 34.84 47.2506 34.84H47.7146C47.832 34.84 47.8906 34.904 47.8906 35.032V35.672H47.9546C48.2533 35.1173 48.808 34.84 49.6186 34.84H50.7066C51.3893 34.84 51.928 35.0427 52.3226 35.448C52.7173 35.8533 52.9146 36.408 52.9146 37.112V40.728C52.9146 41.432 52.7173 41.9867 52.3226 42.392C51.928 42.7973 51.3893 43 50.7066 43H49.6186C48.808 43 48.2533 42.7227 47.9546 42.168H47.8906V45.208C47.8906 45.3253 47.832 45.384 47.7146 45.384ZM49.5386 42.28H50.5946C51.0853 42.28 51.4586 42.1467 51.7146 41.88C51.9813 41.6027 52.1146 41.208 52.1146 40.696V37.144C52.1146 36.632 51.9813 36.2427 51.7146 35.976C51.4586 35.6987 51.0853 35.56 50.5946 35.56H49.5386C49.0266 35.56 48.6213 35.6987 48.3226 35.976C48.0346 36.2427 47.8906 36.6267 47.8906 37.128V40.712C47.8906 41.2133 48.0346 41.6027 48.3226 41.88C48.6213 42.1467 49.0266 42.28 49.5386 42.28ZM55.7771 43H55.3131C55.2065 43 55.1531 42.936 55.1531 42.808V35.032C55.1531 34.904 55.2065 34.84 55.3131 34.84H55.7771C55.8945 34.84 55.9531 34.904 55.9531 35.032V35.704H56.0171C56.1345 35.48 56.3425 35.2827 56.6411 35.112C56.9398 34.9307 57.3078 34.84 57.7451 34.84H58.3691C58.4865 34.84 58.5451 34.8987 58.5451 35.016V35.4C58.5451 35.5173 58.4865 35.5707 58.3691 35.56H57.6171C57.0945 35.56 56.6838 35.72 56.3851 36.04C56.0971 36.36 55.9531 36.792 55.9531 37.336V42.808C55.9531 42.936 55.8945 43 55.7771 43ZM65.5928 43H62.2488C61.5554 43 61.0061 42.7973 60.6008 42.392C60.2061 41.9867 60.0088 41.432 60.0088 40.728V37.112C60.0088 36.408 60.2061 35.8533 60.6008 35.448C61.0061 35.0427 61.5554 34.84 62.2488 34.84H63.6248C64.3181 34.84 64.8674 35.0427 65.2728 35.448C65.6781 35.8533 65.8808 36.408 65.8808 37.112V39.144C65.8808 39.272 65.8168 39.336 65.6888 39.336H60.9528C60.8568 39.336 60.8088 39.384 60.8088 39.48V40.712C60.8088 41.2133 60.9368 41.6027 61.1928 41.88C61.4488 42.1467 61.8221 42.28 62.3128 42.28H65.5928C65.7101 42.28 65.7688 42.3387 65.7688 42.456V42.824C65.7688 42.9413 65.7101 43 65.5928 43ZM60.9528 38.696H64.9368C65.0328 38.696 65.0808 38.648 65.0808 38.552V37.128C65.0808 36.6267 64.9528 36.2427 64.6968 35.976C64.4408 35.6987 64.0674 35.56 63.5768 35.56H62.3128C61.8221 35.56 61.4488 35.6987 61.1928 35.976C60.9368 36.2427 60.8088 36.6267 60.8088 37.128V38.552C60.8088 38.648 60.8568 38.696 60.9528 38.696ZM68.3958 35.56H67.4198C67.3024 35.56 67.2438 35.5067 67.2438 35.4V35.016C67.2438 34.8987 67.3024 34.84 67.4198 34.84H68.3958C68.4918 34.84 68.5398 34.792 68.5398 34.696V33.4C68.5398 33.272 68.5984 33.208 68.7158 33.208H69.1798C69.2971 33.208 69.3558 33.272 69.3558 33.4V34.696C69.3558 34.792 69.4038 34.84 69.4998 34.84H71.4038C71.5211 34.84 71.5798 34.8987 71.5798 35.016V35.4C71.5798 35.5067 71.5211 35.56 71.4038 35.56H69.4998C69.4038 35.56 69.3558 35.608 69.3558 35.704V40.744C69.3558 41.2347 69.4944 41.6133 69.7718 41.88C70.0491 42.1467 70.4384 42.28 70.9398 42.28H71.5638C71.6811 42.28 71.7398 42.3387 71.7398 42.456V42.824C71.7398 42.9413 71.6811 43 71.5638 43H70.8758C70.1718 43 69.6064 42.8027 69.1798 42.408C68.7531 42.0133 68.5398 41.4693 68.5398 40.776V35.704C68.5398 35.608 68.4918 35.56 68.3958 35.56ZM77.0466 43H75.6706C74.9773 43 74.428 42.7973 74.0226 42.392C73.628 41.9867 73.4306 41.432 73.4306 40.728V37.112C73.4306 36.408 73.628 35.8533 74.0226 35.448C74.428 35.0427 74.9773 34.84 75.6706 34.84H77.0466C77.74 34.84 78.2893 35.0427 78.6946 35.448C79.1 35.8533 79.3026 36.408 79.3026 37.112V40.728C79.3026 41.432 79.1 41.9867 78.6946 42.392C78.2893 42.7973 77.74 43 77.0466 43ZM75.7346 42.28H76.9826C77.4733 42.28 77.8466 42.1467 78.1026 41.88C78.3693 41.6027 78.5026 41.2133 78.5026 40.712V37.128C78.5026 36.6267 78.3693 36.2427 78.1026 35.976C77.8466 35.6987 77.4733 35.56 76.9826 35.56H75.7346C75.244 35.56 74.8706 35.6987 74.6146 35.976C74.3586 36.2427 74.2306 36.6267 74.2306 37.128V40.712C74.2306 41.2133 74.3586 41.6027 74.6146 41.88C74.8706 42.1467 75.244 42.28 75.7346 42.28ZM82.1521 43H81.6881C81.5815 43 81.5281 42.936 81.5281 42.808V35.032C81.5281 34.904 81.5815 34.84 81.6881 34.84H82.1521C82.2695 34.84 82.3281 34.904 82.3281 35.032V35.704H82.3921C82.5095 35.48 82.7175 35.2827 83.0161 35.112C83.3148 34.9307 83.6828 34.84 84.1201 34.84H84.7441C84.8615 34.84 84.9201 34.8987 84.9201 35.016V35.4C84.9201 35.5173 84.8615 35.5707 84.7441 35.56H83.9921C83.4695 35.56 83.0588 35.72 82.7601 36.04C82.4721 36.36 82.3281 36.792 82.3281 37.336V42.808C82.3281 42.936 82.2695 43 82.1521 43Z" fill="white"/>
</svg>
