<svg width="100" height="75" viewBox="0 0 100 75" fill="none" xmlns="http://www.w3.org/2000/svg">
<rect width="100" height="75" fill="#134C50"/>
<path d="M27.7188 40.9688C27.7188 41.3646 27.7526 41.6562 27.8203 41.8438C27.8932 42.0312 27.9896 42.1562 28.1094 42.2188C28.2344 42.2812 28.4297 42.3359 28.6953 42.3828C29.0026 42.4349 29.276 42.5026 29.5156 42.5859L29.5 43H24.3047V42.5938C24.4557 42.526 24.5911 42.4792 24.7109 42.4531C24.8359 42.4219 24.9922 42.3906 25.1797 42.3594C25.4141 42.3281 25.5859 42.2839 25.6953 42.2266C25.8047 42.1641 25.888 42.0286 25.9453 41.8203C26.0078 41.612 26.0391 41.2812 26.0391 40.8281V34.9531C26.0391 34.526 26.0026 34.2109 25.9297 34.0078C25.8568 33.8047 25.7604 33.6745 25.6406 33.6172C25.526 33.5599 25.3542 33.5156 25.125 33.4844C24.9375 33.4531 24.7812 33.4219 24.6562 33.3906C24.5365 33.3594 24.4089 33.3047 24.2734 33.2266L24.2891 32.8281H29.4688L29.4844 33.2344C29.375 33.276 29.2188 33.3203 29.0156 33.3672C28.7292 33.4401 28.5 33.513 28.3281 33.5859C28.1562 33.6589 28.0104 33.7734 27.8906 33.9297C27.776 34.0807 27.7188 34.2891 27.7188 34.5547V40.9688ZM32.9219 40.5469C32.9219 41.0781 32.9401 41.4583 32.9766 41.6875C33.013 41.9115 33.1016 42.0755 33.2422 42.1797C33.3828 42.2786 33.6198 42.3281 33.9531 42.3281C34.151 42.3281 34.349 42.3099 34.5469 42.2734C34.7448 42.237 34.9115 42.1979 35.0469 42.1562L35.1094 42.7266C34.8438 42.8568 34.5755 42.9609 34.3047 43.0391C34.0339 43.1172 33.7083 43.1562 33.3281 43.1562C32.8229 43.1562 32.4375 43.0729 32.1719 42.9062C31.9062 42.7396 31.7214 42.4714 31.6172 42.1016C31.513 41.7266 31.4609 41.2005 31.4609 40.5234V36.5625H30.2969V36.2891C30.651 36.1484 30.9479 35.9844 31.1875 35.7969C31.4323 35.6042 31.6328 35.4062 31.7891 35.2031C31.9453 35 32.1328 34.7318 32.3516 34.3984C32.4453 34.2474 32.5182 34.1484 32.5703 34.1016C32.6224 34.0495 32.6745 34.0234 32.7266 34.0234C32.7786 34.0234 32.8203 34.0495 32.8516 34.1016C32.888 34.1484 32.9062 34.224 32.9062 34.3281V35.9766H34.8672V36.5625H32.9219V40.5469ZM37.4219 38.8906C37.4167 38.9427 37.4141 39.0182 37.4141 39.1172C37.4141 39.7734 37.5312 40.3229 37.7656 40.7656C38.0052 41.2031 38.3229 41.5286 38.7188 41.7422C39.1198 41.9505 39.5677 42.0547 40.0625 42.0547C40.7188 42.0547 41.3516 41.8672 41.9609 41.4922L42.1875 41.7109C42.0625 42.013 41.8516 42.2734 41.5547 42.4922C41.263 42.7109 40.9297 42.8776 40.5547 42.9922C40.1849 43.1016 39.8255 43.1562 39.4766 43.1562C38.8203 43.1562 38.2292 43.0026 37.7031 42.6953C37.1823 42.388 36.7734 41.9583 36.4766 41.4062C36.1849 40.8542 36.0391 40.2214 36.0391 39.5078C36.0391 38.7839 36.1979 38.138 36.5156 37.5703C36.8333 36.9974 37.2552 36.5547 37.7812 36.2422C38.3125 35.9245 38.8802 35.7656 39.4844 35.7656C39.9792 35.7656 40.4245 35.8672 40.8203 36.0703C41.2214 36.2682 41.5469 36.5495 41.7969 36.9141C42.0469 37.2734 42.2057 37.6875 42.2734 38.1562C42.3307 38.3958 42.3594 38.6172 42.3594 38.8203V38.8906H37.4219ZM40.2344 38.3906C40.4635 38.3802 40.6562 38.3385 40.8125 38.2656C40.776 37.6458 40.6302 37.1615 40.375 36.8125C40.125 36.4635 39.7682 36.2891 39.3047 36.2891C38.9661 36.2891 38.6641 36.3906 38.3984 36.5938C38.138 36.7969 37.9271 37.0677 37.7656 37.4062C37.6042 37.7396 37.5 38.1068 37.4531 38.5078L40.2344 38.3906ZM45.9297 41.1953C45.9297 41.4401 45.9557 41.6589 46.0078 41.8516C46.0651 42.0391 46.1979 42.2057 46.4062 42.3516C46.6146 42.4974 46.9271 42.5833 47.3438 42.6094L47.3359 43H43.2656C43.2656 42.9583 43.263 42.8906 43.2578 42.7969C43.2578 42.7031 43.2604 42.6302 43.2656 42.5781L43.5234 42.5078C43.7995 42.4349 43.9974 42.3672 44.1172 42.3047C44.237 42.2422 44.3255 42.1328 44.3828 41.9766C44.4453 41.8151 44.4766 41.5703 44.4766 41.2422V37.3125C44.4089 37.1979 44.2839 37.0938 44.1016 37C43.9193 36.901 43.7292 36.8203 43.5312 36.7578C43.3385 36.6953 43.2422 36.6667 43.2422 36.6719L43.2578 36.3984L45.3359 35.8438H45.7812L45.9062 37.2812C46.1979 36.7448 46.5 36.3646 46.8125 36.1406C47.1302 35.9167 47.4922 35.8047 47.8984 35.8047C48.1068 35.8047 48.2943 35.849 48.4609 35.9375C48.6328 36.0208 48.7656 36.1302 48.8594 36.2656C48.9583 36.3958 49.0078 36.5286 49.0078 36.6641C49.0078 36.7526 48.9818 36.8724 48.9297 37.0234C48.8828 37.1745 48.8073 37.3073 48.7031 37.4219C48.6042 37.5365 48.4818 37.5938 48.3359 37.5938C48.1693 37.5938 48.0391 37.5573 47.9453 37.4844C47.8516 37.4062 47.7552 37.2917 47.6562 37.1406C47.5833 37.026 47.513 36.9401 47.4453 36.8828C47.3828 36.8255 47.3021 36.7969 47.2031 36.7969C47.0365 36.7969 46.8854 36.8464 46.75 36.9453C46.6198 37.0391 46.5052 37.1562 46.4062 37.2969C46.3073 37.4375 46.1875 37.625 46.0469 37.8594L45.9297 38.0547V41.1953ZM53.9766 38.2422C53.9766 37.8516 53.9401 37.5208 53.8672 37.25C53.7995 36.9792 53.6589 36.7604 53.4453 36.5938C53.237 36.4271 52.9375 36.3438 52.5469 36.3438C52.4115 36.3438 52.2448 36.3724 52.0469 36.4297C51.849 36.487 51.6745 36.5703 51.5234 36.6797C51.3776 36.7839 51.3047 36.9062 51.3047 37.0469C51.3047 37.1042 51.3151 37.1615 51.3359 37.2188C51.3568 37.2708 51.3906 37.3385 51.4375 37.4219C51.4844 37.5 51.5182 37.5677 51.5391 37.625C51.5599 37.6823 51.5703 37.7422 51.5703 37.8047C51.5703 38.013 51.5026 38.1875 51.3672 38.3281C51.237 38.4635 51.0677 38.5312 50.8594 38.5312C50.599 38.5312 50.3906 38.4349 50.2344 38.2422C50.0833 38.0495 50.0078 37.8177 50.0078 37.5469C50.0078 37.1406 50.1667 36.8047 50.4844 36.5391C50.8021 36.2734 51.1849 36.0781 51.6328 35.9531C52.0859 35.8281 52.5078 35.7656 52.8984 35.7656C53.6328 35.7656 54.1797 35.875 54.5391 36.0938C54.9036 36.3073 55.1432 36.6224 55.2578 37.0391C55.3776 37.4505 55.4375 38.0286 55.4375 38.7734L55.4219 39.1641C55.4167 39.2786 55.4089 39.4688 55.3984 39.7344C55.3932 40 55.3906 40.2448 55.3906 40.4688C55.3906 41.6406 55.513 42.2266 55.7578 42.2266C55.9349 42.2266 56.1641 42.0469 56.4453 41.6875L56.7734 42.0391C56.5443 42.4141 56.3177 42.6953 56.0938 42.8828C55.8698 43.0651 55.5755 43.1562 55.2109 43.1562C54.8672 43.1562 54.5833 43.0495 54.3594 42.8359C54.1406 42.6172 54.0208 42.3359 54 41.9922C53.6667 42.3568 53.2917 42.6432 52.875 42.8516C52.4635 43.0547 52.026 43.1562 51.5625 43.1562C51.2396 43.1562 50.9401 43.099 50.6641 42.9844C50.3932 42.8646 50.1745 42.6875 50.0078 42.4531C49.8464 42.2188 49.7656 41.9375 49.7656 41.6094C49.7656 41.1146 49.9557 40.7031 50.3359 40.375C50.7161 40.0469 51.1536 39.7969 51.6484 39.625C52.1432 39.4531 52.7474 39.2812 53.4609 39.1094C53.5234 39.099 53.6953 39.0573 53.9766 38.9844V38.2422ZM53.9766 39.4453C53.8984 39.4714 53.7995 39.5026 53.6797 39.5391C53.2318 39.6849 52.849 39.8255 52.5312 39.9609C52.2135 40.0911 51.9297 40.2682 51.6797 40.4922C51.4297 40.7161 51.3047 40.9792 51.3047 41.2812C51.3047 41.5885 51.388 41.8307 51.5547 42.0078C51.7266 42.1849 51.9661 42.2734 52.2734 42.2734C52.5807 42.2734 52.8776 42.1979 53.1641 42.0469C53.4505 41.8906 53.7214 41.6875 53.9766 41.4375V39.4453ZM59.8438 40.5469C59.8438 41.0781 59.862 41.4583 59.8984 41.6875C59.9349 41.9115 60.0234 42.0755 60.1641 42.1797C60.3047 42.2786 60.5417 42.3281 60.875 42.3281C61.0729 42.3281 61.2708 42.3099 61.4688 42.2734C61.6667 42.237 61.8333 42.1979 61.9688 42.1562L62.0312 42.7266C61.7656 42.8568 61.4974 42.9609 61.2266 43.0391C60.9557 43.1172 60.6302 43.1562 60.25 43.1562C59.7448 43.1562 59.3594 43.0729 59.0938 42.9062C58.8281 42.7396 58.6432 42.4714 58.5391 42.1016C58.4349 41.7266 58.3828 41.2005 58.3828 40.5234V36.5625H57.2188V36.2891C57.5729 36.1484 57.8698 35.9844 58.1094 35.7969C58.3542 35.6042 58.5547 35.4062 58.7109 35.2031C58.8672 35 59.0547 34.7318 59.2734 34.3984C59.3672 34.2474 59.4401 34.1484 59.4922 34.1016C59.5443 34.0495 59.5964 34.0234 59.6484 34.0234C59.7005 34.0234 59.7422 34.0495 59.7734 34.1016C59.8099 34.1484 59.8281 34.224 59.8281 34.3281V35.9766H61.7891V36.5625H59.8438V40.5469ZM66.6094 35.7656C67.3021 35.7656 67.9323 35.9167 68.5 36.2188C69.0729 36.5156 69.526 36.9427 69.8594 37.5C70.1927 38.0521 70.3594 38.6953 70.3594 39.4297C70.3594 40.1641 70.1927 40.8151 69.8594 41.3828C69.526 41.9453 69.0807 42.3828 68.5234 42.6953C67.9661 43.0026 67.3568 43.1562 66.6953 43.1562C66.0391 43.1562 65.4245 42.9974 64.8516 42.6797C64.2786 42.362 63.8203 41.9219 63.4766 41.3594C63.1328 40.7917 62.9609 40.151 62.9609 39.4375C62.9609 38.724 63.1276 38.0885 63.4609 37.5312C63.7943 36.9688 64.2396 36.5339 64.7969 36.2266C65.3594 35.9193 65.9635 35.7656 66.6094 35.7656ZM66.7969 42.5469C67.4583 42.5469 67.9609 42.3099 68.3047 41.8359C68.6484 41.362 68.8203 40.7396 68.8203 39.9688C68.8203 39.3021 68.7266 38.6901 68.5391 38.1328C68.3568 37.5703 68.0938 37.1224 67.75 36.7891C67.4062 36.4557 67.0104 36.2891 66.5625 36.2891C66.1667 36.2891 65.8151 36.3854 65.5078 36.5781C65.2057 36.7708 64.9661 37.0677 64.7891 37.4688C64.612 37.8698 64.5234 38.3724 64.5234 38.9766C64.5234 39.5703 64.6172 40.1432 64.8047 40.6953C64.9922 41.2422 65.2578 41.6875 65.6016 42.0312C65.9453 42.375 66.3438 42.5469 66.7969 42.5469ZM74.0078 41.1953C74.0078 41.4401 74.0339 41.6589 74.0859 41.8516C74.1432 42.0391 74.276 42.2057 74.4844 42.3516C74.6927 42.4974 75.0052 42.5833 75.4219 42.6094L75.4141 43H71.3438C71.3438 42.9583 71.3411 42.8906 71.3359 42.7969C71.3359 42.7031 71.3385 42.6302 71.3438 42.5781L71.6016 42.5078C71.8776 42.4349 72.0755 42.3672 72.1953 42.3047C72.3151 42.2422 72.4036 42.1328 72.4609 41.9766C72.5234 41.8151 72.5547 41.5703 72.5547 41.2422V37.3125C72.487 37.1979 72.362 37.0938 72.1797 37C71.9974 36.901 71.8073 36.8203 71.6094 36.7578C71.4167 36.6953 71.3203 36.6667 71.3203 36.6719L71.3359 36.3984L73.4141 35.8438H73.8594L73.9844 37.2812C74.276 36.7448 74.5781 36.3646 74.8906 36.1406C75.2083 35.9167 75.5703 35.8047 75.9766 35.8047C76.1849 35.8047 76.3724 35.849 76.5391 35.9375C76.7109 36.0208 76.8438 36.1302 76.9375 36.2656C77.0365 36.3958 77.0859 36.5286 77.0859 36.6641C77.0859 36.7526 77.0599 36.8724 77.0078 37.0234C76.9609 37.1745 76.8854 37.3073 76.7812 37.4219C76.6823 37.5365 76.5599 37.5938 76.4141 37.5938C76.2474 37.5938 76.1172 37.5573 76.0234 37.4844C75.9297 37.4062 75.8333 37.2917 75.7344 37.1406C75.6615 37.026 75.5911 36.9401 75.5234 36.8828C75.4609 36.8255 75.3802 36.7969 75.2812 36.7969C75.1146 36.7969 74.9635 36.8464 74.8281 36.9453C74.6979 37.0391 74.5833 37.1562 74.4844 37.2969C74.3854 37.4375 74.2656 37.625 74.125 37.8594L74.0078 38.0547V41.1953Z" fill="white"/>
</svg>
