<svg width="83" height="83" viewBox="0 0 83 83" fill="none" xmlns="http://www.w3.org/2000/svg">
<circle cx="41.5" cy="41.5" r="40" fill="#6366f1" stroke="white" stroke-width="3"/>
<path d="M42.5124 24.4022C40.7838 21.1068 37.9081 18.1431 33.9562 16.5876C30.0044 15.032 26.4786 15.3206 25.6402 17.416C25.2586 18.3273 25.2835 20.4002 27.6953 21.3559C29.488 22.0667 31.0406 21.6955 31.5707 20.4445C31.7399 19.9809 31.7341 19.5285 31.4998 18.8989C37.3306 21.1968 38.8882 26.6999 38.3251 32.1228L37.8376 36.335L37.1416 42.1221C36.7877 46.5707 36.2622 52.6265 39.8555 59.3795C42.918 65.2444 47.3326 67.6068 49.4055 68.42C53.2927 69.9519 56.4599 69.3072 57.3259 67.2032C58.1616 65.1819 56.1858 63.1659 54.6458 62.5661C52.5729 61.7529 50.7269 62.3922 50.1727 63.7095C49.7125 64.836 50.34 65.4591 50.7788 65.8633C49.137 65.2075 48.2803 64.4885 47.6553 63.7912C44.7498 59.9724 43.9604 56.3005 44.8647 47.8689L45.1382 45.8487C45.4042 43.1128 45.6928 40.0475 45.6149 36.8483C45.3716 33.2323 44.4426 28.015 42.5124 24.4022Z" fill="white"/>
</svg>
