<svg width="77" height="77" viewBox="0 0 77 77" fill="none" xmlns="http://www.w3.org/2000/svg">
<path fill-rule="evenodd" clip-rule="evenodd" d="M38.5 77C59.7632 77 77 59.7629 77 38.5C77 17.2371 59.7632 0 38.5 0C17.2368 0 0 17.2371 0 38.5C0 59.7629 17.2368 77 38.5 77ZM30.9561 13.5876C34.9082 15.1431 37.7837 18.1069 39.5122 21.4021C41.4424 25.0149 42.3716 30.2322 42.6147 33.8484C42.6929 37.0474 42.4043 40.1128 42.1382 42.8486L41.8647 44.8689C40.9604 53.3005 41.75 56.9724 44.6553 60.7913C45.2803 61.4885 46.1372 62.2075 47.7788 62.8633C47.3398 62.4592 46.7124 61.8359 47.1729 60.7095C47.7271 59.3921 49.5728 58.7529 51.646 59.5662C53.186 60.166 55.1616 62.1819 54.3257 64.2031C53.46 66.3071 50.2925 66.9519 46.4053 65.4199C44.3325 64.6067 39.918 62.2444 36.8555 56.3794C33.2993 49.6958 33.7773 43.6953 34.1309 39.2598L34.1416 39.1221L34.8374 33.335L35.3252 29.1228C35.8882 23.7 34.3306 18.1968 28.5 15.8989C28.7339 16.5286 28.7397 16.981 28.5708 17.4446C28.0405 18.6956 26.4878 19.0667 24.6953 18.356C22.2837 17.4001 22.2588 15.3274 22.6401 14.416C23.4785 12.3206 27.0044 12.032 30.9561 13.5876Z" fill="#be185d"/>
</svg>
