<svg width="100" height="75" viewBox="0 0 100 75" fill="none" xmlns="http://www.w3.org/2000/svg">
<rect width="100" height="75" fill="#0D7718"/>
<path d="M20.4556 31.8H22.0556L25.4156 38.6C25.501 38.7387 25.5703 38.904 25.6236 39.096C25.6663 39.256 25.693 39.3573 25.7036 39.4H25.7676C25.7783 39.3573 25.805 39.256 25.8476 39.096C25.901 38.904 25.9703 38.7387 26.0556 38.6L29.4156 31.8H31.0156V43H29.4156V35.96C29.4156 35.7893 29.4263 35.5013 29.4476 35.096L29.4796 34.6H29.4156L29.2716 35.096C29.2396 35.1813 29.1916 35.32 29.1276 35.512C29.0636 35.6933 28.9996 35.8427 28.9356 35.96L26.3756 41H25.0956L22.5356 35.96C22.4716 35.8427 22.4076 35.6933 22.3436 35.512C22.2796 35.32 22.2316 35.1813 22.1996 35.096L22.0556 34.6H21.9916L22.0236 35.096C22.045 35.5013 22.0556 35.7893 22.0556 35.96V43H20.4556V31.8ZM36.7731 43.16C35.6638 43.16 34.7998 42.808 34.1811 42.104C33.5625 41.4 33.2531 40.3653 33.2531 39C33.2531 37.6453 33.5518 36.616 34.1491 35.912C34.7465 35.1973 35.5411 34.84 36.5331 34.84C37.5251 34.84 38.3198 35.1973 38.9171 35.912C39.5145 36.616 39.8131 37.6453 39.8131 39V39.24L39.4931 39.56H34.8531C34.8531 40.3813 35.0345 41 35.3971 41.416C35.7598 41.832 36.2718 42.04 36.9331 42.04C37.3278 42.04 37.7385 41.9227 38.1651 41.688C38.3891 41.56 38.5651 41.4373 38.6931 41.32H38.8531L39.4131 42.28C39.2211 42.44 38.9811 42.5893 38.6931 42.728C38.1385 43.016 37.4985 43.16 36.7731 43.16ZM38.2131 38.44C38.2131 37.5973 38.0585 36.9733 37.7491 36.568C37.4505 36.1627 37.0451 35.96 36.5331 35.96C36.0211 35.96 35.6105 36.1627 35.3011 36.568C35.0025 36.9733 34.8531 37.5973 34.8531 38.44H38.2131ZM44.2113 43.16C43.6886 43.16 43.2086 43.0053 42.7713 42.696C42.3339 42.376 41.9819 41.9067 41.7153 41.288C41.4593 40.6587 41.3313 39.896 41.3313 39C41.3313 37.6453 41.6246 36.616 42.2113 35.912C42.7979 35.1973 43.5713 34.84 44.5312 34.84C44.8939 34.84 45.3046 34.92 45.7633 35.08L46.2913 35.32V32.28L46.7713 31.8H47.8913V43H46.7713L46.6113 42.04H46.5313C46.3819 42.2533 46.1953 42.44 45.9713 42.6C45.5019 42.9733 44.9153 43.16 44.2113 43.16ZM44.6113 41.96C45.0059 41.96 45.4059 41.8 45.8113 41.48C45.9926 41.3307 46.1526 41.1707 46.2913 41V36.28C46.1953 36.2267 46.0513 36.1733 45.8593 36.12C45.4966 36.0133 45.1339 35.96 44.7713 35.96C44.2166 35.96 43.7686 36.2053 43.4273 36.696C43.0966 37.176 42.9313 37.944 42.9313 39C42.9313 40.0133 43.0859 40.76 43.3953 41.24C43.7153 41.72 44.1206 41.96 44.6113 41.96ZM51.0938 33.72C50.8164 33.72 50.5871 33.6293 50.4058 33.448C50.2244 33.2667 50.1338 33.0373 50.1338 32.76C50.1338 32.4827 50.2244 32.2533 50.4058 32.072C50.5871 31.8907 50.8164 31.8 51.0938 31.8C51.3711 31.8 51.6004 31.8907 51.7818 32.072C51.9631 32.2533 52.0538 32.4827 52.0538 32.76C52.0538 33.0373 51.9631 33.2667 51.7818 33.448C51.6004 33.6293 51.3711 33.72 51.0938 33.72ZM50.2938 43V35H51.8938V43H50.2938ZM56.4538 43.16C55.6218 43.16 54.9711 42.9413 54.5018 42.504C54.0431 42.056 53.8138 41.448 53.8138 40.68C53.8138 39.9227 54.0858 39.336 54.6298 38.92C55.1844 38.4933 56.0591 38.28 57.2538 38.28H58.5338V37.88C58.5338 37.2507 58.3844 36.776 58.0858 36.456C57.7978 36.1253 57.3871 35.96 56.8538 35.96C56.4698 35.96 56.0538 36.0827 55.6058 36.328C55.3818 36.456 55.2111 36.5733 55.0938 36.68H54.9338L54.3738 35.72C54.5871 35.56 54.8271 35.416 55.0938 35.288C55.6698 34.9893 56.3098 34.84 57.0138 34.84C57.6218 34.84 58.1604 34.9733 58.6298 35.24C59.0991 35.496 59.4671 35.8587 59.7338 36.328C60.0004 36.7867 60.1338 37.304 60.1338 37.88V43H59.0138L58.8538 42.04H58.7738C58.6244 42.2533 58.4378 42.44 58.2138 42.6C57.7444 42.9733 57.1578 43.16 56.4538 43.16ZM56.8538 41.96C57.2484 41.96 57.6484 41.8 58.0538 41.48C58.2351 41.3307 58.3951 41.1707 58.5338 41V39.4H57.2538C56.6458 39.4 56.1871 39.5173 55.8778 39.752C55.5684 39.9867 55.4138 40.296 55.4138 40.68C55.4138 41.096 55.5311 41.416 55.7658 41.64C56.0111 41.8533 56.3738 41.96 56.8538 41.96ZM65.41 43.16C64.61 43.16 63.97 42.9253 63.49 42.456C63.01 41.9867 62.77 41.368 62.77 40.6V36.12H61.57V35.16L63.65 33.08H64.37V35H66.37V36.12H64.37V40.6C64.37 41.0693 64.4767 41.4267 64.69 41.672C64.9033 41.9173 65.1967 42.04 65.57 42.04C65.89 42.04 66.2047 41.9333 66.514 41.72C66.6527 41.624 66.7913 41.5173 66.93 41.4H67.09L67.65 42.36C67.4153 42.5413 67.202 42.6747 67.01 42.76C66.498 43.0267 65.9647 43.16 65.41 43.16ZM71.8963 43.16C70.8189 43.16 69.9763 42.808 69.3683 42.104C68.7603 41.4 68.4563 40.3653 68.4563 39C68.4563 37.6347 68.7603 36.6 69.3683 35.896C69.9763 35.192 70.8189 34.84 71.8963 34.84C72.9629 34.84 73.8003 35.192 74.4083 35.896C75.0269 36.6 75.3363 37.6347 75.3363 39C75.3363 40.3653 75.0269 41.4 74.4083 42.104C73.8003 42.808 72.9629 43.16 71.8963 43.16ZM71.8963 42.04C72.4509 42.04 72.8936 41.8 73.2243 41.32C73.5656 40.8293 73.7363 40.056 73.7363 39C73.7363 37.944 73.5656 37.176 73.2243 36.696C72.8936 36.2053 72.4509 35.96 71.8963 35.96C71.3416 35.96 70.8936 36.2053 70.5523 36.696C70.2216 37.176 70.0563 37.944 70.0563 39C70.0563 40.056 70.2216 40.8293 70.5523 41.32C70.8936 41.8 71.3416 42.04 71.8963 42.04ZM77.3406 35H78.4606L78.6206 35.96H78.7006C78.8073 35.8 78.9886 35.6133 79.2446 35.4C79.746 35.0267 80.3113 34.84 80.9406 34.84C81.218 34.84 81.4633 34.8667 81.6766 34.92L81.9806 35L81.7406 36.28H81.5806C81.506 36.2693 81.394 36.2427 81.2446 36.2C81.01 36.1467 80.7753 36.12 80.5406 36.12C80.1886 36.12 79.81 36.28 79.4046 36.6C79.266 36.7173 79.1113 36.8773 78.9406 37.08V43H77.3406V35Z" fill="white"/>
</svg>
