<svg width="100" height="75" viewBox="0 0 100 75" fill="none" xmlns="http://www.w3.org/2000/svg">
<rect width="100" height="75" fill="#561657"/>
<path d="M17.6602 42.1025L16.4023 42C16.2975 42 16.1995 42.0046 16.1084 42.0137L15.8281 42.0547C15.541 42.0866 15.3245 42.1025 15.1787 42.1025C15.0374 42.1025 14.9235 42.0866 14.8369 42.0547C14.7549 42.0273 14.6911 41.9932 14.6455 41.9521C14.5544 41.8747 14.5088 41.7949 14.5088 41.7129C14.5088 41.6263 14.5316 41.5511 14.5771 41.4873C14.6227 41.4235 14.6888 41.3916 14.7754 41.3916L15.2129 41.4326C15.5137 41.4326 15.7119 41.3096 15.8076 41.0635C15.876 40.8766 15.9102 40.471 15.9102 39.8467L15.917 34.043C15.917 33.6237 15.8737 33.3115 15.7871 33.1064C15.7051 32.9014 15.6025 32.7145 15.4795 32.5459C15.361 32.3727 15.2266 32.2314 15.0762 32.1221C14.9303 32.0127 14.7982 31.9284 14.6797 31.8691C14.5612 31.8053 14.4655 31.7575 14.3926 31.7256C14.3197 31.6891 14.2832 31.6504 14.2832 31.6094C14.2832 31.5638 14.29 31.5205 14.3037 31.4795C14.3174 31.4385 14.3402 31.3997 14.3721 31.3633C14.4404 31.2767 14.5544 31.2334 14.7139 31.2334C14.8734 31.2334 15.026 31.238 15.1719 31.2471C15.3223 31.2562 15.4749 31.2676 15.6299 31.2812C15.999 31.3132 16.3864 31.3291 16.792 31.3291L21.2422 38.3018L24.8379 31.3223C25.2435 31.3223 25.6035 31.3086 25.918 31.2812C26.515 31.2357 26.9046 31.2129 27.0869 31.2129C27.2738 31.2129 27.4082 31.2288 27.4902 31.2607C27.5723 31.2881 27.6383 31.3223 27.6885 31.3633C27.7796 31.4453 27.8252 31.5296 27.8252 31.6162C27.8252 31.6982 27.8001 31.7712 27.75 31.835C27.7044 31.8988 27.6429 31.9307 27.5654 31.9307L27.1211 31.8828C26.8249 31.8828 26.6312 31.9945 26.54 32.2178C26.4489 32.4274 26.4033 32.8558 26.4033 33.5029V39.8467C26.4033 40.4437 26.4398 40.8288 26.5127 41.002C26.5856 41.1706 26.6722 41.2845 26.7725 41.3438C26.8727 41.403 27.0049 41.4326 27.1689 41.4326L27.6133 41.3916C27.6953 41.3916 27.7591 41.4235 27.8047 41.4873C27.8503 41.5511 27.873 41.6104 27.873 41.665C27.873 41.7152 27.8617 41.7653 27.8389 41.8154C27.8206 41.8656 27.7887 41.9111 27.7432 41.9521C27.5882 42.0843 27.2555 42.1276 26.7451 42.082C26.6038 42.0729 26.4717 42.0638 26.3486 42.0547L25.9795 42.0137C25.861 42.0046 25.7311 42 25.5898 42C25.4486 42 25.3187 42.0046 25.2002 42.0137L24.8379 42.0547C24.4688 42.0866 24.1976 42.1025 24.0244 42.1025C23.8558 42.1025 23.7305 42.0866 23.6484 42.0547C23.5664 42.0273 23.5003 41.9932 23.4502 41.9521C23.3636 41.8747 23.3203 41.7949 23.3203 41.7129C23.3203 41.4987 23.4069 41.3916 23.5801 41.3916L24.0244 41.4326C24.3343 41.4326 24.5417 41.3073 24.6465 41.0566C24.7422 40.8333 24.79 40.43 24.79 39.8467L24.8584 33.3662L21.249 40.2568C21.1169 40.512 20.9801 40.6396 20.8389 40.6396C20.766 40.6396 20.6976 40.6009 20.6338 40.5234C20.5745 40.4414 20.4447 40.2454 20.2441 39.9355L19.499 38.7461C18.0498 36.3398 17.1589 34.8838 16.8262 34.3779V39.8467C16.8262 40.4346 16.8626 40.8174 16.9355 40.9951C17.013 41.1683 17.1019 41.2845 17.2021 41.3438C17.3024 41.403 17.4346 41.4326 17.5986 41.4326L18.0361 41.3916C18.1182 41.3916 18.182 41.4235 18.2275 41.4873C18.2777 41.5511 18.3027 41.6104 18.3027 41.665C18.3027 41.7152 18.2913 41.7653 18.2686 41.8154C18.2503 41.8656 18.2161 41.9111 18.166 41.9521C18.043 42.0524 17.8743 42.1025 17.6602 42.1025ZM30.1836 41.1934C29.8281 40.8743 29.5456 40.487 29.3359 40.0312C29.1309 39.5755 29.0283 39.0833 29.0283 38.5547C29.0283 38.026 29.1217 37.5407 29.3086 37.0986C29.4954 36.6566 29.7598 36.2669 30.1016 35.9297C30.8581 35.1777 31.7969 34.8018 32.918 34.8018C33.6654 34.8018 34.3193 34.9954 34.8799 35.3828C35.2855 35.6608 35.6227 36.0254 35.8916 36.4766C36.0785 36.8047 36.1719 37.0143 36.1719 37.1055C36.1719 37.1921 36.1673 37.2604 36.1582 37.3105C36.1536 37.3561 36.14 37.4017 36.1172 37.4473C36.0671 37.5566 35.9714 37.6364 35.8301 37.6865C34.668 38.1104 33.376 38.4909 31.9541 38.8281L30.7578 39.1152C30.9128 39.7806 31.2568 40.2956 31.79 40.6602C32.2594 40.9792 32.8132 41.1387 33.4512 41.1387C34.0026 41.1387 34.5085 40.9609 34.9688 40.6055C35.1146 40.4961 35.2285 40.3822 35.3105 40.2637C35.4518 40.054 35.6022 39.9492 35.7617 39.9492C35.862 39.9492 35.9486 40.0312 36.0215 40.1953C36.0397 40.2363 36.0488 40.2751 36.0488 40.3115C36.0488 40.4847 35.96 40.6875 35.7822 40.9199C35.4678 41.3346 35.0645 41.6468 34.5723 41.8564C34.0801 42.0615 33.5514 42.1641 32.9863 42.1641C32.4258 42.1641 31.9062 42.082 31.4277 41.918C30.9538 41.7493 30.5391 41.5078 30.1836 41.1934ZM30.6621 38.2539L32.6104 37.748C33.7725 37.4382 34.3786 37.2422 34.4287 37.1602C34.4424 37.1328 34.4492 37.0804 34.4492 37.0029C34.4492 36.9209 34.4173 36.8092 34.3535 36.668C34.2897 36.5221 34.1917 36.3877 34.0596 36.2646C33.7542 35.9821 33.3577 35.8408 32.8701 35.8408C32.3916 35.8408 31.9404 35.9775 31.5166 36.251C30.9424 36.6247 30.6553 37.2126 30.6553 38.0146V38.1309C30.6553 38.1719 30.6576 38.2129 30.6621 38.2539ZM38.1064 42.1025C37.6462 42.1025 37.416 41.9635 37.416 41.6855C37.416 41.6126 37.4388 41.5465 37.4844 41.4873C37.5345 41.4235 37.5983 41.3916 37.6758 41.3916L38.0176 41.4395C38.3913 41.4395 38.6169 41.1068 38.6943 40.4414C38.7217 40.1999 38.7354 39.9059 38.7354 39.5596V37.5498C38.7354 36.6839 38.6351 36.1188 38.4346 35.8545C38.3662 35.7633 38.2682 35.6995 38.1406 35.6631C38.0176 35.6266 37.8945 35.5947 37.7715 35.5674C37.653 35.54 37.5482 35.5081 37.457 35.4717C37.3704 35.4352 37.3271 35.3783 37.3271 35.3008C37.3271 35.0957 37.4753 34.9932 37.7715 34.9932L38.7764 35.0752L39.8086 34.9932C39.9954 34.9932 40.1162 35.0273 40.1709 35.0957C40.2803 35.2233 40.3395 35.4557 40.3486 35.793C41.1644 35.1322 42.0166 34.8018 42.9053 34.8018C43.4476 34.8018 43.9124 34.9089 44.2998 35.123C44.6917 35.3372 44.988 35.6335 45.1885 36.0117C45.7627 35.4557 46.4372 35.0843 47.2119 34.8975C47.4762 34.8337 47.7747 34.8018 48.1074 34.8018C48.4401 34.8018 48.7637 34.8587 49.0781 34.9727C49.3971 35.0866 49.6683 35.2484 49.8916 35.458C50.3519 35.8955 50.582 36.4697 50.582 37.1807V39.5596C50.582 40.2842 50.623 40.7536 50.7051 40.9678C50.7871 41.1774 50.8691 41.3096 50.9512 41.3643C51.0378 41.4144 51.1357 41.4395 51.2451 41.4395L51.6006 41.3916C51.6735 41.3916 51.7327 41.4235 51.7783 41.4873C51.8239 41.5511 51.8467 41.6104 51.8467 41.665C51.8467 41.7197 51.8353 41.7721 51.8125 41.8223C51.7943 41.8678 51.7601 41.9111 51.71 41.9521C51.555 42.0889 51.2633 42.1322 50.835 42.082L50.1992 42.0137C50.0898 42.0046 49.9668 42 49.8301 42L48.3877 42.1025C47.9001 42.1025 47.6562 41.9635 47.6562 41.6855C47.6562 41.6126 47.6813 41.5465 47.7314 41.4873C47.7816 41.4235 47.8454 41.3916 47.9229 41.3916L48.2783 41.4395C48.5472 41.4395 48.7295 41.2982 48.8252 41.0156C48.9118 40.7604 48.9551 40.2751 48.9551 39.5596V37.4541C48.9551 36.971 48.8343 36.5951 48.5928 36.3262C48.3512 36.0527 48.0322 35.916 47.6357 35.916C46.8929 35.916 46.1546 36.2555 45.4209 36.9346C45.4528 37.1351 45.4688 37.3105 45.4688 37.4609V39.5596C45.4688 40.2887 45.5098 40.7581 45.5918 40.9678C45.6784 41.1774 45.7627 41.3096 45.8447 41.3643C45.9268 41.4144 46.0225 41.4395 46.1318 41.4395L46.4941 41.3916C46.5716 41.3916 46.6309 41.4235 46.6719 41.4873C46.7174 41.5511 46.7402 41.6104 46.7402 41.665C46.7402 41.7197 46.7288 41.7721 46.7061 41.8223C46.6878 41.8678 46.6536 41.9111 46.6035 41.9521C46.4395 42.0843 46.1478 42.1276 45.7285 42.082L45.0928 42.0137C44.9788 42.0046 44.8535 42 44.7168 42L43.2744 42.1025C42.8825 42.1025 42.6501 42.0091 42.5771 41.8223C42.5589 41.7721 42.5498 41.7197 42.5498 41.665C42.5498 41.6058 42.5726 41.5465 42.6182 41.4873C42.6683 41.4235 42.7344 41.3916 42.8164 41.3916L43.1719 41.4395C43.4453 41.4395 43.6276 41.3027 43.7188 41.0293C43.8053 40.7695 43.8486 40.2796 43.8486 39.5596V37.4541C43.8486 36.971 43.7256 36.5951 43.4795 36.3262C43.238 36.0527 42.9007 35.916 42.4678 35.916C41.7933 35.916 41.0869 36.2441 40.3486 36.9004V39.5596C40.3486 40.3298 40.3942 40.8128 40.4854 41.0088C40.5811 41.2048 40.6768 41.3255 40.7725 41.3711C40.8727 41.4167 40.9889 41.4395 41.1211 41.4395L41.4629 41.3916C41.5404 41.3916 41.5996 41.4235 41.6406 41.4873C41.6862 41.5465 41.709 41.6126 41.709 41.6855C41.709 41.9635 41.472 42.1025 40.998 42.1025C40.7611 42.1025 40.5218 42.0843 40.2803 42.0479C40.0433 42.016 39.8132 42 39.5898 42C39.3665 42 39.1865 42.0046 39.0498 42.0137C38.9176 42.0273 38.7969 42.0387 38.6875 42.0479C38.5781 42.0615 38.4779 42.0729 38.3867 42.082C38.2956 42.0957 38.2021 42.1025 38.1064 42.1025ZM54.0957 41.1934C53.7402 40.8743 53.4577 40.487 53.248 40.0312C53.043 39.5755 52.9404 39.0833 52.9404 38.5547C52.9404 38.026 53.0339 37.5407 53.2207 37.0986C53.4076 36.6566 53.6719 36.2669 54.0137 35.9297C54.7702 35.1777 55.709 34.8018 56.8301 34.8018C57.5775 34.8018 58.2314 34.9954 58.792 35.3828C59.1976 35.6608 59.5348 36.0254 59.8037 36.4766C59.9906 36.8047 60.084 37.0143 60.084 37.1055C60.084 37.1921 60.0794 37.2604 60.0703 37.3105C60.0658 37.3561 60.0521 37.4017 60.0293 37.4473C59.9792 37.5566 59.8835 37.6364 59.7422 37.6865C58.5801 38.1104 57.2881 38.4909 55.8662 38.8281L54.6699 39.1152C54.8249 39.7806 55.1689 40.2956 55.7021 40.6602C56.1715 40.9792 56.7253 41.1387 57.3633 41.1387C57.9147 41.1387 58.4206 40.9609 58.8809 40.6055C59.0267 40.4961 59.1406 40.3822 59.2227 40.2637C59.3639 40.054 59.5143 39.9492 59.6738 39.9492C59.7741 39.9492 59.8607 40.0312 59.9336 40.1953C59.9518 40.2363 59.9609 40.2751 59.9609 40.3115C59.9609 40.4847 59.8721 40.6875 59.6943 40.9199C59.3799 41.3346 58.9766 41.6468 58.4844 41.8564C57.9922 42.0615 57.4635 42.1641 56.8984 42.1641C56.3379 42.1641 55.8184 42.082 55.3398 41.918C54.8659 41.7493 54.4512 41.5078 54.0957 41.1934ZM54.5742 38.2539L56.5225 37.748C57.6846 37.4382 58.2907 37.2422 58.3408 37.1602C58.3545 37.1328 58.3613 37.0804 58.3613 37.0029C58.3613 36.9209 58.3294 36.8092 58.2656 36.668C58.2018 36.5221 58.1038 36.3877 57.9717 36.2646C57.6663 35.9821 57.2699 35.8408 56.7822 35.8408C56.3037 35.8408 55.8525 35.9775 55.4287 36.251C54.8545 36.6247 54.5674 37.2126 54.5674 38.0146V38.1309C54.5674 38.1719 54.5697 38.2129 54.5742 38.2539ZM64.917 42.1025L63.4404 42C63.1488 42 62.8617 42.016 62.5791 42.0479C62.3011 42.0843 62.1006 42.1025 61.9775 42.1025C61.859 42.1025 61.7542 42.0866 61.6631 42.0547C61.5765 42.0273 61.5081 41.9932 61.458 41.9521C61.3714 41.8792 61.3281 41.7995 61.3281 41.7129C61.3281 41.6217 61.3532 41.5465 61.4033 41.4873C61.4535 41.4235 61.515 41.3916 61.5879 41.3916L61.9297 41.4395C62.1849 41.4395 62.3672 41.3141 62.4766 41.0635C62.5905 40.7992 62.6475 40.332 62.6475 39.6621V37.5498C62.6475 36.7887 62.5472 36.2715 62.3467 35.998C62.2601 35.8841 62.0983 35.793 61.8613 35.7246C61.6243 35.6517 61.4603 35.5947 61.3691 35.5537C61.2826 35.5081 61.2393 35.4557 61.2393 35.3965C61.2393 35.3327 61.2461 35.2803 61.2598 35.2393C61.2734 35.1982 61.2962 35.1595 61.3281 35.123C61.4056 35.0365 61.5241 34.9932 61.6836 34.9932L62.6885 35.0752L63.7207 34.9932C63.9167 34.9932 64.042 35.0273 64.0967 35.0957C64.2106 35.2233 64.2676 35.4717 64.2676 35.8408V36.0254C65.0241 35.2096 65.9082 34.8018 66.9199 34.8018C68.0729 34.8018 68.8158 35.2575 69.1484 36.1689C69.2669 36.4925 69.3262 36.8753 69.3262 37.3174V39.6621C69.3262 40.3867 69.3672 40.8447 69.4492 41.0361C69.5358 41.223 69.6201 41.3369 69.7021 41.3779C69.7842 41.4189 69.8799 41.4395 69.9893 41.4395L70.3516 41.3916C70.429 41.3916 70.4883 41.4235 70.5293 41.4873C70.5749 41.5511 70.5977 41.6104 70.5977 41.665C70.5977 41.7197 70.5885 41.7721 70.5703 41.8223C70.5521 41.8678 70.5179 41.9111 70.4678 41.9521C70.3037 42.0843 70.012 42.1276 69.5928 42.082C69.0687 42.0273 68.7292 42 68.5742 42L67.1318 42.1025C66.7399 42.1025 66.5075 42.0091 66.4346 41.8223C66.4163 41.7721 66.4072 41.7197 66.4072 41.665C66.4072 41.6058 66.43 41.5465 66.4756 41.4873C66.5257 41.4235 66.5918 41.3916 66.6738 41.3916L67.0361 41.4395C67.305 41.4395 67.485 41.3187 67.5762 41.0771C67.6673 40.8311 67.7129 40.3594 67.7129 39.6621V37.8506C67.7129 37.0166 67.4782 36.4492 67.0088 36.1484C66.8265 36.0299 66.6123 35.9707 66.3662 35.9707C66.1247 35.9707 65.9082 36.0026 65.7168 36.0664C65.5254 36.1257 65.3431 36.2077 65.1699 36.3125C64.8281 36.5267 64.5273 36.8024 64.2676 37.1396V39.6621C64.2676 40.4186 64.3132 40.888 64.4043 41.0703C64.5 41.248 64.5957 41.3551 64.6914 41.3916C64.7871 41.4235 64.901 41.4395 65.0332 41.4395L65.375 41.3916C65.4525 41.3916 65.514 41.4235 65.5596 41.4873C65.6097 41.5465 65.6348 41.6126 65.6348 41.6855C65.6348 41.9635 65.3955 42.1025 64.917 42.1025ZM76.4902 34.9043C77.0781 34.9043 77.3721 35.057 77.3721 35.3623C77.3721 35.6904 77.0964 35.8545 76.5449 35.8545H74.3848V39.6826C74.3848 40.3708 74.5967 40.8242 75.0205 41.043C75.1663 41.1204 75.3327 41.1592 75.5195 41.1592C75.9707 41.1592 76.3695 40.929 76.7158 40.4688C76.8662 40.2682 77.0485 40.168 77.2627 40.168C77.3311 40.168 77.388 40.1999 77.4336 40.2637C77.4792 40.3229 77.502 40.3822 77.502 40.4414C77.502 40.6283 77.4154 40.8379 77.2422 41.0703C76.6999 41.7995 75.9753 42.1641 75.0684 42.1641C73.9382 42.1641 73.2227 41.7858 72.9219 41.0293C72.8125 40.7559 72.7578 40.4209 72.7578 40.0244V35.8545H72.0742C71.5957 35.8545 71.3564 35.7064 71.3564 35.4102C71.3564 35.2917 71.4134 35.1891 71.5273 35.1025C71.6458 35.0114 71.8076 34.943 72.0127 34.8975C72.2223 34.8473 72.416 34.7585 72.5938 34.6309C72.776 34.5033 72.9287 34.3392 73.0518 34.1387C73.2751 33.7878 73.4437 33.2272 73.5576 32.457C73.6351 31.974 73.7923 31.7324 74.0293 31.7324C74.2663 31.7324 74.3848 31.974 74.3848 32.457V34.9521L75.0889 34.9316C75.6357 34.9134 76.1029 34.9043 76.4902 34.9043ZM78.6299 38.3223C78.6299 37.9303 78.7301 37.5111 78.9307 37.0645C79.1357 36.6178 79.4137 36.2259 79.7646 35.8887C80.5257 35.1641 81.4531 34.8018 82.5469 34.8018C83.8138 34.8018 84.7959 35.18 85.4932 35.9365C86.1175 36.6156 86.4297 37.4245 86.4297 38.3633C86.4297 39.4707 86.0993 40.3708 85.4385 41.0635C84.7412 41.7972 83.7865 42.1641 82.5742 42.1641C80.8242 42.1641 79.6325 41.5033 78.999 40.1816C78.7529 39.6667 78.6299 39.0469 78.6299 38.3223ZM80.4756 37.0098C80.3799 37.2695 80.332 37.6136 80.332 38.042C80.332 38.4704 80.4027 38.8828 80.5439 39.2793C80.6898 39.6758 80.8812 40.0107 81.1182 40.2842C81.6149 40.8493 82.2051 41.1318 82.8887 41.1318C83.7272 41.1318 84.2855 40.765 84.5635 40.0312C84.6592 39.7806 84.707 39.4251 84.707 38.9648C84.707 38.5046 84.6318 38.0693 84.4814 37.6592C84.3311 37.2445 84.1351 36.9027 83.8936 36.6338C83.4196 36.1051 82.8431 35.8408 82.1641 35.8408C81.321 35.8408 80.7581 36.2305 80.4756 37.0098Z" fill="white"/>
</svg>
