<svg width="100" height="75" viewBox="0 0 100 75" fill="none" xmlns="http://www.w3.org/2000/svg">
<rect width="100" height="75" fill="#FF9900"/>
<path d="M25.8724 43.802C25.5844 43.91 25.2304 44.006 24.8104 44.09C24.4024 44.174 23.9584 44.216 23.4784 44.216C22.9984 44.216 22.5964 44.198 22.2724 44.162C21.9604 44.138 21.6784 44.084 21.4264 44C21.1744 43.904 20.9524 43.814 20.7604 43.73C20.5684 43.646 20.3944 43.502 20.2384 43.298C20.0944 43.094 19.9744 42.92 19.8784 42.776C19.7824 42.632 19.6984 42.398 19.6264 42.074C19.5664 41.75 19.5184 41.48 19.4824 41.264C19.4464 41.036 19.4224 40.688 19.4104 40.22C19.3864 39.308 19.3744 38.45 19.3744 37.646C19.3744 36.842 19.3804 36.236 19.3924 35.828C19.4044 35.42 19.4284 34.928 19.4644 34.352C19.5124 33.776 19.5904 33.368 19.6984 33.128C19.8064 32.876 19.9504 32.594 20.1304 32.282C20.3104 31.958 20.5444 31.736 20.8324 31.616C21.6004 31.328 22.4104 31.184 23.2624 31.184C24.1144 31.184 24.7864 31.274 25.2784 31.454C25.7824 31.622 26.1784 31.826 26.4664 32.066C26.7544 32.306 26.9584 32.75 27.0784 33.398C27.2104 34.046 27.2884 34.634 27.3124 35.162C27.3364 35.69 27.3484 36.464 27.3484 37.484C27.3484 38.492 27.3424 39.2 27.3304 39.608C27.3184 40.016 27.2884 40.508 27.2404 41.084C27.2044 41.66 27.1324 42.074 27.0244 42.326C26.9164 42.566 26.7724 42.842 26.5924 43.154C26.4124 43.466 26.1724 43.682 25.8724 43.802ZM25.7824 40.526V34.874C25.7824 33.914 25.6804 33.332 25.4764 33.128C25.1764 32.804 24.8464 32.612 24.4864 32.552C24.1384 32.492 23.7664 32.462 23.3704 32.462C22.9744 32.462 22.6324 32.486 22.3444 32.534C22.0564 32.582 21.8224 32.666 21.6424 32.786C21.4744 32.906 21.3364 33.02 21.2284 33.128C21.1324 33.236 21.0604 33.404 21.0124 33.632C20.9644 33.92 20.9404 34.334 20.9404 34.874V40.526C20.9404 41.486 21.0364 42.068 21.2284 42.272C21.5404 42.596 21.8764 42.788 22.2364 42.848C22.5964 42.908 22.9744 42.938 23.3704 42.938C23.7664 42.938 24.1024 42.914 24.3784 42.866C24.6664 42.818 24.8944 42.734 25.0624 42.614C25.2424 42.494 25.3804 42.38 25.4764 42.272C25.5844 42.164 25.6564 41.996 25.6924 41.768C25.7524 41.48 25.7824 41.066 25.7824 40.526ZM31.7903 37.268V42.848C32.4503 42.98 33.0623 43.046 33.6263 43.046C34.2023 43.046 34.5863 42.932 34.7783 42.704C34.9823 42.476 35.0843 42.026 35.0843 41.354V37.304C35.0843 36.716 34.9943 36.302 34.8143 36.062C34.6343 35.822 34.2023 35.702 33.5183 35.702C32.8463 35.702 32.3903 35.84 32.1503 36.116C31.9103 36.38 31.7903 36.764 31.7903 37.268ZM30.3143 31.04H31.7003V35.252C32.2043 34.784 32.9843 34.55 34.0403 34.55C35.1083 34.55 35.7983 34.874 36.1103 35.522C36.4343 36.158 36.5963 37.28 36.5963 38.888C36.5963 40.28 36.5723 41.138 36.5243 41.462C36.4763 41.774 36.4283 42.062 36.3803 42.326C36.3323 42.578 36.2663 42.776 36.1823 42.92C36.1103 43.052 36.0143 43.202 35.8943 43.37C35.7863 43.538 35.6543 43.664 35.4983 43.748C35.3543 43.832 35.1863 43.916 34.9943 44C34.6463 44.144 34.0763 44.216 33.2843 44.216C32.4923 44.216 31.5023 44.042 30.3143 43.694V31.04ZM42.9984 38.78C43.6464 38.864 44.1204 39.104 44.4204 39.5C44.7324 39.896 44.8884 40.532 44.8884 41.408C44.8884 42.272 44.6544 42.956 44.1864 43.46C43.7304 43.964 42.9564 44.216 41.8644 44.216C40.7844 44.216 39.8364 44.018 39.0204 43.622L39.3084 42.722C40.3884 42.926 41.2224 43.028 41.8104 43.028C42.3984 43.028 42.8184 42.914 43.0704 42.686C43.3224 42.446 43.4484 42.092 43.4484 41.624C43.4484 41.144 43.3764 40.784 43.2324 40.544C43.1004 40.304 42.8184 40.154 42.3864 40.094L40.9284 39.896C40.2204 39.8 39.7404 39.536 39.4884 39.104C39.2364 38.66 39.1104 38.024 39.1104 37.196C39.1104 36.368 39.3504 35.702 39.8304 35.198C40.3224 34.694 40.9884 34.442 41.8284 34.442C42.9324 34.442 43.8624 34.64 44.6184 35.036L44.3484 36.044C43.3764 35.816 42.6204 35.702 42.0804 35.702C41.5524 35.702 41.1624 35.792 40.9104 35.972C40.6704 36.152 40.5504 36.512 40.5504 37.052C40.5504 37.592 40.6044 37.964 40.7124 38.168C40.8204 38.372 41.0964 38.51 41.5404 38.582L42.9984 38.78ZM48.8176 37.196V39.05C50.0416 39.05 50.7676 39.008 50.9956 38.924C51.2356 38.828 51.4456 38.732 51.6256 38.636C51.9496 38.468 52.1116 38.138 52.1116 37.646V37.232C52.1116 36.644 52.0216 36.23 51.8416 35.99C51.6616 35.75 51.2296 35.63 50.5456 35.63C49.8736 35.63 49.4176 35.768 49.1776 36.044C48.9376 36.308 48.8176 36.692 48.8176 37.196ZM48.9796 34.676C49.1836 34.58 49.4176 34.52 49.6816 34.496C49.9456 34.46 50.3176 34.442 50.7976 34.442C51.2896 34.442 51.7456 34.508 52.1656 34.64C52.5856 34.772 52.8916 34.982 53.0836 35.27C53.2876 35.546 53.4196 35.834 53.4796 36.134C53.5516 36.422 53.5876 36.758 53.5876 37.142C53.5876 37.514 53.5636 37.826 53.5156 38.078C53.4676 38.318 53.4076 38.528 53.3356 38.708C53.2756 38.888 53.1676 39.05 53.0116 39.194C52.8676 39.326 52.7296 39.44 52.5976 39.536C52.4776 39.632 52.2916 39.716 52.0396 39.788C51.7996 39.848 51.5896 39.896 51.4096 39.932C51.2296 39.968 50.9716 39.998 50.6356 40.022C50.1316 40.058 49.5256 40.076 48.8176 40.076V41.426C48.8176 42.05 48.9496 42.476 49.2136 42.704C49.4776 42.92 49.8796 43.028 50.4196 43.028C51.4156 43.028 52.3096 42.86 53.1016 42.524L53.3896 43.424C52.4896 43.952 51.4936 44.216 50.4016 44.216C49.8256 44.216 49.3576 44.15 48.9976 44.018C48.6496 43.898 48.3976 43.76 48.2416 43.604C48.0976 43.448 47.9716 43.304 47.8636 43.172C47.7556 43.04 47.6656 42.848 47.5936 42.596C47.5336 42.344 47.4856 42.128 47.4496 41.948C47.4136 41.756 47.3896 41.492 47.3776 41.156C47.3416 40.58 47.3236 40.04 47.3236 39.536V38.456C47.3236 37.82 47.3476 37.364 47.3956 37.088C47.4436 36.812 47.4916 36.554 47.5396 36.314C47.5876 36.062 47.6536 35.876 47.7376 35.756C47.8216 35.624 47.9176 35.474 48.0256 35.306C48.1456 35.138 48.2836 35.012 48.4396 34.928C48.6076 34.844 48.7876 34.76 48.9796 34.676ZM57.6653 44H56.1893V34.64H56.9993L57.2873 35.738C58.1633 34.886 59.2073 34.454 60.4193 34.442L60.2753 35.738C59.1833 35.738 58.3133 36.062 57.6653 36.71V44ZM65.6617 44H63.2857L61.1077 34.64H62.5657L64.4197 43.028H64.5277L66.3817 34.64H67.8397L65.6617 44ZM71.4055 37.196V39.05C72.6295 39.05 73.3555 39.008 73.5835 38.924C73.8235 38.828 74.0335 38.732 74.2135 38.636C74.5375 38.468 74.6995 38.138 74.6995 37.646V37.232C74.6995 36.644 74.6095 36.23 74.4295 35.99C74.2495 35.75 73.8175 35.63 73.1335 35.63C72.4615 35.63 72.0055 35.768 71.7655 36.044C71.5255 36.308 71.4055 36.692 71.4055 37.196ZM71.5675 34.676C71.7715 34.58 72.0055 34.52 72.2695 34.496C72.5335 34.46 72.9055 34.442 73.3855 34.442C73.8775 34.442 74.3335 34.508 74.7535 34.64C75.1735 34.772 75.4795 34.982 75.6715 35.27C75.8755 35.546 76.0075 35.834 76.0675 36.134C76.1395 36.422 76.1755 36.758 76.1755 37.142C76.1755 37.514 76.1515 37.826 76.1035 38.078C76.0555 38.318 75.9955 38.528 75.9235 38.708C75.8635 38.888 75.7555 39.05 75.5995 39.194C75.4555 39.326 75.3175 39.44 75.1855 39.536C75.0655 39.632 74.8795 39.716 74.6275 39.788C74.3875 39.848 74.1775 39.896 73.9975 39.932C73.8175 39.968 73.5595 39.998 73.2235 40.022C72.7195 40.058 72.1135 40.076 71.4055 40.076V41.426C71.4055 42.05 71.5375 42.476 71.8015 42.704C72.0655 42.92 72.4675 43.028 73.0075 43.028C74.0035 43.028 74.8975 42.86 75.6895 42.524L75.9775 43.424C75.0775 43.952 74.0815 44.216 72.9895 44.216C72.4135 44.216 71.9455 44.15 71.5855 44.018C71.2375 43.898 70.9855 43.76 70.8295 43.604C70.6855 43.448 70.5595 43.304 70.4515 43.172C70.3435 43.04 70.2535 42.848 70.1815 42.596C70.1215 42.344 70.0735 42.128 70.0375 41.948C70.0015 41.756 69.9775 41.492 69.9655 41.156C69.9295 40.58 69.9115 40.04 69.9115 39.536V38.456C69.9115 37.82 69.9355 37.364 69.9835 37.088C70.0315 36.812 70.0795 36.554 70.1275 36.314C70.1755 36.062 70.2415 35.876 70.3255 35.756C70.4095 35.624 70.5055 35.474 70.6135 35.306C70.7335 35.138 70.8715 35.012 71.0275 34.928C71.1955 34.844 71.3755 34.76 71.5675 34.676ZM80.2532 44H78.7772V34.64H79.5872L79.8752 35.738C80.7512 34.886 81.7952 34.454 83.0072 34.442L82.8632 35.738C81.7712 35.738 80.9012 36.062 80.2532 36.71V44Z" fill="white"/>
</svg>
