<svg width="100" height="75" viewBox="0 0 100 75" fill="none" xmlns="http://www.w3.org/2000/svg">
<rect width="100" height="75" fill="#01081E"/>
<path d="M22.6884 38V41.6L23.6484 41.84V42H20.3684V41.84L21.3284 41.6V31.2L20.3684 30.96V30.8H23.2484C23.9098 30.8 24.4964 30.8907 25.0084 31.072C25.5311 31.2533 25.9684 31.504 26.3204 31.824C26.6724 32.144 26.9391 32.5227 27.1204 32.96C27.3124 33.3973 27.4084 33.8773 27.4084 34.4C27.4084 34.9227 27.3124 35.4027 27.1204 35.84C26.9391 36.2773 26.6724 36.656 26.3204 36.976C25.9684 37.296 25.5311 37.5467 25.0084 37.728C24.4964 37.9093 23.9098 38 23.2484 38H22.6884ZM22.6884 37.68H23.2484C24.0911 37.68 24.7418 37.424 25.2004 36.912C25.6591 36.4 25.8884 35.5627 25.8884 34.4C25.8884 33.2373 25.6591 32.4 25.2004 31.888C24.7418 31.376 24.0911 31.12 23.2484 31.12H22.6884V37.68ZM30.5266 41.6L31.4866 41.84V42H28.2866V41.84L29.2466 41.6V35.04L28.2866 34.8V34.64H30.5266V36.56C30.6652 36.1653 30.8306 35.808 31.0226 35.488C31.1932 35.2107 31.4012 34.96 31.6466 34.736C31.8919 34.512 32.1852 34.4 32.5266 34.4C32.6439 34.4 32.7559 34.4107 32.8626 34.432C32.9692 34.4427 33.0652 34.4587 33.1506 34.48C33.2466 34.512 33.3319 34.5387 33.4066 34.56L32.9266 35.76C32.8626 35.728 32.7932 35.6907 32.7186 35.648C32.6546 35.616 32.5746 35.5893 32.4786 35.568C32.3932 35.536 32.3026 35.52 32.2066 35.52C31.9292 35.52 31.6839 35.5947 31.4706 35.744C31.2572 35.8933 31.0812 36.0587 30.9426 36.24C30.7719 36.4533 30.6332 36.6933 30.5266 36.96V41.6ZM37.0959 34.64C36.9146 34.64 36.7279 34.704 36.5359 34.832C36.3546 34.9493 36.1839 35.152 36.0239 35.44C35.8746 35.7173 35.7466 36.0907 35.6399 36.56C35.5439 37.0293 35.4959 37.616 35.4959 38.32C35.4959 39.024 35.5439 39.6107 35.6399 40.08C35.7466 40.5493 35.8746 40.928 36.0239 41.216C36.1839 41.4933 36.3546 41.696 36.5359 41.824C36.7279 41.9413 36.9146 42 37.0959 42C37.2773 42 37.4586 41.9413 37.6399 41.824C37.8319 41.696 38.0026 41.4933 38.1519 41.216C38.3119 40.928 38.4399 40.5493 38.5359 40.08C38.6426 39.6107 38.6959 39.024 38.6959 38.32C38.6959 37.616 38.6426 37.0293 38.5359 36.56C38.4399 36.0907 38.3119 35.7173 38.1519 35.44C38.0026 35.152 37.8319 34.9493 37.6399 34.832C37.4586 34.704 37.2773 34.64 37.0959 34.64ZM37.0959 34.4C37.4906 34.4 37.8693 34.4907 38.2319 34.672C38.6053 34.8427 38.9306 35.0987 39.2079 35.44C39.4959 35.7707 39.7199 36.1813 39.8799 36.672C40.0506 37.152 40.1359 37.7013 40.1359 38.32C40.1359 38.9387 40.0506 39.4933 39.8799 39.984C39.7199 40.464 39.4959 40.8747 39.2079 41.216C38.9306 41.5467 38.6053 41.8027 38.2319 41.984C37.8693 42.1547 37.4906 42.24 37.0959 42.24C36.6906 42.24 36.3066 42.1547 35.9439 41.984C35.5813 41.8027 35.2559 41.5467 34.9679 41.216C34.6906 40.8747 34.4666 40.464 34.2959 39.984C34.1359 39.4933 34.0559 38.9387 34.0559 38.32C34.0559 37.7013 34.1359 37.152 34.2959 36.672C34.4666 36.1813 34.6906 35.7707 34.9679 35.44C35.2559 35.0987 35.5813 34.8427 35.9439 34.672C36.3066 34.4907 36.6906 34.4 37.0959 34.4ZM45.4916 34.64V34.96H43.6516V40.064C43.6516 40.7147 43.7689 41.1893 44.0036 41.488C44.2382 41.776 44.4942 41.92 44.7716 41.92C45.1342 41.92 45.4382 41.7867 45.6836 41.52C45.9396 41.2427 46.0889 40.8427 46.1316 40.32H46.3716C46.3289 40.928 46.1422 41.4027 45.8116 41.744C45.4916 42.0747 45.0916 42.24 44.6116 42.24C43.9289 42.24 43.3849 42.0427 42.9796 41.648C42.5742 41.2427 42.3716 40.72 42.3716 40.08V34.96H41.0116V34.64H42.3716V32.8L43.6516 31.92V34.64H45.4916ZM50.1428 34.64C49.9615 34.64 49.7748 34.704 49.5828 34.832C49.4015 34.9493 49.2308 35.152 49.0708 35.44C48.9215 35.7173 48.7935 36.0907 48.6868 36.56C48.5908 37.0293 48.5428 37.616 48.5428 38.32C48.5428 39.024 48.5908 39.6107 48.6868 40.08C48.7935 40.5493 48.9215 40.928 49.0708 41.216C49.2308 41.4933 49.4015 41.696 49.5828 41.824C49.7748 41.9413 49.9615 42 50.1428 42C50.3241 42 50.5055 41.9413 50.6868 41.824C50.8788 41.696 51.0495 41.4933 51.1988 41.216C51.3588 40.928 51.4868 40.5493 51.5828 40.08C51.6895 39.6107 51.7428 39.024 51.7428 38.32C51.7428 37.616 51.6895 37.0293 51.5828 36.56C51.4868 36.0907 51.3588 35.7173 51.1988 35.44C51.0495 35.152 50.8788 34.9493 50.6868 34.832C50.5055 34.704 50.3241 34.64 50.1428 34.64ZM50.1428 34.4C50.5375 34.4 50.9161 34.4907 51.2788 34.672C51.6521 34.8427 51.9775 35.0987 52.2548 35.44C52.5428 35.7707 52.7668 36.1813 52.9268 36.672C53.0975 37.152 53.1828 37.7013 53.1828 38.32C53.1828 38.9387 53.0975 39.4933 52.9268 39.984C52.7668 40.464 52.5428 40.8747 52.2548 41.216C51.9775 41.5467 51.6521 41.8027 51.2788 41.984C50.9161 42.1547 50.5375 42.24 50.1428 42.24C49.7375 42.24 49.3535 42.1547 48.9908 41.984C48.6281 41.8027 48.3028 41.5467 48.0148 41.216C47.7375 40.8747 47.5135 40.464 47.3428 39.984C47.1828 39.4933 47.1028 38.9387 47.1028 38.32C47.1028 37.7013 47.1828 37.152 47.3428 36.672C47.5135 36.1813 47.7375 35.7707 48.0148 35.44C48.3028 35.0987 48.6281 34.8427 48.9908 34.672C49.3535 34.4907 49.7375 34.4 50.1428 34.4ZM58.5384 34.64V34.96H56.6984V40.064C56.6984 40.7147 56.8158 41.1893 57.0504 41.488C57.2851 41.776 57.5411 41.92 57.8184 41.92C58.1811 41.92 58.4851 41.7867 58.7304 41.52C58.9864 41.2427 59.1358 40.8427 59.1784 40.32H59.4184C59.3758 40.928 59.1891 41.4027 58.8584 41.744C58.5384 42.0747 58.1384 42.24 57.6584 42.24C56.9758 42.24 56.4318 42.0427 56.0264 41.648C55.6211 41.2427 55.4184 40.72 55.4184 40.08V34.96H54.0584V34.64H55.4184V32.8L56.6984 31.92V34.64H58.5384ZM62.7134 43.36C62.5428 43.8613 62.3774 44.2773 62.2174 44.608C62.0574 44.9493 61.8868 45.2213 61.7054 45.424C61.5348 45.6373 61.3534 45.7867 61.1614 45.872C60.9801 45.9573 60.7774 46 60.5534 46C60.4894 46 60.4308 45.9947 60.3774 45.984C60.3241 45.984 60.2708 45.9787 60.2174 45.968C60.1641 45.9573 60.1161 45.9413 60.0734 45.92L59.8334 44.72C59.8761 44.7413 59.9241 44.7573 59.9774 44.768C60.0308 44.7787 60.0841 44.784 60.1374 44.784C60.1908 44.7947 60.2494 44.8 60.3134 44.8C60.9534 44.8 61.4174 44.6773 61.7054 44.432C62.0041 44.1973 62.2334 43.84 62.3934 43.36L62.8414 42L60.0734 35.04L59.1134 34.8V34.64H62.3134V34.8L61.4334 35.04L63.4654 40.144L65.1134 35.2L64.0734 34.8V34.64H66.4734V34.8L65.4334 35.2L62.7134 43.36ZM67.5866 35.04L66.6266 34.8V34.64H68.8666V35.6C68.9732 35.3867 69.1172 35.1893 69.2986 35.008C69.4479 34.8587 69.6399 34.72 69.8746 34.592C70.1092 34.464 70.3866 34.4 70.7066 34.4C71.0479 34.4 71.3839 34.4907 71.7146 34.672C72.0559 34.8427 72.3546 35.0987 72.6106 35.44C72.8772 35.7707 73.0906 36.1813 73.2506 36.672C73.4212 37.152 73.5066 37.7013 73.5066 38.32C73.5066 38.9387 73.4212 39.4933 73.2506 39.984C73.0906 40.464 72.8719 40.8747 72.5946 41.216C72.3172 41.5467 72.0026 41.8027 71.6506 41.984C71.2986 42.1547 70.9306 42.24 70.5466 42.24C70.2372 42.24 69.9759 42.1973 69.7626 42.112C69.5599 42.0373 69.3892 41.9467 69.2506 41.84C69.0906 41.7227 68.9626 41.5893 68.8666 41.44V45.44L69.8266 45.68V45.84H66.6266V45.68L67.5866 45.44V35.04ZM70.3066 41.92C70.5306 41.92 70.7439 41.8613 70.9466 41.744C71.1599 41.6267 71.3466 41.4293 71.5066 41.152C71.6772 40.864 71.8106 40.4907 71.9066 40.032C72.0132 39.5733 72.0666 39.0027 72.0666 38.32C72.0666 37.6373 72.0132 37.0667 71.9066 36.608C71.8106 36.1493 71.6826 35.7813 71.5226 35.504C71.3732 35.2267 71.2026 35.0293 71.0106 34.912C70.8292 34.784 70.6479 34.72 70.4666 34.72C70.1999 34.72 69.9706 34.7947 69.7786 34.944C69.5866 35.0933 69.4212 35.2587 69.2826 35.44C69.1226 35.6533 68.9839 35.8933 68.8666 36.16V40.96C68.9626 41.1413 69.0799 41.3013 69.2186 41.44C69.3359 41.5573 69.4852 41.6693 69.6666 41.776C69.8479 41.872 70.0612 41.92 70.3066 41.92ZM76.3866 38.32C76.3866 39.0027 76.4346 39.5733 76.5306 40.032C76.6372 40.4907 76.7706 40.864 76.9306 41.152C77.1012 41.4293 77.2879 41.6267 77.4906 41.744C77.7039 41.8613 77.9226 41.92 78.1466 41.92C78.4239 41.92 78.6852 41.8667 78.9306 41.76C79.1759 41.6533 79.3946 41.5093 79.5866 41.328C79.7786 41.1467 79.9332 40.928 80.0506 40.672C80.1786 40.416 80.2639 40.1387 80.3066 39.84H80.5466C80.5039 40.1813 80.4079 40.5013 80.2586 40.8C80.1199 41.088 79.9386 41.3387 79.7146 41.552C79.4906 41.7653 79.2292 41.9307 78.9306 42.048C78.6426 42.176 78.3279 42.24 77.9866 42.24C77.5812 42.24 77.1972 42.1547 76.8346 41.984C76.4719 41.8027 76.1466 41.5467 75.8586 41.216C75.5812 40.8747 75.3572 40.464 75.1866 39.984C75.0266 39.4933 74.9466 38.9387 74.9466 38.32C74.9466 37.68 75.0266 37.1147 75.1866 36.624C75.3466 36.1333 75.5546 35.728 75.8106 35.408C76.0772 35.0773 76.3812 34.8267 76.7226 34.656C77.0746 34.4853 77.4426 34.4 77.8266 34.4C78.2106 34.4 78.5732 34.4853 78.9146 34.656C79.2666 34.8267 79.5706 35.0773 79.8266 35.408C80.0932 35.728 80.3066 36.1333 80.4666 36.624C80.6266 37.1147 80.7066 37.68 80.7066 38.32H76.3866ZM77.8266 34.64C77.6666 34.64 77.5066 34.6933 77.3466 34.8C77.1866 34.896 77.0372 35.072 76.8986 35.328C76.7599 35.584 76.6426 35.9307 76.5466 36.368C76.4612 36.7947 76.4079 37.3387 76.3866 38H79.2666C79.2452 37.3387 79.1866 36.7947 79.0906 36.368C79.0052 35.9307 78.8932 35.584 78.7546 35.328C78.6159 35.072 78.4666 34.896 78.3066 34.8C78.1466 34.6933 77.9866 34.64 77.8266 34.64Z" fill="white"/>
</svg>
