<svg width="100" height="75" viewBox="0 0 100 75" fill="none" xmlns="http://www.w3.org/2000/svg">
<rect width="100" height="75" fill="#17964A"/>
<path d="M23.6426 38.2969H26.4453C27.0833 38.2904 27.6855 38.1927 28.252 38.0039C28.8249 37.8151 29.3262 37.5417 29.7559 37.1836C30.1855 36.8255 30.5241 36.3861 30.7715 35.8652C31.0254 35.3379 31.1523 34.7324 31.1523 34.0488C31.1523 33.3652 31.0254 32.7598 30.7715 32.2324C30.5241 31.7051 30.1855 31.2624 29.7559 30.9043C29.3262 30.5462 28.8249 30.2728 28.252 30.084C27.6855 29.8952 27.0833 29.7943 26.4453 29.7812H21.8359V44H23.6426V38.2969ZM23.6426 36.8125V31.2656H26.4453C26.862 31.2721 27.2461 31.3405 27.5977 31.4707C27.9557 31.6009 28.265 31.7865 28.5254 32.0273C28.7793 32.2682 28.9779 32.5612 29.1211 32.9062C29.2708 33.2513 29.3457 33.6387 29.3457 34.0684C29.3457 34.498 29.2708 34.8822 29.1211 35.2207C28.9779 35.5527 28.776 35.8359 28.5156 36.0703C28.2552 36.3047 27.9492 36.487 27.5977 36.6172C27.2461 36.7409 26.862 36.806 26.4453 36.8125H23.6426ZM40.6055 33.2383C39.8372 33.2383 39.1504 33.4076 38.5449 33.7461C37.946 34.0781 37.4316 34.5339 37.002 35.1133L36.9922 34.8496L36.9141 33.4336H35.1953V44H37.0117V37.2227C37.1289 36.8971 37.2754 36.6042 37.4512 36.3438C37.6335 36.0768 37.8451 35.8522 38.0859 35.6699C38.3529 35.4616 38.6654 35.3053 39.0234 35.2012C39.3815 35.0905 39.7819 35.0352 40.2246 35.0352C40.5697 35.0352 40.8984 35.0547 41.2109 35.0938C41.5299 35.1263 41.8652 35.1816 42.2168 35.2598L42.4609 33.4922C42.2786 33.4141 42.0052 33.3522 41.6406 33.3066C41.2826 33.2611 40.9375 33.2383 40.6055 33.2383ZM45.1855 38.6191V38.834C45.1855 39.5957 45.2962 40.3021 45.5176 40.9531C45.7389 41.6042 46.0579 42.1706 46.4746 42.6523C46.8848 43.1341 47.3861 43.5117 47.9785 43.7852C48.5775 44.0586 49.2513 44.1953 50 44.1953C50.7422 44.1953 51.4095 44.0586 52.002 43.7852C52.5944 43.5117 53.099 43.1341 53.5156 42.6523C53.9258 42.1706 54.2415 41.6042 54.4629 40.9531C54.6842 40.3021 54.7949 39.5957 54.7949 38.834V38.6191C54.7949 37.8574 54.6842 37.151 54.4629 36.5C54.2415 35.8424 53.9258 35.2728 53.5156 34.791C53.099 34.3092 52.5911 33.9316 51.9922 33.6582C51.3997 33.3783 50.7292 33.2383 49.9805 33.2383C49.2383 33.2383 48.571 33.3783 47.9785 33.6582C47.3861 33.9316 46.8848 34.3092 46.4746 34.791C46.0579 35.2728 45.7389 35.8424 45.5176 36.5C45.2962 37.151 45.1855 37.8574 45.1855 38.6191ZM46.9922 38.834V38.6191C46.9922 38.1048 47.054 37.6133 47.1777 37.1445C47.3014 36.6693 47.4902 36.2526 47.7441 35.8945C47.9915 35.5365 48.3008 35.2533 48.6719 35.0449C49.043 34.8301 49.4792 34.7227 49.9805 34.7227C50.4818 34.7227 50.918 34.8301 51.2891 35.0449C51.6667 35.2533 51.9824 35.5365 52.2363 35.8945C52.4837 36.2526 52.6693 36.6693 52.793 37.1445C52.9232 37.6133 52.9883 38.1048 52.9883 38.6191V38.834C52.9883 39.3548 52.9264 39.8529 52.8027 40.3281C52.679 40.7969 52.4935 41.2103 52.2461 41.5684C51.9922 41.9264 51.6764 42.2096 51.2988 42.418C50.9277 42.6263 50.4948 42.7305 50 42.7305C49.4987 42.7305 49.0592 42.6263 48.6816 42.418C48.304 42.2096 47.9915 41.9264 47.7441 41.5684C47.4902 41.2103 47.3014 40.7969 47.1777 40.3281C47.054 39.8529 46.9922 39.3548 46.9922 38.834ZM62.0703 37.3496L59.2773 33.4336H57.1875L61.123 38.6582L57.0801 44H59.1895L62.1094 39.9766L65.0293 44H67.1191L63.0762 38.6582L67.0117 33.4336H64.8926L62.0703 37.3496ZM70.5664 48.2676C71.0417 48.2676 71.4616 48.1797 71.8262 48.0039C72.1908 47.8281 72.5098 47.61 72.7832 47.3496C73.0566 47.0892 73.2878 46.806 73.4766 46.5C73.6719 46.194 73.8314 45.9043 73.9551 45.6309L79.3164 33.4336H77.2949L74.5703 40.2891L74.0723 41.5293L73.6035 40.25L70.7031 33.4336H68.6816L73.2324 43.502L72.5098 44.9082C72.4447 45.0384 72.3535 45.2044 72.2363 45.4062C72.1257 45.6081 71.9922 45.8034 71.8359 45.9922C71.6732 46.181 71.4876 46.3438 71.2793 46.4805C71.0775 46.6172 70.8529 46.6855 70.6055 46.6855C70.5143 46.6855 70.3874 46.679 70.2246 46.666C70.0684 46.6595 69.9089 46.6497 69.7461 46.6367L69.4531 48.1113C69.5703 48.1374 69.7428 48.1699 69.9707 48.209C70.1986 48.248 70.3971 48.2676 70.5664 48.2676Z" fill="white"/>
</svg>
