<svg width="100" height="75" viewBox="0 0 100 75" fill="none" xmlns="http://www.w3.org/2000/svg">
<rect width="100" height="75" fill="#0D0B0B"/>
<path d="M17.3897 42.44V41.784H22.3177C23.043 41.784 23.4057 41.4213 23.4057 40.696V39.384C23.4057 38.776 23.1337 38.4187 22.5897 38.312L19.1497 37.624C17.9764 37.3893 17.3897 36.6 17.3897 35.256V34.408C17.3897 32.776 18.2057 31.96 19.8377 31.96H23.7097L24.4297 32.52V33.176H19.8217C19.0964 33.176 18.7337 33.5387 18.7337 34.264V35.352C18.7337 35.96 19.0057 36.3173 19.5497 36.424L22.9897 37.112C24.163 37.3467 24.7497 38.136 24.7497 39.48V40.552C24.7497 42.184 23.9337 43 22.3017 43H18.1097L17.3897 42.44ZM26.9589 33.176V31.704H28.3029V33.176H26.9589ZM26.9909 43V34.68H28.2709V43H26.9909ZM30.8347 43V34.68H35.3147C36.9147 34.68 37.7147 35.48 37.7147 37.08V43H36.4347V36.92C36.4347 36.1733 36.0614 35.8 35.3147 35.8H32.1147V43H30.8347ZM40.0817 40.6V37.08C40.0817 35.48 40.8817 34.68 42.4817 34.68H46.9617V43.8C46.9617 45.4 46.1617 46.2 44.5617 46.2H41.3617L40.7217 45.72V45.08H44.5617C45.3084 45.08 45.6817 44.7067 45.6817 43.96V43H42.4817C40.8817 43 40.0817 42.2 40.0817 40.6ZM41.3617 40.76C41.3617 41.5067 41.735 41.88 42.4817 41.88H45.6817V35.8H42.4817C41.735 35.8 41.3617 36.1733 41.3617 36.92V40.76ZM49.4582 40.728V31.16H50.7382V40.856C50.7382 41.5813 51.1115 41.9653 51.8582 42.008V43.128C50.2582 43.128 49.4582 42.328 49.4582 40.728ZM53.5504 40.6V37.08C53.5504 35.48 54.3504 34.68 55.9504 34.68H58.0304C59.6304 34.68 60.4304 35.48 60.4304 37.08V39.384H54.8304V40.76C54.8304 41.5067 55.2038 41.88 55.9504 41.88H60.1104V42.52L59.4704 43H55.9504C54.3504 43 53.5504 42.2 53.5504 40.6ZM54.8304 38.264H59.1504V36.92C59.1504 36.1733 58.7771 35.8 58.0304 35.8H55.9504C55.2038 35.8 54.8304 36.1733 54.8304 36.92V38.264ZM62.8019 40.6V31.96H64.0819V34.68H67.1219V35.8H64.0819V40.76C64.0819 41.5067 64.4553 41.88 65.2019 41.88H67.2819V42.52L66.6419 43H65.2019C63.6019 43 62.8019 42.2 62.8019 40.6ZM69.0036 40.6V37.08C69.0036 35.48 69.8036 34.68 71.4036 34.68H73.6436C75.2436 34.68 76.0436 35.48 76.0436 37.08V40.6C76.0436 42.2 75.2436 43 73.6436 43H71.4036C69.8036 43 69.0036 42.2 69.0036 40.6ZM70.2836 40.76C70.2836 41.5067 70.6569 41.88 71.4036 41.88H73.6436C74.3902 41.88 74.7636 41.5067 74.7636 40.76V36.92C74.7636 36.1733 74.3902 35.8 73.6436 35.8H71.4036C70.6569 35.8 70.2836 36.1733 70.2836 36.92V40.76ZM78.4753 43V34.68H82.9553C84.5553 34.68 85.3553 35.48 85.3553 37.08V43H84.0753V36.92C84.0753 36.1733 83.702 35.8 82.9553 35.8H79.7553V43H78.4753Z" fill="white"/>
</svg>
