<svg width="21" height="20" viewBox="0 0 21 20" fill="none" xmlns="http://www.w3.org/2000/svg">
<path d="M17.5667 9.52318C17.9857 12.9805 16.119 15.0949 15.6429 15.6093C15.3952 14.8378 14.6905 14.2854 13.8333 14.2854H12.881V11.4281C12.881 10.9042 12.4524 10.4756 11.9286 10.4756H6.21429V8.57074H8.11905C8.64286 8.57074 9.07143 8.14214 9.07143 7.6183V5.71342H10.9762C12.0238 5.71342 12.881 4.85623 12.881 3.80854V1.38935C11.9762 1.10362 11.0238 0.951229 10.0238 0.951229C4.76667 0.951229 0.5 5.21815 0.5 10.4756C0.5 15.7331 4.76667 20 10.0238 20C15.481 20 20.0333 15.3711 19.5 9.52318H17.5667ZM9.07143 18.0285C5.30952 17.5618 2.40476 14.3616 2.40476 10.4756C2.40476 9.8851 2.48095 9.32316 2.60476 8.77075L7.16667 13.3329V14.2854C7.16667 15.3331 8.02381 16.1902 9.07143 16.1902V18.0285ZM19.5476 2.85611V2.00844C19.5476 1.056 18.9 0.179754 17.9667 0.0273635C16.7667 -0.172649 15.7381 0.751217 15.7381 1.90367V2.85611C15.2143 2.85611 14.7857 3.2847 14.7857 3.80854V6.66586C14.7857 7.1897 15.2143 7.6183 15.7381 7.6183H19.5476C20.0714 7.6183 20.5 7.1897 20.5 6.66586V3.80854C20.5 3.2847 20.0714 2.85611 19.5476 2.85611ZM18.5952 2.85611H16.6905V1.90367C16.6905 1.37983 17.119 0.951229 17.6429 0.951229C18.1667 0.951229 18.5952 1.37983 18.5952 1.90367V2.85611Z" fill="white"/>
</svg>
