<svg width="100" height="75" viewBox="0 0 100 75" fill="none" xmlns="http://www.w3.org/2000/svg">
<rect width="100" height="75" fill="#5C18CA"/>
<path d="M35.585 32.5918C35.5615 32.5332 35.5557 32.4922 35.5674 32.4688C35.5791 32.4453 35.585 32.3984 35.585 32.3281C35.4561 32.2578 35.3271 32.2402 35.1982 32.2754C35.0811 32.3105 34.958 32.334 34.8291 32.3457C34.7002 32.3457 34.5479 32.3281 34.3721 32.293C34.208 32.2578 34.0322 32.2227 33.8447 32.1875C33.6689 32.1523 33.4873 32.1289 33.2998 32.1172C33.1123 32.0938 32.9307 32.0996 32.7549 32.1348C32.6611 32.1582 32.5264 32.2168 32.3506 32.3105C32.1748 32.3926 32.0459 32.457 31.9639 32.5039C31.6943 32.668 31.501 32.9082 31.3838 33.2246C31.2666 33.541 31.1611 33.8633 31.0674 34.1914C31.0205 34.2383 30.9678 34.2793 30.9092 34.3145C30.8623 34.3496 30.8271 34.3965 30.8037 34.4551C30.8037 34.5371 30.833 34.6016 30.8916 34.6484C30.9619 34.6953 31.0088 34.7539 31.0322 34.8242C31.1025 35 31.167 35.1758 31.2256 35.3516C31.2842 35.5273 31.3604 35.6914 31.4541 35.8438C31.6064 36.0781 31.8174 36.2656 32.0869 36.4062C32.3682 36.5469 32.6494 36.6816 32.9307 36.8105C33.1299 36.916 33.2998 36.998 33.4404 37.0566C33.5928 37.1035 33.7686 37.1738 33.9678 37.2676C34.085 37.3262 34.1904 37.3672 34.2842 37.3906C34.3779 37.4141 34.4658 37.4434 34.5479 37.4785C34.6299 37.5137 34.7061 37.5605 34.7764 37.6191C34.8467 37.666 34.9229 37.7363 35.0049 37.8301C35.0752 37.9004 35.1396 37.9707 35.1982 38.041C35.2686 38.1113 35.333 38.1758 35.3916 38.2344C35.5205 38.3633 35.6084 38.4863 35.6553 38.6035C35.7139 38.709 35.8252 38.8027 35.9893 38.8848C36.0127 39.002 36.0654 39.1016 36.1475 39.1836C36.2295 39.2539 36.2822 39.3359 36.3057 39.4297C36.3291 39.5586 36.3115 39.6699 36.2529 39.7637C36.1943 39.8574 36.1709 39.9629 36.1826 40.0801C36.1943 40.1855 36.2295 40.2734 36.2881 40.3438C36.3584 40.4023 36.4053 40.4785 36.4287 40.5723C36.4521 40.666 36.4521 40.7715 36.4287 40.8887C36.4053 41.0059 36.3701 41.123 36.3232 41.2402C36.2646 41.416 36.2178 41.5859 36.1826 41.75C36.1592 41.9141 36.124 42.0723 36.0771 42.2246C36.0303 42.377 35.9658 42.5234 35.8838 42.6641C35.8018 42.793 35.6787 42.9102 35.5146 43.0156C35.4678 43.0391 35.415 43.0625 35.3564 43.0859C35.3096 43.0977 35.2627 43.1152 35.2158 43.1387C35.1572 43.1621 35.1104 43.1914 35.0752 43.2266C35.04 43.2617 35.0049 43.291 34.9697 43.3145C34.9229 43.3379 34.8701 43.3555 34.8115 43.3672C34.7646 43.3789 34.7178 43.3965 34.6709 43.4199C34.6006 43.4551 34.5361 43.502 34.4775 43.5605C34.4189 43.6074 34.3545 43.6426 34.2842 43.666C34.167 43.7246 34.0791 43.8066 34.0205 43.9121C33.9619 44.0059 33.8564 44.082 33.7041 44.1406C33.5752 44.1992 33.4697 44.2754 33.3877 44.3691C33.3057 44.4629 33.2119 44.5215 33.1064 44.5449C32.9307 44.5801 32.749 44.5742 32.5615 44.5273C32.374 44.4805 32.1865 44.457 31.999 44.457C31.8115 44.4453 31.6182 44.4512 31.4189 44.4746C31.2197 44.5098 31.0205 44.5332 30.8213 44.5449C30.6104 44.5684 30.3818 44.5918 30.1357 44.6152C29.9014 44.6504 29.7021 44.6504 29.5381 44.6152C29.3975 44.5918 29.2158 44.5508 28.9932 44.4922C28.7705 44.4453 28.5479 44.3867 28.3252 44.3164C28.1025 44.2578 27.8916 44.1875 27.6924 44.1055C27.5049 44.0352 27.3701 43.959 27.2881 43.877C27.2295 43.8184 27.1768 43.748 27.1299 43.666C27.0947 43.5723 27.0479 43.4961 26.9893 43.4375C26.8604 43.3086 26.708 43.1855 26.5322 43.0684C26.3564 42.9395 26.2275 42.8047 26.1455 42.6641C26.1104 42.5938 26.0869 42.5234 26.0752 42.4531C26.0518 42.3711 26.0283 42.2891 26.0049 42.207C25.9814 42.125 25.9463 42.0488 25.8994 41.9785C25.8525 41.9082 25.8232 41.8438 25.8115 41.7852C25.7998 41.7148 25.8115 41.6562 25.8467 41.6094C25.8818 41.5508 25.9053 41.4922 25.917 41.4336C25.9404 41.3047 25.958 41.1758 25.9697 41.0469C25.9697 40.918 26.0166 40.8008 26.1104 40.6953C26.2158 40.6719 26.3623 40.6133 26.5498 40.5195C26.7373 40.4258 26.9131 40.3555 27.0771 40.3086C27.2529 40.25 27.3877 40.2324 27.4814 40.2559C27.5869 40.2793 27.5986 40.3965 27.5166 40.6074C27.6338 40.6777 27.7158 40.7715 27.7627 40.8887C27.8096 40.9941 27.8389 41.1113 27.8506 41.2402C27.874 41.3574 27.8916 41.4863 27.9033 41.627C27.9268 41.7676 27.9678 41.9023 28.0264 42.0312C28.085 42.1719 28.2021 42.2891 28.3779 42.3828C28.5654 42.4766 28.7061 42.5762 28.7998 42.6816C28.9756 42.6699 29.1396 42.6875 29.292 42.7344C29.4443 42.7812 29.5908 42.834 29.7314 42.8926C29.8838 42.9395 30.0361 42.9863 30.1885 43.0332C30.3525 43.0684 30.5283 43.0742 30.7158 43.0508C30.7861 43.0391 30.8564 42.9805 30.9268 42.875C31.0088 42.7578 31.085 42.6934 31.1553 42.6816C31.46 42.6113 31.7412 42.5703 31.999 42.5586C32.2568 42.5469 32.4854 42.4531 32.6846 42.2773C32.8369 42.1484 32.9541 42.0254 33.0361 41.9082C33.1299 41.791 33.1826 41.6504 33.1943 41.4863C33.2061 41.2988 33.1826 41.1523 33.124 41.0469C33.0771 40.9297 33.0068 40.8359 32.9131 40.7656C32.8193 40.6953 32.708 40.6309 32.5791 40.5723C32.4619 40.5137 32.3447 40.4375 32.2275 40.3438C32.1572 40.2969 32.0869 40.2441 32.0166 40.1855C31.958 40.127 31.8994 40.0859 31.8408 40.0625C31.6064 39.957 31.3486 39.8691 31.0674 39.7988C30.7979 39.7168 30.5459 39.623 30.3115 39.5176C30.1943 39.459 30.0947 39.3535 30.0127 39.2012C29.9307 39.0488 29.8252 38.9609 29.6963 38.9375C29.6377 38.9141 29.5732 38.9141 29.5029 38.9375C29.4326 38.9609 29.3564 38.9668 29.2744 38.9551C29.1807 38.9434 29.0518 38.8906 28.8877 38.7969C28.7354 38.7031 28.6299 38.627 28.5713 38.5684C28.5361 38.5332 28.5068 38.4863 28.4834 38.4277C28.46 38.3574 28.4248 38.2988 28.3779 38.252C28.2959 38.1465 28.208 38.0527 28.1143 37.9707C28.0205 37.8887 27.9561 37.8008 27.9209 37.707C27.8975 37.6367 27.8799 37.5723 27.8682 37.5137C27.8682 37.4551 27.8564 37.3965 27.833 37.3379C27.8096 37.291 27.7803 37.25 27.7451 37.2148C27.71 37.1797 27.6748 37.1387 27.6396 37.0918C27.6162 37.0332 27.6045 36.9746 27.6045 36.916C27.6045 36.8457 27.5928 36.7754 27.5693 36.7051C27.499 36.4941 27.4287 36.3125 27.3584 36.1602C27.2881 35.9961 27.2646 35.7734 27.2881 35.4922C27.2998 35.3047 27.2881 35.1582 27.2529 35.0527C27.2295 34.9473 27.2354 34.8301 27.2705 34.7012C27.2939 34.6074 27.3174 34.5254 27.3408 34.4551C27.3643 34.373 27.3936 34.2852 27.4287 34.1914C27.4521 34.1094 27.4639 34.0273 27.4639 33.9453C27.4756 33.8633 27.4932 33.793 27.5166 33.7344C27.5518 33.6758 27.5986 33.6113 27.6572 33.541C27.7275 33.4707 27.7861 33.4004 27.833 33.3301C27.9619 33.1309 28.0908 32.9316 28.2197 32.7324C28.3486 32.5215 28.5186 32.3457 28.7295 32.2051C28.8232 32.0176 28.9932 31.8301 29.2393 31.6426C29.4854 31.4434 29.7314 31.291 29.9775 31.1855C30.2471 31.0566 30.5459 30.9219 30.874 30.7812C31.2021 30.6289 31.4834 30.5293 31.7178 30.4824C31.8936 30.4473 32.0635 30.4297 32.2275 30.4297C32.3916 30.4297 32.5674 30.4297 32.7549 30.4297C33.0479 30.418 33.2764 30.418 33.4404 30.4297C33.6045 30.4414 33.8037 30.4648 34.0381 30.5C34.1318 30.5234 34.2314 30.541 34.3369 30.5527C34.4541 30.5645 34.5537 30.582 34.6357 30.6055C34.6943 30.6289 34.7412 30.6582 34.7764 30.6934C34.8115 30.7168 34.8701 30.7344 34.9521 30.7461C35.0811 30.7578 35.21 30.7461 35.3389 30.7109C35.4795 30.6641 35.6143 30.6465 35.7432 30.6582C35.9775 30.6816 36.165 30.7402 36.3057 30.834C36.458 30.9277 36.6279 31.0273 36.8154 31.1328C36.9209 31.1914 37.0264 31.2441 37.1318 31.291C37.2373 31.3379 37.3193 31.3906 37.3779 31.4492C37.4482 31.5195 37.5186 31.6191 37.5889 31.748C37.6592 31.877 37.7236 32.0176 37.7822 32.1699C37.8408 32.3105 37.8877 32.457 37.9229 32.6094C37.9697 32.7617 37.9932 32.8906 37.9932 32.9961C37.9932 33.0547 37.9873 33.1074 37.9756 33.1543C37.9639 33.2012 37.958 33.2539 37.958 33.3125C37.9697 33.4062 38.0049 33.5117 38.0635 33.6289C38.1221 33.7461 38.1396 33.8691 38.1162 33.998C38.1045 34.0918 38.0576 34.168 37.9756 34.2266C37.9053 34.2734 37.8408 34.3379 37.7822 34.4199C37.7354 34.4902 37.7002 34.5723 37.6768 34.666C37.6533 34.748 37.6182 34.8184 37.5713 34.877C37.5127 34.959 37.4541 35.0293 37.3955 35.0879C37.3486 35.1465 37.3135 35.2168 37.29 35.2988C37.1729 35.4277 36.9912 35.5449 36.7451 35.6504C36.5107 35.7441 36.2471 35.8203 35.9541 35.8789C35.6611 35.9375 35.3623 35.9668 35.0576 35.9668C34.7646 35.9668 34.5068 35.9316 34.2842 35.8613C34.2256 35.8379 34.167 35.8027 34.1084 35.7559C34.0615 35.709 34.0029 35.6738 33.9326 35.6504C33.8623 35.627 33.7861 35.6094 33.7041 35.5977C33.6338 35.5859 33.5752 35.5625 33.5283 35.5273C33.458 35.4805 33.3525 35.375 33.2119 35.2109C33.083 35.0352 33.0068 34.9004 32.9834 34.8066C32.9365 34.7246 32.9131 34.6367 32.9131 34.543C32.9248 34.4375 32.9365 34.3262 32.9482 34.209C32.9717 34.1035 32.9893 33.9746 33.001 33.8223C33.0244 33.6582 33.0713 33.5469 33.1416 33.4883C33.165 33.4648 33.2178 33.4355 33.2998 33.4004C33.3818 33.3652 33.4697 33.3652 33.5635 33.4004C33.6572 33.4238 33.7393 33.4883 33.8096 33.5938C33.8799 33.6992 33.9502 33.8164 34.0205 33.9453C34.0908 34.0625 34.1611 34.1797 34.2314 34.2969C34.3135 34.4023 34.4014 34.4785 34.4951 34.5254C34.6357 34.6074 34.8057 34.6543 35.0049 34.666C35.2158 34.666 35.3857 34.6367 35.5146 34.5781C35.7373 34.5078 35.9014 34.3906 36.0068 34.2266C36.124 34.0625 36.1826 33.8809 36.1826 33.6816C36.1826 33.4824 36.1299 33.2891 36.0244 33.1016C35.9307 32.9023 35.7842 32.7324 35.585 32.5918ZM47.5732 34.8066C47.5498 34.9941 47.4795 35.1113 47.3623 35.1582C47.2568 35.2051 47.1455 35.2578 47.0283 35.3164C46.9463 35.375 46.8877 35.4512 46.8525 35.5449C46.8174 35.6387 46.7705 35.709 46.7119 35.7559C46.6533 35.8145 46.5654 35.8613 46.4482 35.8965C46.3428 35.9199 46.2549 35.9434 46.1846 35.9668C45.9854 36.0254 45.7744 36.0547 45.5518 36.0547C45.3408 36.0547 45.1533 36.0664 44.9893 36.0898C44.8955 36.1133 44.8018 36.166 44.708 36.248C44.6143 36.3301 44.5146 36.3945 44.4092 36.4414C44.3037 36.4766 44.2217 36.5059 44.1631 36.5293C44.1045 36.5527 44.0518 36.582 44.0049 36.6172C43.9697 36.6523 43.9346 36.6992 43.8994 36.7578C43.8643 36.8047 43.8174 36.875 43.7588 36.9688C43.7002 37.0742 43.6709 37.2266 43.6709 37.4258C43.6709 37.625 43.6533 37.7891 43.6182 37.918C43.583 38.0234 43.542 38.1465 43.4951 38.2871C43.46 38.4277 43.4189 38.5801 43.3721 38.7441C43.3486 38.8379 43.3369 38.9434 43.3369 39.0605C43.3369 39.166 43.3252 39.2656 43.3018 39.3594C43.2666 39.4766 43.208 39.5645 43.126 39.623C43.0557 39.6816 43.0029 39.7871 42.9678 39.9395C42.9443 40.0098 42.9326 40.0859 42.9326 40.168C42.9443 40.2383 42.9443 40.3086 42.9326 40.3789C42.8857 40.6602 42.8271 40.9648 42.7568 41.293C42.6982 41.6211 42.6396 41.9434 42.5811 42.2598C42.5225 42.5293 42.458 42.7871 42.3877 43.0332C42.3291 43.2793 42.2529 43.5078 42.1592 43.7188C42.0654 43.707 41.9717 43.7363 41.8779 43.8066C41.7842 43.8652 41.6904 43.9062 41.5967 43.9297C41.5146 43.9531 41.4326 43.9648 41.3506 43.9648C41.2803 43.9648 41.21 43.9941 41.1396 44.0527C41.0576 44.1348 40.9521 44.2402 40.8232 44.3691C40.6943 44.5098 40.583 44.5918 40.4893 44.6152C40.4072 44.6387 40.3311 44.6387 40.2607 44.6152C40.2021 44.5918 40.1436 44.5742 40.085 44.5625C39.9912 44.5625 39.8975 44.5625 39.8037 44.5625C39.7217 44.5742 39.6221 44.5742 39.5049 44.5625C39.458 44.4453 39.4404 44.3164 39.4521 44.1758C39.4639 44.0469 39.4873 43.918 39.5225 43.7891C39.5693 43.6602 39.6162 43.5371 39.6631 43.4199C39.7217 43.291 39.7627 43.168 39.7861 43.0508C39.8096 42.9688 39.8213 42.8809 39.8213 42.7871C39.833 42.6934 39.8564 42.5996 39.8916 42.5059C39.9268 42.4004 39.9795 42.3066 40.0498 42.2246C40.1318 42.1309 40.1904 42.0254 40.2256 41.9082C40.2725 41.7793 40.3311 41.627 40.4014 41.4512C40.4717 41.2754 40.5127 41.1289 40.5244 41.0117C40.5479 40.8711 40.542 40.7363 40.5068 40.6074C40.4834 40.4785 40.4951 40.3379 40.542 40.1855C40.5654 40.1152 40.5947 40.0566 40.6299 40.0098C40.6768 39.9512 40.7119 39.875 40.7354 39.7812C40.7705 39.6523 40.7939 39.5176 40.8057 39.377C40.8174 39.2246 40.835 39.0781 40.8584 38.9375C40.8818 38.8086 40.9053 38.6855 40.9287 38.5684C40.9521 38.4395 40.9814 38.3105 41.0166 38.1816C41.0518 38.0293 41.0869 37.8887 41.1221 37.7598C41.1689 37.6191 41.2041 37.4844 41.2275 37.3555C41.2627 37.2266 41.2803 37.1035 41.2803 36.9863C41.2803 36.8574 41.2451 36.7227 41.1748 36.582C41.1045 36.4531 41.0107 36.3594 40.8936 36.3008C40.7764 36.2422 40.6475 36.207 40.5068 36.1953C40.3662 36.1836 40.2139 36.1836 40.0498 36.1953C39.8857 36.207 39.7275 36.2129 39.5752 36.2129C39.5166 36.1777 39.4639 36.1133 39.417 36.0195C39.3701 35.9258 39.3057 35.8613 39.2236 35.8262C39.083 35.7793 38.9248 35.7559 38.749 35.7559C38.585 35.7559 38.4619 35.6914 38.3799 35.5625C38.3096 35.3867 38.3037 35.2168 38.3623 35.0527C38.4326 34.8887 38.5146 34.7715 38.6084 34.7012C39.042 34.6309 39.4932 34.6367 39.9619 34.7188C40.4307 34.7891 40.8994 34.8184 41.3682 34.8066C41.5557 34.7949 41.7432 34.7598 41.9307 34.7012C42.1182 34.6426 42.3115 34.6426 42.5107 34.7012C42.5693 34.7246 42.6689 34.7656 42.8096 34.8242C42.9619 34.8711 43.0674 34.9062 43.126 34.9297C43.1846 34.9414 43.2432 34.9414 43.3018 34.9297C43.3604 34.918 43.4189 34.918 43.4775 34.9297C43.5713 34.9297 43.6592 34.9473 43.7412 34.9824C43.835 35.0059 43.9287 35.0176 44.0225 35.0176C44.1396 35.0176 44.2217 35.0176 44.2686 35.0176C44.3271 35.0059 44.374 34.9941 44.4092 34.9824C44.4561 34.9707 44.5029 34.959 44.5498 34.9473C44.5967 34.9238 44.6729 34.9062 44.7783 34.8945C44.8721 34.8828 44.9658 34.8887 45.0596 34.9121C45.1533 34.9355 45.2471 34.9473 45.3408 34.9473C45.5986 34.959 45.8447 34.9297 46.0791 34.8594C46.3252 34.7773 46.5654 34.7246 46.7998 34.7012C46.9287 34.6895 47.0576 34.6895 47.1865 34.7012C47.3271 34.7012 47.4561 34.7363 47.5732 34.8066ZM49.542 35.9844C49.7646 35.832 49.958 35.6562 50.1221 35.457C50.2861 35.2578 50.4443 35.0586 50.5967 34.8594C50.6904 34.8711 50.7725 34.8535 50.8428 34.8066C50.9131 34.7598 50.9893 34.7246 51.0713 34.7012C51.2354 34.6543 51.3994 34.6602 51.5635 34.7188C51.7393 34.7656 51.9092 34.7832 52.0732 34.7715C52.2725 34.748 52.46 34.6953 52.6357 34.6133C52.8232 34.5312 53.04 34.4902 53.2861 34.4902C53.3682 34.4902 53.4443 34.5195 53.5146 34.5781C53.585 34.625 53.6553 34.6543 53.7256 34.666C53.8193 34.6895 53.9014 34.6777 53.9717 34.6309C54.0537 34.584 54.1416 34.5605 54.2354 34.5605C54.3994 34.5605 54.5225 34.6133 54.6045 34.7188C54.6982 34.8242 54.8037 34.9297 54.9209 35.0352C54.9795 35.3047 54.9854 35.5684 54.9385 35.8262C54.8916 36.084 54.8799 36.3477 54.9033 36.6172C54.9268 36.793 54.9502 36.9629 54.9736 37.127C55.0088 37.291 55.0264 37.4609 55.0264 37.6367C55.0381 37.7891 55.0264 37.9531 54.9912 38.1289C54.9678 38.293 54.9619 38.457 54.9736 38.6211C54.9854 38.6797 55.0029 38.7383 55.0264 38.7969C55.0498 38.8555 55.0557 38.9141 55.0439 38.9727C55.0205 39.1016 54.9678 39.2012 54.8857 39.2715C54.8037 39.3418 54.7568 39.4355 54.7451 39.5527C54.7217 39.7285 54.7568 39.8926 54.8506 40.0449C54.9561 40.1973 55.0205 40.3555 55.0439 40.5195C55.0557 40.5898 55.0498 40.666 55.0264 40.748C55.0029 40.8301 54.9912 40.9062 54.9912 40.9766C54.9678 41.2344 54.9678 41.5215 54.9912 41.8379C55.0264 42.1543 55.0498 42.4473 55.0615 42.7168C55.0615 42.8105 55.0674 42.9043 55.0791 42.998C55.1025 43.0918 55.1025 43.168 55.0791 43.2266C55.0674 43.2852 55.0381 43.332 54.9912 43.3672C54.9561 43.4023 54.9268 43.4434 54.9033 43.4902C54.8916 43.5488 54.8916 43.6309 54.9033 43.7363C54.9268 43.8418 54.9385 43.9414 54.9385 44.0352C54.9385 44.1172 54.9326 44.1934 54.9209 44.2637C54.9092 44.3457 54.9033 44.416 54.9033 44.4746C54.915 44.5098 54.9268 44.5449 54.9385 44.5801C54.9619 44.627 54.9678 44.668 54.9561 44.7031C54.9326 44.8086 54.8506 44.9199 54.71 45.0371C54.5811 45.166 54.4463 45.2246 54.3057 45.2129C54.2354 45.2012 54.1299 45.1426 53.9893 45.0371C53.8604 44.9434 53.7666 44.8672 53.708 44.8086C53.6025 44.6797 53.5381 44.5156 53.5146 44.3164C53.4912 44.1172 53.4385 43.9355 53.3564 43.7715C53.3213 43.7129 53.2686 43.6602 53.1982 43.6133C53.1396 43.5547 53.0869 43.4902 53.04 43.4199C52.9697 43.291 52.9229 43.1621 52.8994 43.0332C52.876 42.8926 52.8584 42.7578 52.8467 42.6289C52.8467 42.4883 52.8408 42.3535 52.8291 42.2246C52.8174 42.084 52.7881 41.9434 52.7412 41.8027C52.7178 41.7559 52.6826 41.7148 52.6357 41.6797C52.5889 41.6445 52.5479 41.5977 52.5127 41.5391C52.4424 41.4219 52.3955 41.3223 52.3721 41.2402C52.3486 41.1582 52.2725 41.0938 52.1436 41.0469C51.7334 41.0469 51.3174 41.0352 50.8955 41.0117C50.4854 40.9883 50.0811 41 49.6826 41.0469C49.5889 41.0586 49.5068 41.082 49.4365 41.1172C49.3662 41.1406 49.2842 41.1582 49.1904 41.1699C49.1436 41.1699 49.0967 41.1641 49.0498 41.1523C49.0029 41.1406 48.9619 41.1348 48.9268 41.1348C48.7627 41.1582 48.6045 41.2344 48.4521 41.3633C48.2998 41.4805 48.1826 41.5977 48.1006 41.7148C48.0537 41.7852 48.0244 41.873 48.0127 41.9785C48.0127 42.0723 47.9951 42.166 47.96 42.2598C47.9248 42.3535 47.8662 42.4414 47.7842 42.5234C47.7021 42.5938 47.6729 42.6875 47.6963 42.8047C47.5674 42.8984 47.4561 43.0156 47.3623 43.1562C47.2803 43.2969 47.1982 43.4434 47.1162 43.5957C47.0342 43.7363 46.9404 43.8711 46.835 44C46.7412 44.1289 46.624 44.2227 46.4834 44.2812C46.4248 44.3047 46.3662 44.334 46.3076 44.3691C46.2607 44.4043 46.208 44.4219 46.1494 44.4219C46.0908 44.4102 46.0557 44.3926 46.0439 44.3691C46.0439 44.3457 46.0088 44.3105 45.9385 44.2637C45.8682 44.2168 45.7861 44.1641 45.6924 44.1055C45.5869 44.0469 45.4873 43.9824 45.3936 43.9121C45.2998 43.8418 45.2178 43.7715 45.1475 43.7012C45.0654 43.6191 45.0068 43.543 44.9717 43.4727C44.8779 43.2734 44.8604 43.1328 44.9189 43.0508C44.9775 42.957 45.0537 42.8457 45.1475 42.7168C45.2764 42.5293 45.4229 42.3184 45.5869 42.084C45.751 41.8496 45.8975 41.627 46.0264 41.416C46.0967 41.2988 46.1553 41.1875 46.2021 41.082C46.2607 40.9766 46.3311 40.877 46.4131 40.7832C46.5068 40.6543 46.624 40.5488 46.7646 40.4668C46.917 40.3848 47.0225 40.2793 47.0811 40.1504C47.1045 40.0918 47.1162 40.0332 47.1162 39.9746C47.1162 39.9043 47.1279 39.834 47.1514 39.7637C47.2451 39.5293 47.3916 39.3184 47.5908 39.1309C47.79 38.9434 47.9424 38.7324 48.0479 38.498C48.0713 38.4395 48.083 38.3867 48.083 38.3398C48.0947 38.2812 48.1123 38.2227 48.1357 38.1641C48.3232 37.7305 48.5518 37.3438 48.8213 37.0039C49.1025 36.6641 49.3428 36.3242 49.542 35.9844ZM52.0029 35.9316C51.8623 36.0371 51.7393 36.1602 51.6338 36.3008C51.54 36.4297 51.4111 36.5293 51.2471 36.5996C51.2002 36.7051 51.1416 36.8047 51.0713 36.8984C51.0127 36.9922 50.9307 37.0684 50.8252 37.127C50.79 37.3145 50.7197 37.4785 50.6143 37.6191C50.5088 37.748 50.4092 37.877 50.3154 38.0059C50.2686 38.0527 50.2275 38.1055 50.1924 38.1641C50.1572 38.2109 50.1162 38.2637 50.0693 38.3223C50.0107 38.3809 49.9521 38.4277 49.8936 38.4629C49.835 38.4863 49.7822 38.5215 49.7354 38.5684C49.665 38.6621 49.5889 38.791 49.5068 38.9551C49.4248 39.1191 49.3486 39.2539 49.2783 39.3594C49.2197 39.418 49.1611 39.4766 49.1025 39.5352C49.0439 39.5938 49.0264 39.6699 49.0498 39.7637C49.085 39.8574 49.1553 39.9219 49.2607 39.957C49.3662 39.9805 49.4834 39.998 49.6123 40.0098C49.7529 40.0098 49.8877 40.0039 50.0166 39.9922C50.1455 39.9805 50.251 39.9746 50.333 39.9746C50.4971 39.9746 50.6611 39.9805 50.8252 39.9922C51.001 39.9922 51.165 39.9863 51.3174 39.9746C51.4814 39.9629 51.6221 39.9336 51.7393 39.8867C51.8682 39.8398 51.9678 39.7695 52.0381 39.6758C52.1553 39.3008 52.1846 38.9258 52.126 38.5508C52.0674 38.1641 52.0146 37.7832 51.9678 37.4082C51.9443 37.3027 51.9268 37.1855 51.915 37.0566C51.9033 36.9277 51.9033 36.8105 51.915 36.7051C51.9268 36.5879 51.9619 36.4766 52.0205 36.3711C52.0908 36.2539 52.1025 36.1191 52.0557 35.9668L52.0029 35.9316ZM66.0654 34.8066C66.042 34.9941 65.9717 35.1113 65.8545 35.1582C65.749 35.2051 65.6377 35.2578 65.5205 35.3164C65.4385 35.375 65.3799 35.4512 65.3447 35.5449C65.3096 35.6387 65.2627 35.709 65.2041 35.7559C65.1455 35.8145 65.0576 35.8613 64.9404 35.8965C64.835 35.9199 64.7471 35.9434 64.6768 35.9668C64.4775 36.0254 64.2666 36.0547 64.0439 36.0547C63.833 36.0547 63.6455 36.0664 63.4814 36.0898C63.3877 36.1133 63.2939 36.166 63.2002 36.248C63.1064 36.3301 63.0068 36.3945 62.9014 36.4414C62.7959 36.4766 62.7139 36.5059 62.6553 36.5293C62.5967 36.5527 62.5439 36.582 62.4971 36.6172C62.4619 36.6523 62.4268 36.6992 62.3916 36.7578C62.3564 36.8047 62.3096 36.875 62.251 36.9688C62.1924 37.0742 62.1631 37.2266 62.1631 37.4258C62.1631 37.625 62.1455 37.7891 62.1104 37.918C62.0752 38.0234 62.0342 38.1465 61.9873 38.2871C61.9521 38.4277 61.9111 38.5801 61.8643 38.7441C61.8408 38.8379 61.8291 38.9434 61.8291 39.0605C61.8291 39.166 61.8174 39.2656 61.7939 39.3594C61.7588 39.4766 61.7002 39.5645 61.6182 39.623C61.5479 39.6816 61.4951 39.7871 61.46 39.9395C61.4365 40.0098 61.4248 40.0859 61.4248 40.168C61.4365 40.2383 61.4365 40.3086 61.4248 40.3789C61.3779 40.6602 61.3193 40.9648 61.249 41.293C61.1904 41.6211 61.1318 41.9434 61.0732 42.2598C61.0146 42.5293 60.9502 42.7871 60.8799 43.0332C60.8213 43.2793 60.7451 43.5078 60.6514 43.7188C60.5576 43.707 60.4639 43.7363 60.3701 43.8066C60.2764 43.8652 60.1826 43.9062 60.0889 43.9297C60.0068 43.9531 59.9248 43.9648 59.8428 43.9648C59.7725 43.9648 59.7021 43.9941 59.6318 44.0527C59.5498 44.1348 59.4443 44.2402 59.3154 44.3691C59.1865 44.5098 59.0752 44.5918 58.9814 44.6152C58.8994 44.6387 58.8232 44.6387 58.7529 44.6152C58.6943 44.5918 58.6357 44.5742 58.5771 44.5625C58.4834 44.5625 58.3896 44.5625 58.2959 44.5625C58.2139 44.5742 58.1143 44.5742 57.9971 44.5625C57.9502 44.4453 57.9326 44.3164 57.9443 44.1758C57.9561 44.0469 57.9795 43.918 58.0146 43.7891C58.0615 43.6602 58.1084 43.5371 58.1553 43.4199C58.2139 43.291 58.2549 43.168 58.2783 43.0508C58.3018 42.9688 58.3135 42.8809 58.3135 42.7871C58.3252 42.6934 58.3486 42.5996 58.3838 42.5059C58.4189 42.4004 58.4717 42.3066 58.542 42.2246C58.624 42.1309 58.6826 42.0254 58.7178 41.9082C58.7646 41.7793 58.8232 41.627 58.8936 41.4512C58.9639 41.2754 59.0049 41.1289 59.0166 41.0117C59.04 40.8711 59.0342 40.7363 58.999 40.6074C58.9756 40.4785 58.9873 40.3379 59.0342 40.1855C59.0576 40.1152 59.0869 40.0566 59.1221 40.0098C59.1689 39.9512 59.2041 39.875 59.2275 39.7812C59.2627 39.6523 59.2861 39.5176 59.2979 39.377C59.3096 39.2246 59.3271 39.0781 59.3506 38.9375C59.374 38.8086 59.3975 38.6855 59.4209 38.5684C59.4443 38.4395 59.4736 38.3105 59.5088 38.1816C59.5439 38.0293 59.5791 37.8887 59.6143 37.7598C59.6611 37.6191 59.6963 37.4844 59.7197 37.3555C59.7549 37.2266 59.7725 37.1035 59.7725 36.9863C59.7725 36.8574 59.7373 36.7227 59.667 36.582C59.5967 36.4531 59.5029 36.3594 59.3857 36.3008C59.2686 36.2422 59.1396 36.207 58.999 36.1953C58.8584 36.1836 58.7061 36.1836 58.542 36.1953C58.3779 36.207 58.2197 36.2129 58.0674 36.2129C58.0088 36.1777 57.9561 36.1133 57.9092 36.0195C57.8623 35.9258 57.7979 35.8613 57.7158 35.8262C57.5752 35.7793 57.417 35.7559 57.2412 35.7559C57.0771 35.7559 56.9541 35.6914 56.8721 35.5625C56.8018 35.3867 56.7959 35.2168 56.8545 35.0527C56.9248 34.8887 57.0068 34.7715 57.1006 34.7012C57.5342 34.6309 57.9854 34.6367 58.4541 34.7188C58.9229 34.7891 59.3916 34.8184 59.8604 34.8066C60.0479 34.7949 60.2354 34.7598 60.4229 34.7012C60.6104 34.6426 60.8037 34.6426 61.0029 34.7012C61.0615 34.7246 61.1611 34.7656 61.3018 34.8242C61.4541 34.8711 61.5596 34.9062 61.6182 34.9297C61.6768 34.9414 61.7354 34.9414 61.7939 34.9297C61.8525 34.918 61.9111 34.918 61.9697 34.9297C62.0635 34.9297 62.1514 34.9473 62.2334 34.9824C62.3271 35.0059 62.4209 35.0176 62.5146 35.0176C62.6318 35.0176 62.7139 35.0176 62.7607 35.0176C62.8193 35.0059 62.8662 34.9941 62.9014 34.9824C62.9482 34.9707 62.9951 34.959 63.042 34.9473C63.0889 34.9238 63.165 34.9062 63.2705 34.8945C63.3643 34.8828 63.458 34.8887 63.5518 34.9121C63.6455 34.9355 63.7393 34.9473 63.833 34.9473C64.0908 34.959 64.3369 34.9297 64.5713 34.8594C64.8174 34.7773 65.0576 34.7246 65.292 34.7012C65.4209 34.6895 65.5498 34.6895 65.6787 34.7012C65.8193 34.7012 65.9482 34.7363 66.0654 34.8066ZM73.5361 35.791C73.2197 35.9434 72.9033 36.0195 72.5869 36.0195C72.2705 36.0195 71.9189 36.0078 71.5322 35.9844C71.4268 35.9844 71.3096 35.9902 71.1807 36.002C71.0635 36.0137 70.9521 36.0254 70.8467 36.0371C70.2959 36.0957 69.833 36.3066 69.458 36.6699C69.083 37.0215 68.8076 37.4668 68.6318 38.0059C68.5732 38.2051 68.5264 38.3867 68.4912 38.5508C68.4561 38.7148 68.5322 38.8086 68.7197 38.832C68.8369 38.8555 68.9541 38.8555 69.0713 38.832C69.1885 38.8086 69.3057 38.7793 69.4229 38.7441C69.5518 38.6973 69.6748 38.6562 69.792 38.6211C69.9092 38.5859 70.0264 38.5684 70.1436 38.5684C70.1904 38.5684 70.2314 38.5801 70.2666 38.6035C70.3135 38.627 70.3604 38.6387 70.4072 38.6387C70.6064 38.6621 70.8174 38.6504 71.04 38.6035C71.2627 38.5449 71.4678 38.5391 71.6553 38.5859C71.6904 38.5977 71.7197 38.6211 71.7432 38.6562C71.7783 38.6797 71.8252 38.7031 71.8838 38.7266C72.0361 38.7852 72.2178 38.8262 72.4287 38.8496C72.6396 38.8613 72.8096 38.8965 72.9385 38.9551C72.9971 38.9785 73.0557 39.0254 73.1143 39.0957C73.1729 39.1543 73.2021 39.1953 73.2021 39.2188C73.2021 39.3477 73.126 39.4297 72.9736 39.4648C72.8213 39.5 72.6924 39.5234 72.5869 39.5352C72.4932 39.5469 72.3994 39.5469 72.3057 39.5352C72.2119 39.5234 72.1182 39.5293 72.0244 39.5527C71.8604 39.5762 71.7021 39.6113 71.5498 39.6582C71.3975 39.6934 71.2334 39.7402 71.0576 39.7988C70.8584 39.8691 70.6709 39.957 70.4951 40.0625C70.3193 40.1562 70.126 40.2148 69.915 40.2383C69.7627 40.2617 69.6162 40.2617 69.4756 40.2383C69.335 40.2148 69.1826 40.2148 69.0186 40.2383C68.96 40.25 68.9014 40.2676 68.8428 40.291C68.7959 40.3145 68.7432 40.332 68.6846 40.3438C68.5791 40.3672 68.4971 40.3848 68.4385 40.3965C68.3916 40.3965 68.3506 40.4082 68.3154 40.4316C68.292 40.4551 68.2627 40.4902 68.2275 40.5371C68.2041 40.584 68.1631 40.6543 68.1045 40.748C68.0107 40.959 67.9521 41.1875 67.9287 41.4336C67.9053 41.668 67.8818 41.9199 67.8584 42.1895C67.9873 42.3184 68.1104 42.4238 68.2275 42.5059C68.3447 42.5762 68.5264 42.6113 68.7725 42.6113C68.9014 42.6113 69.001 42.5996 69.0713 42.5762C69.1533 42.541 69.2588 42.5176 69.3877 42.5059C69.5166 42.5059 69.6455 42.5176 69.7744 42.541C69.9033 42.5527 70.0498 42.5527 70.2139 42.541C70.5537 42.5176 70.8408 42.4766 71.0752 42.418C71.3096 42.3477 71.5967 42.3242 71.9365 42.3477C72.0068 42.3477 72.1299 42.3535 72.3057 42.3652C72.4932 42.377 72.6807 42.3945 72.8682 42.418C73.0557 42.4297 73.2197 42.4531 73.3604 42.4883C73.5127 42.5234 73.5889 42.5703 73.5889 42.6289C73.5889 42.6992 73.542 42.7754 73.4482 42.8574C73.3662 42.9277 73.2666 42.998 73.1494 43.0684C73.0439 43.127 72.9326 43.1797 72.8154 43.2266C72.71 43.2617 72.6396 43.2852 72.6045 43.2969C72.4053 43.3555 72.2119 43.373 72.0244 43.3496C71.8369 43.3145 71.6318 43.3086 71.4092 43.332C71.2451 43.3555 71.0986 43.3906 70.9697 43.4375C70.8408 43.4844 70.7119 43.5371 70.583 43.5957C70.4541 43.6426 70.3193 43.6953 70.1787 43.7539C70.0498 43.8008 69.8975 43.8301 69.7217 43.8418C69.4873 43.8652 69.2881 43.8945 69.124 43.9297C68.96 43.9531 68.7666 43.9883 68.5439 44.0352C68.4502 44.0586 68.3623 44.082 68.2803 44.1055C68.1982 44.1406 68.1104 44.1699 68.0166 44.1934C67.6768 44.2637 67.3076 44.2754 66.9092 44.2285C66.5225 44.1934 66.1006 44.1992 65.6436 44.2461C65.3506 44.2812 65.0869 44.3223 64.8525 44.3691C64.6299 44.4277 64.4014 44.4453 64.167 44.4219C64.085 44.4102 64.0088 44.3984 63.9385 44.3867C63.8564 44.3867 63.7861 44.3574 63.7275 44.2988C63.751 44.2051 63.8037 44.123 63.8857 44.0527C63.9678 43.9824 64.0498 43.918 64.1318 43.8594C64.2139 43.7891 64.29 43.7188 64.3604 43.6484C64.4424 43.5664 64.5186 43.4902 64.5889 43.4199C64.6592 43.3262 64.7178 43.2148 64.7646 43.0859C64.8115 42.9453 64.8525 42.8047 64.8877 42.6641C64.9346 42.5234 64.9814 42.3945 65.0283 42.2773C65.0869 42.1484 65.1572 42.0371 65.2393 41.9434C65.1455 41.7324 65.1455 41.4922 65.2393 41.2227C65.3447 40.9531 65.4385 40.6719 65.5205 40.3789C65.5439 40.3086 65.5557 40.2383 65.5557 40.168C65.5557 40.0977 65.5674 40.0332 65.5908 39.9746C65.6143 39.8574 65.667 39.7578 65.749 39.6758C65.8311 39.582 65.8838 39.4883 65.9072 39.3945C65.9189 39.3359 65.9189 39.2773 65.9072 39.2188C65.9072 39.1602 65.9131 39.1016 65.9248 39.043C65.9482 38.8672 65.9893 38.7031 66.0479 38.5508C66.1182 38.3867 66.165 38.2402 66.1885 38.1113C66.2119 38.0176 66.2119 37.9238 66.1885 37.8301C66.1768 37.7246 66.1768 37.625 66.1885 37.5312C66.2119 37.2969 66.2588 37.0742 66.3291 36.8633C66.4111 36.6523 66.458 36.4648 66.4697 36.3008C66.4814 36.1719 66.4639 36.0312 66.417 35.8789C66.3701 35.7266 66.3232 35.6094 66.2764 35.5273C66.2412 35.4688 66.1885 35.4102 66.1182 35.3516C66.0479 35.2812 65.9775 35.2168 65.9072 35.1582C65.8369 35.0996 65.7725 35.0469 65.7139 35C65.667 34.9414 65.6436 34.8887 65.6436 34.8418C65.6553 34.7129 65.708 34.6484 65.8018 34.6484C65.8955 34.6367 65.9834 34.5957 66.0654 34.5254C66.4873 34.5371 66.8857 34.584 67.2607 34.666C67.6475 34.748 68.0459 34.8008 68.4561 34.8242C68.6084 34.8477 68.7666 34.8477 68.9307 34.8242C69.0947 34.7891 69.2529 34.7656 69.4053 34.7539C69.6514 34.7422 69.9268 34.7773 70.2314 34.8594C70.5479 34.9414 70.8584 34.9707 71.1631 34.9473C71.5732 34.9238 71.96 34.9121 72.3232 34.9121C72.6865 34.9121 73.0674 34.9004 73.4658 34.877C73.5361 34.9355 73.6416 34.9648 73.7822 34.9648C73.9229 34.9531 74.0635 34.9414 74.2041 34.9297C74.3564 34.9062 74.4912 34.9004 74.6084 34.9121C74.7373 34.9238 74.8252 34.9766 74.8721 35.0703C74.9424 35.2344 74.9307 35.375 74.8369 35.4922C74.7432 35.6094 74.6143 35.6855 74.4502 35.7207C74.4033 35.7207 74.3389 35.7266 74.2568 35.7383C74.1748 35.75 74.0869 35.7617 73.9932 35.7734C73.8994 35.7852 73.8057 35.791 73.7119 35.791C73.6299 35.791 73.5713 35.791 73.5361 35.791Z" fill="white"/>
</svg>
