<svg width="100" height="75" viewBox="0 0 100 75" fill="none" xmlns="http://www.w3.org/2000/svg">
<rect width="100" height="75" fill="#4C6B41"/>
<path d="M20.2188 34.0312H20.9219C20.8281 34.4375 20.7812 34.8125 20.7812 35.1562C20.7812 35.6354 20.8281 36.2552 20.9219 37.0156L20.2188 37.1406C20.1354 36.526 19.974 36.0365 19.7344 35.6719C19.3177 35.0365 18.6562 34.7188 17.75 34.7188C17 34.7188 16.4167 34.9115 16 35.2969C15.5938 35.6823 15.3906 36.1042 15.3906 36.5625C15.3906 36.8958 15.4688 37.1771 15.625 37.4062C15.7917 37.6354 16.0208 37.8073 16.3125 37.9219C16.6146 38.026 16.8594 38.099 17.0469 38.1406C17.2344 38.1719 17.474 38.2031 17.7656 38.2344C18.4219 38.3073 18.901 38.3802 19.2031 38.4531C19.5156 38.5156 19.7969 38.6302 20.0469 38.7969C20.6927 39.2344 21.0156 39.8385 21.0156 40.6094C21.0156 41.4531 20.6927 42.1094 20.0469 42.5781C19.401 43.0365 18.6562 43.2656 17.8125 43.2656C16.9583 43.2656 16.2448 43.026 15.6719 42.5469C15.6302 42.5052 15.5885 42.4844 15.5469 42.4844C15.4948 42.4844 15.4427 42.526 15.3906 42.6094C15.349 42.7344 15.3021 42.9688 15.25 43.3125H14.5469C14.6406 42.8646 14.6875 42.401 14.6875 41.9219C14.6875 41.6927 14.6406 41.1406 14.5469 40.2656H15.25C15.375 40.8906 15.5521 41.3542 15.7812 41.6562C16.1979 42.2083 16.8385 42.4844 17.7031 42.4844C18.5677 42.4844 19.1927 42.3021 19.5781 41.9375C19.974 41.5729 20.1719 41.151 20.1719 40.6719C20.1719 40.4115 20.1198 40.1875 20.0156 40C19.9115 39.8021 19.7865 39.651 19.6406 39.5469C19.5052 39.4323 19.3229 39.3385 19.0938 39.2656C18.875 39.1927 18.6927 39.1458 18.5469 39.125C18.401 39.1042 18.2188 39.0833 18 39.0625C17.6458 39.0312 17.3594 39 17.1406 38.9688C16.9323 38.9375 16.6406 38.8646 16.2656 38.75C15.901 38.6354 15.6094 38.5 15.3906 38.3438C15.1719 38.1875 14.974 37.9635 14.7969 37.6719C14.6302 37.3698 14.5469 37.0208 14.5469 36.625C14.5469 35.8958 14.8438 35.2656 15.4375 34.7344C16.0417 34.2031 16.7812 33.9375 17.6562 33.9375C18.4062 33.9375 19.0521 34.151 19.5938 34.5781C19.7917 34.724 19.9115 34.7969 19.9531 34.7969C20.0156 34.7969 20.0573 34.7708 20.0781 34.7188C20.099 34.6667 20.1354 34.5052 20.1875 34.2344C20.2083 34.151 20.2188 34.0833 20.2188 34.0312ZM25.0781 34.2031H25.8594V36.5H29.6406V37.2344H25.8594V40.1875C25.8594 40.5 25.8594 40.7344 25.8594 40.8906C25.8698 41.0365 25.901 41.2292 25.9531 41.4688C26.0156 41.7083 26.099 41.8854 26.2031 42C26.3073 42.1042 26.4688 42.2031 26.6875 42.2969C26.9062 42.3906 27.1719 42.4375 27.4844 42.4375C28.2031 42.4375 29.2083 42.1667 30.5 41.625L30.7812 42.3281C29.4688 42.9219 28.3958 43.2188 27.5625 43.2188C26.7396 43.2188 26.0938 42.9844 25.625 42.5156C25.375 42.2656 25.2188 41.9792 25.1562 41.6562C25.1042 41.3229 25.0781 40.8333 25.0781 40.1875V37.2344H24.0156V36.5H25.0781V34.2031ZM33.0469 36.2812H35.6406V37.8438C35.901 37.5833 36.1042 37.3854 36.25 37.25C36.4062 37.1146 36.6354 36.9375 36.9375 36.7188C37.2396 36.4896 37.5469 36.3229 37.8594 36.2188C38.1823 36.1146 38.5208 36.0625 38.875 36.0625C39.1771 36.0625 39.4479 36.1146 39.6875 36.2188C39.9375 36.3125 40.1198 36.4115 40.2344 36.5156C40.349 36.6094 40.4792 36.7448 40.625 36.9219L39.7969 37.5312C39.7552 37.4896 39.7344 37.4531 39.7344 37.4219C39.651 37.2969 39.5833 37.2083 39.5312 37.1562C39.4896 37.0938 39.3958 37.026 39.25 36.9531C39.1042 36.8802 38.9375 36.8438 38.75 36.8438C38.4375 36.8438 38.1198 36.9115 37.7969 37.0469C37.474 37.1823 37.1615 37.3802 36.8594 37.6406C36.5573 37.901 36.3333 38.1094 36.1875 38.2656C36.0417 38.4115 35.8594 38.6042 35.6406 38.8438V42.2656H38.6094V43H32.9219V42.2656H34.8594V37.0156H33.0469V36.2812ZM48.3281 38.375V42.2656H49.7188V43H47.5469V41.875C46.5781 42.7708 45.5833 43.2188 44.5625 43.2188C43.8229 43.2188 43.2188 42.9948 42.75 42.5469C42.2812 42.099 42.0469 41.5885 42.0469 41.0156C42.0469 40.776 42.099 40.5312 42.2031 40.2812C42.3177 40.0312 42.4896 39.7812 42.7188 39.5312C42.9583 39.2708 43.3021 39.0625 43.75 38.9062C44.2083 38.7396 44.7448 38.6562 45.3594 38.6562C46.1302 38.6562 46.8594 38.724 47.5469 38.8594V38.375C47.5469 38.2292 47.5417 38.1094 47.5312 38.0156C47.5208 37.9115 47.4844 37.7708 47.4219 37.5938C47.3594 37.4062 47.2656 37.2604 47.1406 37.1562C47.0156 37.0417 46.8229 36.9427 46.5625 36.8594C46.3125 36.7656 46.0104 36.7188 45.6562 36.7188C44.875 36.7188 43.9844 36.9375 42.9844 37.375L42.6875 36.6719C43.8125 36.2031 44.8073 35.9688 45.6719 35.9688C46.1719 35.9688 46.599 36.0365 46.9531 36.1719C47.3177 36.3073 47.5833 36.4583 47.75 36.625C47.9271 36.7917 48.0625 37.0104 48.1562 37.2812C48.25 37.5417 48.3021 37.7396 48.3125 37.875C48.3229 38.0104 48.3281 38.1771 48.3281 38.375ZM47.5469 40.8281V39.5781C46.8906 39.4635 46.2135 39.4062 45.5156 39.4062C45.0365 39.4062 44.6146 39.4583 44.25 39.5625C43.8958 39.6667 43.6354 39.7865 43.4688 39.9219C43.3021 40.0469 43.1719 40.2031 43.0781 40.3906C42.9844 40.5677 42.9271 40.7031 42.9062 40.7969C42.8958 40.8802 42.8906 40.9583 42.8906 41.0312C42.8906 41.4167 43.0573 41.7552 43.3906 42.0469C43.724 42.3281 44.1094 42.4688 44.5469 42.4688C45.5677 42.4688 46.5677 41.9219 47.5469 40.8281ZM53.2031 34.2031H53.9844V36.5H57.7656V37.2344H53.9844V40.1875C53.9844 40.5 53.9844 40.7344 53.9844 40.8906C53.9948 41.0365 54.026 41.2292 54.0781 41.4688C54.1406 41.7083 54.224 41.8854 54.3281 42C54.4323 42.1042 54.5938 42.2031 54.8125 42.2969C55.0312 42.3906 55.2969 42.4375 55.6094 42.4375C56.3281 42.4375 57.3333 42.1667 58.625 41.625L58.9062 42.3281C57.5938 42.9219 56.5208 43.2188 55.6875 43.2188C54.8646 43.2188 54.2188 42.9844 53.75 42.5156C53.5 42.2656 53.3438 41.9792 53.2812 41.6562C53.2292 41.3229 53.2031 40.8333 53.2031 40.1875V37.2344H52.1406V36.5H53.2031V34.2031ZM68.25 41.4219L68.6094 42.1094C67.2865 42.849 66.026 43.2188 64.8281 43.2188C63.6198 43.2188 62.6823 42.875 62.0156 42.1875C61.3594 41.4896 61.0312 40.6458 61.0312 39.6562C61.0312 38.6562 61.3698 37.8073 62.0469 37.1094C62.724 36.401 63.6198 36.0469 64.7344 36.0469C65.8385 36.0469 66.7031 36.3646 67.3281 37C67.9635 37.6354 68.2812 38.3542 68.2812 39.1562C68.2812 39.25 68.276 39.3854 68.2656 39.5625C68.2552 39.7396 68.25 39.8385 68.25 39.8594H61.875C61.8854 40.1094 61.9375 40.3646 62.0312 40.625C62.125 40.8854 62.2708 41.1667 62.4688 41.4688C62.6667 41.7604 62.9688 42 63.375 42.1875C63.7917 42.375 64.2812 42.4688 64.8438 42.4688C65.7188 42.4688 66.8542 42.1198 68.25 41.4219ZM61.875 39.125H67.4375C67.4271 38.5417 67.1875 38.0104 66.7188 37.5312C66.2604 37.0417 65.599 36.7969 64.7344 36.7969C64.2552 36.7969 63.8229 36.8854 63.4375 37.0625C63.0625 37.2292 62.7708 37.4479 62.5625 37.7188C62.3542 37.9792 62.1927 38.2292 62.0781 38.4688C61.974 38.6979 61.9062 38.9167 61.875 39.125ZM75.8438 36.2812H77.8906V37.0156H76.625V42.5312C76.625 43.5312 76.3646 44.2656 75.8438 44.7344C75.3229 45.2135 74.3906 45.4531 73.0469 45.4531H72.0625V44.7188C72.5938 44.7188 72.9948 44.7135 73.2656 44.7031C73.5365 44.6927 73.8438 44.6667 74.1875 44.625C74.5312 44.5833 74.7812 44.5156 74.9375 44.4219C75.1042 44.3385 75.2656 44.2135 75.4219 44.0469C75.5885 43.8906 75.6979 43.6875 75.75 43.4375C75.8125 43.1875 75.8438 42.8854 75.8438 42.5312V41.625H75.8125C75.6562 41.875 75.3542 42.1406 74.9062 42.4219C74.4583 42.7031 73.9323 42.8438 73.3281 42.8438C72.3906 42.8438 71.599 42.5156 70.9531 41.8594C70.3073 41.2031 69.9844 40.4271 69.9844 39.5312C69.9844 38.5938 70.3177 37.8073 70.9844 37.1719C71.651 36.5365 72.4323 36.2188 73.3281 36.2188C73.4948 36.2188 73.6771 36.2292 73.875 36.25C74.0729 36.2708 74.3802 36.3854 74.7969 36.5938C75.2135 36.7917 75.5521 37.0677 75.8125 37.4219H75.8438V36.2812ZM75.8438 39.5625C75.8438 38.8125 75.599 38.1979 75.1094 37.7188C74.6198 37.2396 74.0365 37 73.3594 37C72.6927 37 72.1042 37.2396 71.5938 37.7188C71.0833 38.1979 70.8281 38.7969 70.8281 39.5156C70.8281 40.224 71.0729 40.8281 71.5625 41.3281C72.0625 41.8177 72.6615 42.0625 73.3594 42.0625C74.0781 42.0625 74.6719 41.8125 75.1406 41.3125C75.6094 40.8125 75.8438 40.2292 75.8438 39.5625ZM79 36.2812H81.9219V37.0156H80.8438L83.3125 41.7656L86.0312 37.0156H84.9688V36.2812H87.8281V37.0156H86.9219L82.5469 44.6562H83.9375V45.3906H79.25V44.6562H81.6562L82.8594 42.5781L79.9531 37.0156H79V36.2812Z" fill="white"/>
</svg>
