<?xml version="1.0" encoding="utf-8"?>
<!-- Generator: Adobe Illustrator 19.0.0, SVG Export Plug-In . SVG Version: 6.00 Build 0)  -->
<svg version="1.1" id="Layer_1" xmlns="http://www.w3.org/2000/svg" xmlns:xlink="http://www.w3.org/1999/xlink" x="0px" y="0px"
	 viewBox="0 0 500 500" style="enable-background:new 0 0 500 500;" xml:space="preserve">
<style type="text/css">
	.st0{fill:#1A171B;}
	.st1{fill:#FFFFFF;}
</style>
<g id="XMLID_1_">
	<circle id="XMLID_3_" class="st0" cx="250" cy="250" r="182.5"/>
	<path id="XMLID_4_" class="st1" d="M329.4,134.9c-18.5,0.6-34.7,10.8-46.7,25c-13.3,15.5-22.2,33.8-28.6,52.6
		c-11.4-9.4-20.2-21.5-38.6-26.8c-14.2-4.1-29-2.4-42.7,7.8c-6.5,4.8-10.9,12.2-13.1,19c-5.5,17.9,5.8,33.8,10.9,39.5l11.2,12
		c2.3,2.4,7.9,8.5,5.1,17.3c-2.9,9.6-14.5,15.8-26.3,12.1c-5.3-1.6-12.9-5.5-11.2-11.1c0.7-2.3,2.3-4,3.2-5.9
		c0.8-1.7,1.2-2.9,1.4-3.7c2.2-7.1-0.8-16.2-8.3-18.6c-7.1-2.2-14.3-0.4-17.1,8.6c-3.2,10.3,1.8,29,28.2,37.2
		c31,9.5,57.2-7.4,60.9-29.4c2.3-13.8-3.9-24-15.3-37.2l-9.3-10.3c-5.6-5.6-7.6-15.2-1.7-22.6c4.9-6.2,11.9-8.9,23.4-5.7
		c16.7,4.5,24.2,16.1,36.6,25.5c-5.1,16.9-8.5,33.8-11.5,48.9l-1.9,11.3c-8.9,46.7-15.7,72.3-33.3,87c-3.6,2.5-8.6,6.3-16.3,6.6
		c-4,0.1-5.3-2.6-5.4-3.8c-0.1-2.8,2.3-4.1,3.9-5.4c2.4-1.3,5.9-3.4,5.7-10.3c-0.3-8.1-6.9-15.1-16.6-14.8
		c-7.2,0.2-18.3,7.1-17.9,19.5c0.4,12.9,12.4,22.5,30.6,21.9c9.7-0.3,31.3-4.3,52.6-29.6c24.8-29,31.7-62.3,36.9-86.7l5.8-32.2
		c3.2,0.4,6.7,0.6,10.5,0.7c30.9,0.7,46.3-15.3,46.6-27c0.2-7-4.6-14-11.3-13.8c-4.8,0.1-10.8,3.3-12.2,9.9c-1.4,6.5,9.8,12.3,1,18
		c-6.2,4-17.4,6.9-33.2,4.6l2.9-15.8c5.8-30,13.1-66.9,40.4-67.8c2-0.1,9.3,0.1,9.5,4.9c0.1,1.6-0.3,2-2.2,5.7
		c-1.9,2.9-2.6,5.3-2.6,8.1c0.3,7.7,6.1,12.7,14.5,12.4c11.3-0.4,14.5-11.4,14.3-17C361.9,142.7,347.9,134.3,329.4,134.9z"/>
</g>
</svg>
