<svg width="100" height="75" viewBox="0 0 100 75" fill="none" xmlns="http://www.w3.org/2000/svg">
<rect width="100" height="75" fill="#713333"/>
<path d="M18.5752 22.032V20.928H26.5752V22.032H23.1992V32H21.9832V22.032H18.5752ZM31.9279 31.008L32.3919 30.96L32.4239 31.904C31.2079 32.0747 30.1679 32.16 29.3039 32.16C28.1519 32.16 27.3359 31.8293 26.8559 31.168C26.3759 30.496 26.1359 29.456 26.1359 28.048C26.1359 25.2427 27.2506 23.84 29.4799 23.84C30.5573 23.84 31.3626 24.144 31.8959 24.752C32.4293 25.3493 32.6959 26.2933 32.6959 27.584L32.6319 28.496H27.3519C27.3519 29.3813 27.5119 30.0373 27.8319 30.464C28.1519 30.8907 28.7066 31.104 29.4959 31.104C30.2959 31.104 31.1066 31.072 31.9279 31.008ZM31.4959 27.536C31.4959 26.5547 31.3359 25.8613 31.0159 25.456C30.7066 25.0507 30.1946 24.848 29.4799 24.848C28.7759 24.848 28.2426 25.0613 27.8799 25.488C27.5279 25.9147 27.3466 26.5973 27.3359 27.536H31.4959ZM35.7661 32H34.5661V24H35.7501V24.56C36.5501 24.08 37.3287 23.84 38.0861 23.84C39.0781 23.84 39.7714 24.112 40.1661 24.656C40.5181 24.4427 40.9714 24.256 41.5261 24.096C42.0914 23.9253 42.5874 23.84 43.0141 23.84C44.0807 23.84 44.7954 24.128 45.1581 24.704C45.5314 25.2693 45.7181 26.2933 45.7181 27.776V32H44.5181V27.808C44.5181 26.6987 44.4114 25.9413 44.1981 25.536C43.9847 25.12 43.5314 24.912 42.8381 24.912C42.4861 24.912 42.1234 24.9653 41.7501 25.072C41.3767 25.168 41.0887 25.264 40.8861 25.36L40.5821 25.504C40.7207 25.856 40.7901 26.6347 40.7901 27.84V32H39.5901V27.872C39.5901 26.72 39.4834 25.9413 39.2701 25.536C39.0674 25.12 38.6141 24.912 37.9101 24.912C37.5687 24.912 37.2167 24.9653 36.8541 25.072C36.5021 25.168 36.2301 25.264 36.0381 25.36L35.7661 25.504V32ZM47.9411 35.552V24H49.1251V24.576C49.9357 24.0853 50.7357 23.84 51.5251 23.84C52.5384 23.84 53.2744 24.1653 53.7331 24.816C54.1917 25.456 54.4211 26.5173 54.4211 28C54.4211 29.4827 54.1491 30.5493 53.6051 31.2C53.0717 31.84 52.1811 32.16 50.9331 32.16C50.2824 32.16 49.6851 32.1013 49.1411 31.984V35.552H47.9411ZM51.3491 24.912C51.0291 24.912 50.6824 24.9653 50.3091 25.072C49.9464 25.1787 49.6584 25.2853 49.4451 25.392L49.1411 25.552V30.944C49.8984 31.0613 50.4744 31.12 50.8691 31.12C51.7331 31.12 52.3357 30.8747 52.6771 30.384C53.0291 29.8933 53.2051 29.0933 53.2051 27.984C53.2051 26.8747 53.0451 26.0853 52.7251 25.616C52.4157 25.1467 51.9571 24.912 51.3491 24.912ZM56.4746 32V20.512H57.6746V32H56.4746ZM65.7297 26.416V30.512C65.7617 30.9067 66.071 31.1413 66.6577 31.216L66.6097 32.16C65.767 32.16 65.1324 31.9467 64.7057 31.52C63.7457 31.9467 62.7857 32.16 61.8257 32.16C61.0897 32.16 60.5297 31.952 60.1457 31.536C59.7617 31.12 59.5697 30.5227 59.5697 29.744C59.5697 28.9653 59.767 28.3947 60.1617 28.032C60.5564 27.6587 61.175 27.4293 62.0177 27.344L64.5297 27.104V26.416C64.5297 25.872 64.4124 25.4827 64.1777 25.248C63.943 25.0133 63.623 24.896 63.2177 24.896C62.3644 24.896 61.479 24.9493 60.5617 25.056L60.0657 25.104L60.0177 24.192C61.191 23.9573 62.231 23.84 63.1377 23.84C64.0444 23.84 64.7004 24.048 65.1057 24.464C65.5217 24.88 65.7297 25.5307 65.7297 26.416ZM60.8017 29.68C60.8017 30.6613 61.207 31.152 62.0177 31.152C62.743 31.152 63.4577 31.0293 64.1617 30.784L64.5297 30.656V28.016L62.1617 28.24C61.6817 28.2827 61.335 28.4213 61.1217 28.656C60.9084 28.8907 60.8017 29.232 60.8017 29.68ZM72.2413 25.04H69.6973V28.864C69.6973 29.7813 69.7613 30.384 69.8893 30.672C70.028 30.96 70.348 31.104 70.8493 31.104L72.2733 31.008L72.3533 32C71.6386 32.1173 71.0946 32.176 70.7213 32.176C69.8893 32.176 69.3133 31.9733 68.9933 31.568C68.6733 31.1627 68.5133 30.3893 68.5133 29.248V25.04H67.3773V24H68.5133V21.552H69.6973V24H72.2413V25.04ZM79.1467 31.008L79.6107 30.96L79.6427 31.904C78.4267 32.0747 77.3867 32.16 76.5227 32.16C75.3707 32.16 74.5547 31.8293 74.0747 31.168C73.5947 30.496 73.3547 29.456 73.3547 28.048C73.3547 25.2427 74.4694 23.84 76.6987 23.84C77.776 23.84 78.5814 24.144 79.1147 24.752C79.648 25.3493 79.9147 26.2933 79.9147 27.584L79.8507 28.496H74.5707C74.5707 29.3813 74.7307 30.0373 75.0507 30.464C75.3707 30.8907 75.9254 31.104 76.7147 31.104C77.5147 31.104 78.3254 31.072 79.1467 31.008ZM78.7147 27.536C78.7147 26.5547 78.5547 25.8613 78.2347 25.456C77.9254 25.0507 77.4134 24.848 76.6987 24.848C75.9947 24.848 75.4614 25.0613 75.0987 25.488C74.7467 25.9147 74.5654 26.5973 74.5547 27.536H78.7147ZM24.6022 56V44.928H26.8262L29.9622 54.288L33.0982 44.928H35.3222V56H34.0902V46.24H33.8662L30.6502 55.6H29.2742L26.0582 46.24H25.8342V56H24.6022ZM43.1936 55.008L43.6576 54.96L43.6896 55.904C42.4736 56.0747 41.4336 56.16 40.5696 56.16C39.4176 56.16 38.6016 55.8293 38.1216 55.168C37.6416 54.496 37.4016 53.456 37.4016 52.048C37.4016 49.2427 38.5162 47.84 40.7456 47.84C41.8229 47.84 42.6282 48.144 43.1616 48.752C43.6949 49.3493 43.9616 50.2933 43.9616 51.584L43.8976 52.496H38.6176C38.6176 53.3813 38.7776 54.0373 39.0976 54.464C39.4176 54.8907 39.9722 55.104 40.7616 55.104C41.5616 55.104 42.3722 55.072 43.1936 55.008ZM42.7616 51.536C42.7616 50.5547 42.6016 49.8613 42.2816 49.456C41.9722 49.0507 41.4602 48.848 40.7456 48.848C40.0416 48.848 39.5082 49.0613 39.1456 49.488C38.7936 49.9147 38.6122 50.5973 38.6016 51.536H42.7616ZM49.9288 49.04H47.3848V52.864C47.3848 53.7813 47.4488 54.384 47.5768 54.672C47.7155 54.96 48.0355 55.104 48.5368 55.104L49.9608 55.008L50.0408 56C49.3261 56.1173 48.7821 56.176 48.4088 56.176C47.5768 56.176 47.0008 55.9733 46.6808 55.568C46.3608 55.1627 46.2008 54.3893 46.2008 53.248V49.04H45.0648V48H46.2008V45.552H47.3848V48H49.9288V49.04ZM52.5942 56H51.3942V44.512H52.5942V48.448C53.4475 48.0427 54.2689 47.84 55.0582 47.84C56.1249 47.84 56.8395 48.128 57.2022 48.704C57.5755 49.28 57.7622 50.304 57.7622 51.776V56H56.5622V51.808C56.5622 50.6987 56.4502 49.9413 56.2262 49.536C56.0129 49.12 55.5542 48.912 54.8502 48.912C54.1782 48.912 53.5275 49.0347 52.8982 49.28L52.5942 49.392V56ZM59.6359 51.984C59.6359 50.5227 59.8973 49.4667 60.4199 48.816C60.9426 48.1653 61.8226 47.84 63.0599 47.84C64.3079 47.84 65.1879 48.1653 65.6999 48.816C66.2226 49.4667 66.4839 50.5227 66.4839 51.984C66.4839 53.4453 66.2386 54.5067 65.7479 55.168C65.2573 55.8293 64.3613 56.16 63.0599 56.16C61.7586 56.16 60.8626 55.8293 60.3719 55.168C59.8813 54.5067 59.6359 53.4453 59.6359 51.984ZM60.8679 51.968C60.8679 53.1307 61.0066 53.9467 61.2839 54.416C61.5719 54.8853 62.1639 55.12 63.0599 55.12C63.9666 55.12 64.5586 54.8907 64.8359 54.432C65.1133 53.9627 65.2519 53.1413 65.2519 51.968C65.2519 50.7947 65.0973 49.9893 64.7879 49.552C64.4786 49.104 63.9026 48.88 63.0599 48.88C62.2279 48.88 61.6519 49.104 61.3319 49.552C61.0226 49.9893 60.8679 50.7947 60.8679 51.968ZM74.5851 44.512V56H73.4011V55.456C72.5797 55.9253 71.7691 56.16 70.9691 56.16C70.5424 56.16 70.1691 56.1067 69.8491 56C69.5291 55.8933 69.2304 55.7013 68.9531 55.424C68.3771 54.848 68.0891 53.7867 68.0891 52.24C68.0891 50.6827 68.3451 49.5627 68.8571 48.88C69.3797 48.1867 70.2384 47.84 71.4331 47.84C72.0517 47.84 72.7077 47.9093 73.4011 48.048V44.512H74.5851ZM69.8811 54.56C70.0517 54.7627 70.2331 54.9013 70.4251 54.976C70.6171 55.0507 70.8624 55.088 71.1611 55.088C71.4704 55.088 71.8117 55.04 72.1851 54.944C72.5691 54.8373 72.8677 54.736 73.0811 54.64L73.4011 54.496V49.072C72.7184 48.944 72.0837 48.88 71.4971 48.88C70.6864 48.88 70.1211 49.1413 69.8011 49.664C69.4811 50.176 69.3211 50.976 69.3211 52.064C69.3211 53.3013 69.5077 54.1333 69.8811 54.56Z" fill="white"/>
</svg>
