<svg width="100" height="75" viewBox="0 0 100 75" fill="none" xmlns="http://www.w3.org/2000/svg">
<rect width="100" height="75" fill="#EC0808"/>
<path d="M35.5254 30.0801C35.3379 30.1738 35.1504 30.25 34.9629 30.3086C34.7871 30.3555 34.6055 30.4082 34.418 30.4668C34.2188 30.5254 34.0195 30.5664 33.8203 30.5898C33.6328 30.6133 33.4395 30.6719 33.2402 30.7656C33.0527 30.8594 32.8594 31.0234 32.6602 31.2578C32.4727 31.4805 32.3086 31.6973 32.168 31.9082C31.8516 32.377 31.5352 32.8281 31.2188 33.2617C30.9023 33.6953 30.5859 34.1406 30.2695 34.5977C30.1055 34.832 29.9648 35.0781 29.8477 35.3359C29.7422 35.582 29.6074 35.8164 29.4434 36.0391C29.3848 36.1094 29.3145 36.1738 29.2324 36.2324C29.1621 36.291 29.1035 36.3496 29.0566 36.4082C28.9863 36.5371 28.9395 36.666 28.916 36.7949C28.8926 36.9238 28.8516 37.0469 28.793 37.1641C28.7344 37.293 28.6641 37.3984 28.582 37.4805C28.5117 37.5508 28.459 37.6445 28.4238 37.7617C28.2363 37.9609 28.0664 38.1777 27.9141 38.4121C27.7734 38.6465 27.6211 38.9102 27.457 39.2031C27.3867 39.3203 27.2988 39.4434 27.1934 39.5723C27.0996 39.7012 27.041 39.8184 27.0176 39.9238C26.9941 39.9824 26.9883 40.0352 27 40.082C27.0234 40.1289 27.0293 40.1816 27.0176 40.2402C26.9941 40.3223 26.9414 40.4219 26.8594 40.5391C26.7773 40.6562 26.707 40.7617 26.6484 40.8555C26.5664 40.9492 26.4902 41.043 26.4199 41.1367C26.3496 41.2305 26.2852 41.3242 26.2266 41.418C26.0625 41.6289 25.9043 41.8457 25.752 42.0684C25.6113 42.2793 25.4531 42.4492 25.2773 42.5781C25.1602 42.6602 25.043 42.7246 24.9258 42.7715C24.8086 42.8184 24.709 42.8828 24.627 42.9648C24.5801 43.0117 24.5391 43.0645 24.5039 43.123C24.4805 43.1816 24.4453 43.2402 24.3984 43.2988C24.2812 43.4277 24.1523 43.5566 24.0117 43.6855C23.8711 43.8262 23.7363 43.9375 23.6074 44.0195C23.4434 44.1367 23.2852 44.1719 23.1328 44.125C22.9805 44.0781 22.8281 43.9961 22.6758 43.8789C22.6055 43.8203 22.5469 43.7441 22.5 43.6504C22.4531 43.5566 22.4004 43.4863 22.3418 43.4395C22.2832 43.3809 22.2129 43.3516 22.1309 43.3516C22.0488 43.3633 21.9785 43.3516 21.9199 43.3164C21.8262 43.2695 21.7441 43.2109 21.6738 43.1406C21.6035 43.0703 21.5039 43.0234 21.375 43C21.3516 42.8008 21.2871 42.6309 21.1816 42.4902C21.0762 42.3496 21.0117 42.1973 20.9883 42.0332C20.9531 41.834 20.9473 41.6348 20.9707 41.4355C21.0059 41.2246 21.0117 41.0195 20.9883 40.8203C20.9648 40.6914 20.9297 40.5684 20.8828 40.4512C20.8477 40.3223 20.8184 40.1934 20.7949 40.0645C20.7715 39.9355 20.748 39.8008 20.7246 39.6602C20.7129 39.5195 20.6953 39.3848 20.6719 39.2559C20.625 39.0801 20.5664 38.9102 20.4961 38.7461C20.4375 38.5703 20.3965 38.3945 20.373 38.2188C20.3496 38.0547 20.3438 37.8789 20.3555 37.6914C20.3789 37.5039 20.3906 37.3105 20.3906 37.1113C20.3789 36.9473 20.373 36.7715 20.373 36.584C20.373 36.3848 20.3848 36.2031 20.4082 36.0391C20.4199 35.9805 20.4316 35.916 20.4434 35.8457C20.4668 35.7754 20.4727 35.7109 20.4609 35.6523C20.4609 35.5234 20.4023 35.377 20.2852 35.2129C20.1797 35.0371 20.1211 34.8555 20.1094 34.668C20.1094 34.4688 20.1211 34.2695 20.1445 34.0703C20.168 33.8594 20.1738 33.6484 20.1621 33.4375C20.1504 33.25 20.1328 33.0625 20.1094 32.875C20.0859 32.6758 20.0801 32.4824 20.0918 32.2949C20.0918 32.1309 20.0977 31.9902 20.1094 31.873C20.1328 31.7559 20.1328 31.6328 20.1094 31.5039C20.0859 31.3516 20.0391 31.1816 19.9688 30.9941C19.9102 30.8066 19.9395 30.5957 20.0566 30.3613C20.1855 30.2793 20.373 30.1914 20.6191 30.0977C20.877 30.0039 21.1406 29.9336 21.4102 29.8867C21.6914 29.8398 21.9492 29.834 22.1836 29.8691C22.4297 29.8926 22.6055 29.9805 22.7109 30.1328C22.7812 30.2266 22.834 30.3496 22.8691 30.502C22.9043 30.6426 22.9219 30.8008 22.9219 30.9766C22.9336 31.1406 22.9277 31.3105 22.9043 31.4863C22.8926 31.6504 22.8633 31.8027 22.8164 31.9434C22.793 32.0371 22.7461 32.1367 22.6758 32.2422C22.6172 32.3359 22.5586 32.4355 22.5 32.541C22.4531 32.6348 22.4238 32.7285 22.4121 32.8223C22.4004 32.9043 22.4414 32.9805 22.5352 33.0508C22.4414 33.2148 22.4238 33.373 22.4824 33.5254C22.5527 33.666 22.5996 33.8125 22.623 33.9648C22.6348 34.0469 22.623 34.1348 22.5879 34.2285C22.5645 34.3105 22.5527 34.3984 22.5527 34.4922C22.5527 35.0547 22.5762 35.6289 22.623 36.2148C22.6699 36.7891 22.7402 37.3281 22.834 37.832C22.8574 37.9609 22.8926 38.084 22.9395 38.2012C22.998 38.3184 23.0391 38.4355 23.0625 38.5527C23.0859 38.7285 23.0918 38.8984 23.0801 39.0625C23.0801 39.2266 23.0918 39.3906 23.1152 39.5547C23.1387 39.7188 23.1504 39.877 23.1504 40.0293C23.1621 40.1816 23.1797 40.3223 23.2031 40.4512C23.2383 40.5801 23.2793 40.7031 23.3262 40.8203C23.3848 40.9258 23.4785 41.0137 23.6074 41.084C23.6895 41.0137 23.7422 40.9316 23.7656 40.8379C23.8008 40.7441 23.8242 40.6445 23.8359 40.5391C23.8477 40.4336 23.8594 40.3281 23.8711 40.2227C23.8945 40.1172 23.9355 40.0176 23.9941 39.9238C24.0762 39.7832 24.1465 39.6426 24.2051 39.502C24.2285 39.4316 24.2402 39.3613 24.2402 39.291C24.252 39.209 24.2695 39.127 24.293 39.0449C24.3281 38.9277 24.3926 38.8047 24.4863 38.6758C24.5801 38.5352 24.6562 38.4004 24.7148 38.2715C24.7852 38.1309 24.8438 37.9902 24.8906 37.8496C24.9492 37.6973 25.0137 37.5625 25.084 37.4453C25.1777 37.2812 25.2832 37.1289 25.4004 36.9883C25.5293 36.8477 25.6406 36.6953 25.7344 36.5312C25.8047 36.4023 25.8633 36.2676 25.9102 36.127C25.9688 35.9863 26.0332 35.8516 26.1035 35.7227C26.1621 35.6172 26.2441 35.5234 26.3496 35.4414C26.4551 35.3477 26.5195 35.2363 26.543 35.1074C26.6484 35.1074 26.7363 35.0898 26.8066 35.0547C26.877 35.0195 26.9473 34.9785 27.0176 34.9316C27.041 34.7559 27.0938 34.5977 27.1758 34.457C27.2578 34.3164 27.334 34.1699 27.4043 34.0176C27.4629 33.8652 27.498 33.707 27.5098 33.543C27.5332 33.3672 27.5801 33.1973 27.6504 33.0332C27.6738 32.9629 27.7207 32.8926 27.791 32.8223C27.873 32.7402 27.9551 32.6523 28.0371 32.5586C28.0957 32.5 28.1426 32.4355 28.1777 32.3652C28.2129 32.2832 28.2539 32.2188 28.3008 32.1719C28.3477 32.1016 28.4004 32.0371 28.459 31.9785C28.5293 31.9199 28.5938 31.8613 28.6523 31.8027C28.8047 31.6035 28.9395 31.3633 29.0566 31.082C29.1738 30.8008 29.3027 30.5605 29.4434 30.3613C29.5957 30.1738 29.7891 30.0449 30.0234 29.9746C30.2578 29.9043 30.5273 29.8516 30.832 29.8164C31.1367 29.793 31.418 29.8047 31.6758 29.8516C31.9453 29.8984 32.2207 29.9277 32.502 29.9395C32.6309 29.9395 32.7539 29.9219 32.8711 29.8867C32.9883 29.8516 33.1113 29.8223 33.2402 29.7988C33.4395 29.7754 33.6387 29.7695 33.8379 29.7812C34.0371 29.7812 34.2305 29.7754 34.418 29.7637C34.5117 29.752 34.623 29.7344 34.752 29.7109C34.8809 29.6758 34.998 29.6582 35.1035 29.6582C35.2207 29.6582 35.3203 29.6875 35.4023 29.7461C35.4844 29.793 35.5254 29.9043 35.5254 30.0801ZM30.6738 42.1035C30.6973 41.834 30.7852 41.5938 30.9375 41.3828C31.1016 41.1602 31.2246 40.9316 31.3066 40.6973C31.3535 40.5449 31.3828 40.3867 31.3945 40.2227C31.418 40.0469 31.4297 39.877 31.4297 39.7129C31.4414 39.5371 31.459 39.3672 31.4824 39.2031C31.5059 39.0273 31.5469 38.8574 31.6055 38.6934C31.5469 38.5879 31.5234 38.4707 31.5352 38.3418C31.5469 38.2129 31.5527 38.0781 31.5527 37.9375C31.6113 37.8555 31.6582 37.7617 31.6934 37.6562C31.7285 37.5508 31.8105 37.4805 31.9395 37.4453C32.0566 37.1875 32.1152 36.9238 32.1152 36.6543C32.1152 36.373 32.1445 36.0859 32.2031 35.793C32.2148 35.7344 32.2383 35.6816 32.2734 35.6348C32.3086 35.5879 32.3379 35.5352 32.3613 35.4766C32.4434 35.2305 32.4844 34.9727 32.4844 34.7031C32.4844 34.4219 32.5312 34.1582 32.625 33.9121C32.6953 33.8887 32.7832 33.8535 32.8887 33.8066C32.9941 33.748 33.0996 33.6953 33.2051 33.6484C33.3223 33.5898 33.4336 33.543 33.5391 33.5078C33.6445 33.4727 33.7383 33.4609 33.8203 33.4727C33.8789 33.4961 33.9375 33.5312 33.9961 33.5781C34.0547 33.6133 34.125 33.6602 34.207 33.7188C34.2656 33.7539 34.3184 33.7949 34.3652 33.8418C34.4238 33.8887 34.4824 33.9297 34.541 33.9648C34.5879 33.9883 34.6465 34.0117 34.7168 34.0352C34.7988 34.0469 34.8516 34.0645 34.875 34.0879C34.8867 34.0996 34.9219 34.1406 34.9805 34.2109C35.0508 34.2812 35.1152 34.3574 35.1738 34.4395C35.2441 34.5215 35.3086 34.6035 35.3672 34.6855C35.4258 34.7559 35.4609 34.8027 35.4727 34.8262C35.4844 34.8965 35.4785 34.9785 35.4551 35.0723C35.4316 35.1543 35.3965 35.2422 35.3496 35.3359C35.3145 35.418 35.2734 35.5059 35.2266 35.5996C35.1914 35.6816 35.1621 35.7578 35.1387 35.8281C35.1035 35.957 35.0684 36.0859 35.0332 36.2148C34.998 36.332 34.9512 36.4551 34.8926 36.584C34.834 36.7363 34.7695 36.9121 34.6992 37.1113C34.6289 37.3105 34.582 37.5215 34.5586 37.7441C34.5352 37.9082 34.4707 38.0312 34.3652 38.1133C34.2715 38.1953 34.207 38.3125 34.1719 38.4648C34.1484 38.5703 34.1367 38.6816 34.1367 38.7988C34.1367 38.916 34.1367 39.0332 34.1367 39.1504C34.1484 39.2559 34.1484 39.3613 34.1367 39.4668C34.1367 39.5723 34.1133 39.6719 34.0664 39.7656C34.0312 39.8242 33.9785 39.8711 33.9082 39.9062C33.8379 39.9297 33.7793 39.9707 33.7324 40.0293C33.6621 40.1465 33.5977 40.293 33.5391 40.4688C33.4922 40.6445 33.4512 40.832 33.416 41.0312C33.3809 41.2188 33.3633 41.4121 33.3633 41.6113C33.375 41.7988 33.4102 41.9688 33.4688 42.1211C33.4102 42.3086 33.3047 42.4727 33.1523 42.6133C33.0117 42.7539 32.8418 42.8652 32.6426 42.9473C32.4434 43.0176 32.2266 43.0527 31.9922 43.0527C31.7695 43.0645 31.541 43.0293 31.3066 42.9473C31.2129 42.8066 31.1016 42.6777 30.9727 42.5605C30.8438 42.4316 30.7441 42.2793 30.6738 42.1035ZM41.8535 35.6523C41.959 35.6992 42.0293 35.7637 42.0645 35.8457C42.0996 35.916 42.123 35.9922 42.1348 36.0742C42.1582 36.1562 42.1816 36.2383 42.2051 36.3203C42.2285 36.4023 42.2871 36.4668 42.3809 36.5137C42.4043 36.5371 42.4453 36.5664 42.5039 36.6016C42.5625 36.6367 42.627 36.6777 42.6973 36.7246C42.7676 36.7598 42.832 36.7949 42.8906 36.8301C42.9609 36.8535 43.0137 36.8594 43.0488 36.8477C43.1191 36.8359 43.1836 36.7832 43.2422 36.6895C43.3008 36.5957 43.3477 36.4902 43.3828 36.373C43.4297 36.2441 43.459 36.1152 43.4707 35.9863C43.4824 35.8574 43.4766 35.752 43.4531 35.6699C43.4297 35.6348 43.3652 35.5879 43.2598 35.5293C43.1543 35.459 43.0723 35.4121 43.0137 35.3887C42.8496 35.3301 42.6973 35.2598 42.5566 35.1777C42.416 35.0957 42.2637 35.0254 42.0996 34.9668C42.0293 34.9434 41.9531 34.9082 41.8711 34.8613C41.8008 34.8027 41.7305 34.7734 41.6602 34.7734C41.6133 34.7617 41.5605 34.7734 41.502 34.8086C41.4434 34.832 41.3848 34.8438 41.3262 34.8438C41.2559 34.8555 41.168 34.8613 41.0625 34.8613C40.9688 34.8496 40.8691 34.8496 40.7637 34.8613C40.6582 34.873 40.5469 34.8906 40.4297 34.9141C40.3242 34.9375 40.2305 34.9785 40.1484 35.0371C39.9961 35.166 39.8848 35.3125 39.8145 35.4766C39.7559 35.6289 39.6738 35.8047 39.5684 36.0039C39.5449 36.0508 39.5039 36.1035 39.4453 36.1621C39.3867 36.2207 39.3574 36.291 39.3574 36.373C39.3574 36.4199 39.375 36.4609 39.4102 36.4961C39.457 36.5312 39.4922 36.584 39.5156 36.6543C39.5508 36.7246 39.5742 36.8008 39.5859 36.8828C39.5977 36.9531 39.6152 37.0176 39.6387 37.0762C39.6738 37.1113 39.709 37.1465 39.7441 37.1816C39.7793 37.2051 39.8086 37.2285 39.832 37.252C39.8672 37.2871 39.8906 37.3281 39.9023 37.375C39.9258 37.4219 39.9551 37.457 39.9902 37.4805C40.0488 37.5156 40.1484 37.5801 40.2891 37.6738C40.4414 37.7559 40.582 37.8086 40.7109 37.832C40.9336 37.8789 41.1328 37.9551 41.3086 38.0605C41.4961 38.1543 41.6777 38.2363 41.8535 38.3066C41.9824 38.3652 42.082 38.4355 42.1523 38.5176C42.2344 38.5879 42.3047 38.6641 42.3633 38.7461C42.4219 38.8164 42.4805 38.8867 42.5391 38.957C42.6094 39.0273 42.7031 39.0801 42.8203 39.1152C42.8789 39.1387 42.9316 39.1504 42.9785 39.1504C43.0254 39.1504 43.0781 39.1621 43.1367 39.1855C43.1953 39.209 43.2539 39.25 43.3125 39.3086C43.3711 39.3555 43.4355 39.4082 43.5059 39.4668C43.5527 39.5137 43.5938 39.5664 43.6289 39.625C43.6758 39.6719 43.7109 39.7188 43.7344 39.7656C43.7695 39.8359 43.793 39.9297 43.8047 40.0469C43.8164 40.1523 43.8223 40.2402 43.8223 40.3105C43.834 40.5918 43.8281 40.8145 43.8047 40.9785C43.7812 41.1426 43.7402 41.2949 43.6816 41.4355C43.623 41.5762 43.5469 41.7168 43.4531 41.8574C43.3711 41.998 43.2773 42.1797 43.1719 42.4023C43.0195 42.4727 42.8613 42.5547 42.6973 42.6484C42.5332 42.7305 42.3926 42.8184 42.2754 42.9121C42.2168 42.959 42.1348 43.0176 42.0293 43.0879C41.9238 43.1582 41.8301 43.2051 41.748 43.2285C41.584 43.2871 41.3848 43.3223 41.1504 43.334C40.916 43.3457 40.6992 43.3867 40.5 43.457C40.3828 43.4922 40.2422 43.498 40.0781 43.4746C39.9258 43.4512 39.7852 43.4453 39.6562 43.457C39.5039 43.4805 39.375 43.5039 39.2695 43.5273C39.1641 43.5625 39.041 43.5684 38.9004 43.5449C38.7363 43.5215 38.5547 43.457 38.3555 43.3516C38.1562 43.2578 37.9805 43.1641 37.8281 43.0703C37.7695 43.0469 37.7227 43.0176 37.6875 42.9824C37.6523 42.9355 37.6055 42.8945 37.5469 42.8594C37.4648 42.8125 37.3828 42.7832 37.3008 42.7715C37.2188 42.748 37.1426 42.707 37.0723 42.6484C37.002 42.5898 36.9375 42.5371 36.8789 42.4902C36.8203 42.4316 36.7617 42.373 36.7031 42.3145C36.5625 42.2207 36.4043 42.127 36.2285 42.0332C36.0645 41.9277 35.9473 41.8223 35.877 41.7168C35.8301 41.6582 35.8008 41.582 35.7891 41.4883C35.7891 41.3828 35.7656 41.2832 35.7188 41.1895C35.6953 41.1074 35.6543 41.0371 35.5957 40.9785C35.5371 40.9199 35.502 40.8613 35.4902 40.8027C35.4551 40.6387 35.4727 40.457 35.543 40.2578C35.6133 40.0586 35.6777 39.8887 35.7363 39.748C35.959 39.7129 36.1406 39.7363 36.2812 39.8184C36.4336 39.8887 36.5625 39.9883 36.668 40.1172C36.7734 40.2461 36.8672 40.3926 36.9492 40.5566C37.0312 40.709 37.1133 40.8438 37.1953 40.9609C37.2891 41.1133 37.4355 41.2305 37.6348 41.3125C37.834 41.3945 38.0273 41.4766 38.2148 41.5586C38.2852 41.5938 38.3496 41.6289 38.4082 41.6641C38.4785 41.6875 38.543 41.7109 38.6016 41.7344C38.7539 41.793 38.8828 41.8574 38.9883 41.9277C39.1055 41.9863 39.2285 42.0215 39.3574 42.0332C39.4746 42.0332 39.5859 42.0273 39.6914 42.0156C39.8086 41.9922 39.9375 41.9688 40.0781 41.9453C40.2188 41.8984 40.3594 41.8809 40.5 41.8926C40.6406 41.8926 40.7754 41.8633 40.9043 41.8047C41.0566 41.7461 41.1445 41.6758 41.168 41.5938C41.1914 41.5117 41.2441 41.4004 41.3262 41.2598C41.2793 41.0371 41.2266 40.8789 41.168 40.7852C41.1094 40.6914 41.0039 40.5801 40.8516 40.4512C40.793 40.4043 40.7227 40.3691 40.6406 40.3457C40.5703 40.3105 40.5059 40.2754 40.4473 40.2402C40.2012 40.0879 39.9316 39.9355 39.6387 39.7832C39.3457 39.6309 39.0234 39.5254 38.6719 39.4668C38.4492 39.3965 38.2148 39.3027 37.9688 39.1855C37.7344 39.0566 37.5645 38.8867 37.459 38.6758C37.4238 38.6289 37.4004 38.582 37.3887 38.5352C37.3887 38.4883 37.377 38.4355 37.3535 38.377C37.2598 38.1426 37.125 37.9199 36.9492 37.709C36.7852 37.498 36.6738 37.2578 36.6152 36.9883C36.5918 36.9062 36.5859 36.8242 36.5977 36.7422C36.6094 36.6484 36.6211 36.5605 36.6328 36.4785C36.6562 36.3965 36.6738 36.3086 36.6855 36.2148C36.6973 36.1211 36.6914 36.0215 36.668 35.916C36.7148 35.8691 36.7441 35.8223 36.7559 35.7754C36.7676 35.7285 36.7852 35.6816 36.8086 35.6348C36.8555 35.5645 36.8848 35.4941 36.8965 35.4238C36.9199 35.3418 36.9727 35.2656 37.0547 35.1953C37.1367 35.125 37.2012 35.0547 37.248 34.9844C37.3066 34.9023 37.3652 34.8379 37.4238 34.791C37.459 34.7676 37.5 34.7559 37.5469 34.7559C37.5938 34.7441 37.6348 34.7266 37.6699 34.7031C37.7285 34.668 37.7812 34.627 37.8281 34.5801C37.875 34.5215 37.9277 34.4688 37.9863 34.4219C38.2207 34.2461 38.4844 34.0996 38.7773 33.9824C39.0703 33.8535 39.3691 33.7539 39.6738 33.6836C39.7207 33.625 39.7969 33.5781 39.9023 33.543C40.0078 33.4961 40.1191 33.4668 40.2363 33.4551C40.3652 33.4316 40.4883 33.4141 40.6055 33.4023C40.7227 33.3906 40.8223 33.3789 40.9043 33.3672C41.2676 33.4141 41.5547 33.4727 41.7656 33.543C41.9883 33.6133 42.1934 33.6895 42.3809 33.7715C42.5801 33.8418 42.791 33.9121 43.0137 33.9824C43.2363 34.0527 43.5234 34.1113 43.875 34.1582C44.0156 34.2637 44.1621 34.3926 44.3145 34.5449C44.4785 34.6855 44.6191 34.8438 44.7363 35.0195C44.8535 35.1953 44.9355 35.3828 44.9824 35.582C45.041 35.7695 45.0293 35.9629 44.9473 36.1621C44.8887 36.2793 44.8418 36.4141 44.8066 36.5664C44.7715 36.707 44.7188 36.8359 44.6484 36.9531C44.5898 37.0469 44.5254 37.1582 44.4551 37.2871C44.3965 37.416 44.3262 37.5215 44.2441 37.6035C44.0801 37.7676 43.8691 37.8848 43.6113 37.9551C43.3535 38.0254 43.1016 38.0488 42.8555 38.0254C42.7852 37.9082 42.6738 37.8086 42.5215 37.7266C42.3809 37.6445 42.2344 37.5625 42.082 37.4805C41.9414 37.3867 41.8066 37.2871 41.6777 37.1816C41.5605 37.0645 41.4844 36.9238 41.4492 36.7598C41.4141 36.5605 41.4199 36.3496 41.4668 36.127C41.5254 35.9043 41.6543 35.7461 41.8535 35.6523ZM45.1934 42.1035C45.2168 41.834 45.3047 41.5938 45.457 41.3828C45.6211 41.1602 45.7441 40.9316 45.8262 40.6973C45.873 40.5449 45.9023 40.3867 45.9141 40.2227C45.9375 40.0469 45.9492 39.877 45.9492 39.7129C45.9609 39.5371 45.9785 39.3672 46.002 39.2031C46.0254 39.0273 46.0664 38.8574 46.125 38.6934C46.0664 38.5879 46.043 38.4707 46.0547 38.3418C46.0664 38.2129 46.0723 38.0781 46.0723 37.9375C46.1309 37.8555 46.1777 37.7617 46.2129 37.6562C46.248 37.5508 46.3301 37.4805 46.459 37.4453C46.5762 37.1875 46.6348 36.9238 46.6348 36.6543C46.6348 36.373 46.6641 36.0859 46.7227 35.793C46.7344 35.7344 46.7578 35.6816 46.793 35.6348C46.8281 35.5879 46.8574 35.5352 46.8809 35.4766C46.9629 35.2305 47.0039 34.9727 47.0039 34.7031C47.0039 34.4219 47.0508 34.1582 47.1445 33.9121C47.2148 33.8887 47.3027 33.8535 47.4082 33.8066C47.5137 33.748 47.6191 33.6953 47.7246 33.6484C47.8418 33.5898 47.9531 33.543 48.0586 33.5078C48.1641 33.4727 48.2578 33.4609 48.3398 33.4727C48.3984 33.4961 48.457 33.5312 48.5156 33.5781C48.5742 33.6133 48.6445 33.6602 48.7266 33.7188C48.7852 33.7539 48.8379 33.7949 48.8848 33.8418C48.9434 33.8887 49.002 33.9297 49.0605 33.9648C49.1074 33.9883 49.166 34.0117 49.2363 34.0352C49.3184 34.0469 49.3711 34.0645 49.3945 34.0879C49.4062 34.0996 49.4414 34.1406 49.5 34.2109C49.5703 34.2812 49.6348 34.3574 49.6934 34.4395C49.7637 34.5215 49.8281 34.6035 49.8867 34.6855C49.9453 34.7559 49.9805 34.8027 49.9922 34.8262C50.0039 34.8965 49.998 34.9785 49.9746 35.0723C49.9512 35.1543 49.916 35.2422 49.8691 35.3359C49.834 35.418 49.793 35.5059 49.7461 35.5996C49.7109 35.6816 49.6816 35.7578 49.6582 35.8281C49.623 35.957 49.5879 36.0859 49.5527 36.2148C49.5176 36.332 49.4707 36.4551 49.4121 36.584C49.3535 36.7363 49.2891 36.9121 49.2188 37.1113C49.1484 37.3105 49.1016 37.5215 49.0781 37.7441C49.0547 37.9082 48.9902 38.0312 48.8848 38.1133C48.791 38.1953 48.7266 38.3125 48.6914 38.4648C48.668 38.5703 48.6562 38.6816 48.6562 38.7988C48.6562 38.916 48.6562 39.0332 48.6562 39.1504C48.668 39.2559 48.668 39.3613 48.6562 39.4668C48.6562 39.5723 48.6328 39.6719 48.5859 39.7656C48.5508 39.8242 48.498 39.8711 48.4277 39.9062C48.3574 39.9297 48.2988 39.9707 48.252 40.0293C48.1816 40.1465 48.1172 40.293 48.0586 40.4688C48.0117 40.6445 47.9707 40.832 47.9355 41.0312C47.9004 41.2188 47.8828 41.4121 47.8828 41.6113C47.8945 41.7988 47.9297 41.9688 47.9883 42.1211C47.9297 42.3086 47.8242 42.4727 47.6719 42.6133C47.5312 42.7539 47.3613 42.8652 47.1621 42.9473C46.9629 43.0176 46.7461 43.0527 46.5117 43.0527C46.2891 43.0645 46.0605 43.0293 45.8262 42.9473C45.7324 42.8066 45.6211 42.6777 45.4922 42.5605C45.3633 42.4316 45.2637 42.2793 45.1934 42.1035ZM59.8711 33.8066C59.8477 33.9941 59.7773 34.1113 59.6602 34.1582C59.5547 34.2051 59.4434 34.2578 59.3262 34.3164C59.2441 34.375 59.1855 34.4512 59.1504 34.5449C59.1152 34.6387 59.0684 34.709 59.0098 34.7559C58.9512 34.8145 58.8633 34.8613 58.7461 34.8965C58.6406 34.9199 58.5527 34.9434 58.4824 34.9668C58.2832 35.0254 58.0723 35.0547 57.8496 35.0547C57.6387 35.0547 57.4512 35.0664 57.2871 35.0898C57.1934 35.1133 57.0996 35.166 57.0059 35.248C56.9121 35.3301 56.8125 35.3945 56.707 35.4414C56.6016 35.4766 56.5195 35.5059 56.4609 35.5293C56.4023 35.5527 56.3496 35.582 56.3027 35.6172C56.2676 35.6523 56.2324 35.6992 56.1973 35.7578C56.1621 35.8047 56.1152 35.875 56.0566 35.9688C55.998 36.0742 55.9688 36.2266 55.9688 36.4258C55.9688 36.625 55.9512 36.7891 55.916 36.918C55.8809 37.0234 55.8398 37.1465 55.793 37.2871C55.7578 37.4277 55.7168 37.5801 55.6699 37.7441C55.6465 37.8379 55.6348 37.9434 55.6348 38.0605C55.6348 38.166 55.623 38.2656 55.5996 38.3594C55.5645 38.4766 55.5059 38.5645 55.4238 38.623C55.3535 38.6816 55.3008 38.7871 55.2656 38.9395C55.2422 39.0098 55.2305 39.0859 55.2305 39.168C55.2422 39.2383 55.2422 39.3086 55.2305 39.3789C55.1836 39.6602 55.125 39.9648 55.0547 40.293C54.9961 40.6211 54.9375 40.9434 54.8789 41.2598C54.8203 41.5293 54.7559 41.7871 54.6855 42.0332C54.627 42.2793 54.5508 42.5078 54.457 42.7188C54.3633 42.707 54.2695 42.7363 54.1758 42.8066C54.082 42.8652 53.9883 42.9062 53.8945 42.9297C53.8125 42.9531 53.7305 42.9648 53.6484 42.9648C53.5781 42.9648 53.5078 42.9941 53.4375 43.0527C53.3555 43.1348 53.25 43.2402 53.1211 43.3691C52.9922 43.5098 52.8809 43.5918 52.7871 43.6152C52.7051 43.6387 52.6289 43.6387 52.5586 43.6152C52.5 43.5918 52.4414 43.5742 52.3828 43.5625C52.2891 43.5625 52.1953 43.5625 52.1016 43.5625C52.0195 43.5742 51.9199 43.5742 51.8027 43.5625C51.7559 43.4453 51.7383 43.3164 51.75 43.1758C51.7617 43.0469 51.7852 42.918 51.8203 42.7891C51.8672 42.6602 51.9141 42.5371 51.9609 42.4199C52.0195 42.291 52.0605 42.168 52.084 42.0508C52.1074 41.9688 52.1191 41.8809 52.1191 41.7871C52.1309 41.6934 52.1543 41.5996 52.1895 41.5059C52.2246 41.4004 52.2773 41.3066 52.3477 41.2246C52.4297 41.1309 52.4883 41.0254 52.5234 40.9082C52.5703 40.7793 52.6289 40.627 52.6992 40.4512C52.7695 40.2754 52.8105 40.1289 52.8223 40.0117C52.8457 39.8711 52.8398 39.7363 52.8047 39.6074C52.7812 39.4785 52.793 39.3379 52.8398 39.1855C52.8633 39.1152 52.8926 39.0566 52.9277 39.0098C52.9746 38.9512 53.0098 38.875 53.0332 38.7812C53.0684 38.6523 53.0918 38.5176 53.1035 38.377C53.1152 38.2246 53.1328 38.0781 53.1562 37.9375C53.1797 37.8086 53.2031 37.6855 53.2266 37.5684C53.25 37.4395 53.2793 37.3105 53.3145 37.1816C53.3496 37.0293 53.3848 36.8887 53.4199 36.7598C53.4668 36.6191 53.502 36.4844 53.5254 36.3555C53.5605 36.2266 53.5781 36.1035 53.5781 35.9863C53.5781 35.8574 53.543 35.7227 53.4727 35.582C53.4023 35.4531 53.3086 35.3594 53.1914 35.3008C53.0742 35.2422 52.9453 35.207 52.8047 35.1953C52.6641 35.1836 52.5117 35.1836 52.3477 35.1953C52.1836 35.207 52.0254 35.2129 51.873 35.2129C51.8145 35.1777 51.7617 35.1133 51.7148 35.0195C51.668 34.9258 51.6035 34.8613 51.5215 34.8262C51.3809 34.7793 51.2227 34.7559 51.0469 34.7559C50.8828 34.7559 50.7598 34.6914 50.6777 34.5625C50.6074 34.3867 50.6016 34.2168 50.6602 34.0527C50.7305 33.8887 50.8125 33.7715 50.9062 33.7012C51.3398 33.6309 51.791 33.6367 52.2598 33.7188C52.7285 33.7891 53.1973 33.8184 53.666 33.8066C53.8535 33.7949 54.041 33.7598 54.2285 33.7012C54.416 33.6426 54.6094 33.6426 54.8086 33.7012C54.8672 33.7246 54.9668 33.7656 55.1074 33.8242C55.2598 33.8711 55.3652 33.9062 55.4238 33.9297C55.4824 33.9414 55.541 33.9414 55.5996 33.9297C55.6582 33.918 55.7168 33.918 55.7754 33.9297C55.8691 33.9297 55.957 33.9473 56.0391 33.9824C56.1328 34.0059 56.2266 34.0176 56.3203 34.0176C56.4375 34.0176 56.5195 34.0176 56.5664 34.0176C56.625 34.0059 56.6719 33.9941 56.707 33.9824C56.7539 33.9707 56.8008 33.959 56.8477 33.9473C56.8945 33.9238 56.9707 33.9062 57.0762 33.8945C57.1699 33.8828 57.2637 33.8887 57.3574 33.9121C57.4512 33.9355 57.5449 33.9473 57.6387 33.9473C57.8965 33.959 58.1426 33.9297 58.377 33.8594C58.623 33.7773 58.8633 33.7246 59.0977 33.7012C59.2266 33.6895 59.3555 33.6895 59.4844 33.7012C59.625 33.7012 59.7539 33.7363 59.8711 33.8066ZM67.9746 35.3359C68.0918 35.5703 68.1797 35.7871 68.2383 35.9863C68.2969 36.1855 68.3438 36.4551 68.3789 36.7949C68.4023 37.0293 68.4258 37.2402 68.4492 37.4277C68.4844 37.6035 68.4902 37.8262 68.4668 38.0957C68.4551 38.2832 68.4258 38.4824 68.3789 38.6934C68.332 38.8926 68.2734 39.0801 68.2031 39.2559C68.0977 39.5723 67.998 39.8477 67.9043 40.082C67.8105 40.3164 67.6992 40.5684 67.5703 40.8379C67.4883 40.9902 67.4062 41.1133 67.3242 41.207C67.2422 41.3008 67.1543 41.4004 67.0605 41.5059C67.0371 41.541 67.0137 41.582 66.9902 41.6289C66.9785 41.6758 66.9551 41.7168 66.9199 41.752C66.7676 41.9277 66.5566 42.1094 66.2871 42.2969C66.0293 42.4844 65.7891 42.6191 65.5664 42.7012C65.4844 42.7246 65.3965 42.7422 65.3027 42.7539C65.2207 42.7539 65.1328 42.7656 65.0391 42.7891C64.9219 42.8359 64.8223 42.9062 64.7402 43C64.6582 43.082 64.5527 43.1406 64.4238 43.1758C64.3535 43.1992 64.2656 43.2168 64.1602 43.2285C64.0664 43.252 63.9727 43.2754 63.8789 43.2988C63.6445 43.3574 63.3516 43.416 63 43.4746C62.6602 43.5332 62.3438 43.5273 62.0508 43.457C62.0039 43.4453 61.957 43.4219 61.9102 43.3867C61.8633 43.3516 61.8105 43.3223 61.752 43.2988C61.6934 43.2754 61.6348 43.2578 61.5762 43.2461C61.5176 43.2344 61.4648 43.2168 61.418 43.1934C61.2656 43.1348 61.1191 43.0527 60.9785 42.9473C60.8379 42.8418 60.6914 42.7598 60.5391 42.7012C60.375 42.6074 60.2109 42.5254 60.0469 42.4551C59.8828 42.373 59.7715 42.2324 59.7129 42.0332C59.5137 41.9746 59.373 41.8398 59.291 41.6289C59.209 41.418 59.1094 41.2305 58.9922 41.0664C58.957 41.0078 58.9043 40.9609 58.834 40.9258C58.7754 40.8789 58.7344 40.8262 58.7109 40.7676C58.6289 40.6387 58.5645 40.4336 58.5176 40.1523C58.4707 39.8594 58.4414 39.6133 58.4297 39.4141C58.418 39.2031 58.4297 39.0039 58.4648 38.8164C58.5117 38.6172 58.5586 38.4238 58.6055 38.2363C58.6641 38.0488 58.7227 37.8672 58.7812 37.6914C58.8516 37.5156 58.9102 37.3457 58.957 37.1816C59.0039 36.9824 59.0918 36.8242 59.2207 36.707C59.3496 36.5898 59.4727 36.4609 59.5898 36.3203C59.6367 36.2734 59.6719 36.2207 59.6953 36.1621C59.7188 36.1035 59.7539 36.0449 59.8008 35.9863C59.8945 35.8691 60 35.7695 60.1172 35.6875C60.2344 35.5938 60.3457 35.5 60.4512 35.4062C60.5684 35.3125 60.6914 35.2246 60.8203 35.1426C60.9492 35.0488 61.0547 34.9551 61.1367 34.8613C61.2305 34.7324 61.3008 34.6035 61.3477 34.4746C61.4062 34.3457 61.4941 34.2344 61.6113 34.1406C61.7402 34.0352 61.8809 33.959 62.0332 33.9121C62.1973 33.8652 62.3848 33.8125 62.5957 33.7539C62.7949 33.707 62.9883 33.6426 63.1758 33.5605C63.375 33.4668 63.5859 33.4082 63.8086 33.3848C64.0195 33.3613 64.248 33.3496 64.4941 33.3496C64.7402 33.3379 64.9805 33.3438 65.2148 33.3672C65.4609 33.3906 65.6895 33.4316 65.9004 33.4902C66.123 33.5488 66.3164 33.6309 66.4805 33.7363C66.5625 33.7832 66.6445 33.8535 66.7266 33.9473C66.8203 34.041 66.9082 34.1289 66.9902 34.2109C67.1777 34.3984 67.3359 34.5918 67.4648 34.791C67.6055 34.9785 67.7754 35.1602 67.9746 35.3359ZM64.1426 34.5449C64.0957 34.5449 64.0254 34.5625 63.9316 34.5977C63.8496 34.6328 63.7617 34.6738 63.668 34.7207C63.5859 34.7559 63.5098 34.7969 63.4395 34.8438C63.3691 34.8906 63.3164 34.9258 63.2812 34.9492C63.1406 35.0781 63.0117 35.2422 62.8945 35.4414C62.7891 35.6289 62.666 35.7988 62.5254 35.9512C62.4668 36.0098 62.4023 36.0566 62.332 36.0918C62.2734 36.1152 62.2266 36.1504 62.1914 36.1973C61.9922 36.4199 61.8457 36.6777 61.752 36.9707C61.6699 37.2637 61.582 37.5449 61.4883 37.8145C61.3828 38.0957 61.2832 38.4121 61.1895 38.7637C61.0957 39.1152 61.0664 39.4492 61.1016 39.7656C61.1133 39.8359 61.1367 39.9297 61.1719 40.0469C61.2188 40.1523 61.2598 40.252 61.2949 40.3457C61.3418 40.4512 61.3828 40.5566 61.418 40.6621C61.4648 40.7559 61.5117 40.8438 61.5586 40.9258C61.6289 41.0664 61.7168 41.2188 61.8223 41.3828C61.9395 41.5352 62.0684 41.6699 62.209 41.7871C62.3613 41.8926 62.5254 41.9746 62.7012 42.0332C62.8887 42.0801 63.0879 42.0742 63.2988 42.0156C63.4277 41.9688 63.5859 41.8984 63.7734 41.8047C63.9609 41.6992 64.1309 41.5996 64.2832 41.5059C64.5059 41.3652 64.6641 41.2246 64.7578 41.084C64.8516 40.9316 64.9453 40.7383 65.0391 40.5039C65.0625 40.4453 65.0918 40.3926 65.127 40.3457C65.1738 40.2871 65.2148 40.2285 65.25 40.1699C65.3203 40.041 65.3789 39.9004 65.4258 39.748C65.4727 39.5957 65.5312 39.4492 65.6016 39.3086C65.7422 38.9922 65.8301 38.6875 65.8652 38.3945C65.9004 38.1016 65.9297 37.75 65.9531 37.3398C65.9648 37.1172 65.9473 36.9531 65.9004 36.8477C65.8652 36.7422 65.8359 36.5957 65.8125 36.4082C65.8008 36.2793 65.7949 36.1621 65.7949 36.0566C65.7949 35.9395 65.7715 35.8398 65.7246 35.7578C65.666 35.6523 65.5547 35.582 65.3906 35.5469C65.2383 35.5117 65.1152 35.4473 65.0215 35.3535C64.9277 35.2012 64.8281 35.0547 64.7227 34.9141C64.6172 34.7734 64.4883 34.6562 64.3359 34.5625C64.2773 34.5742 64.2363 34.5742 64.2129 34.5625C64.1895 34.5508 64.166 34.5449 64.1426 34.5449ZM76.2891 33.8242C76.3828 33.8477 76.4766 33.8594 76.5703 33.8594C76.6641 33.8594 76.7578 33.8711 76.8516 33.8945C76.8867 33.8945 76.9219 33.9062 76.957 33.9297C76.9922 33.9531 77.0273 33.9707 77.0625 33.9824C77.0977 33.9941 77.1328 33.9941 77.168 33.9824C77.2031 33.9707 77.2383 33.9707 77.2734 33.9824C77.543 34.0527 77.7598 34.1641 77.9238 34.3164C78.0879 34.457 78.252 34.6328 78.416 34.8438C78.4863 34.9609 78.5742 35.1016 78.6797 35.2656C78.7852 35.418 78.873 35.5938 78.9434 35.793C79.0137 35.9805 79.0547 36.1797 79.0664 36.3906C79.0781 36.6016 79.0371 36.8125 78.9434 37.0234C78.9199 37.082 78.8848 37.1582 78.8379 37.252C78.791 37.334 78.7441 37.4219 78.6973 37.5156C78.627 37.6445 78.5391 37.7793 78.4336 37.9199C78.3281 38.0605 78.2168 38.1602 78.0996 38.2188C78.0059 38.2773 77.9238 38.3301 77.8535 38.377C77.7949 38.4238 77.7188 38.4707 77.625 38.5176C77.4609 38.5762 77.2969 38.6641 77.1328 38.7812C76.9805 38.8867 76.8223 38.9746 76.6582 39.0449C76.5996 39.0684 76.5352 39.0859 76.4648 39.0977C76.4062 39.0977 76.3477 39.1094 76.2891 39.1328C76.207 39.1797 76.1426 39.2441 76.0957 39.3262C76.0488 39.4082 75.9609 39.4668 75.832 39.502C76.125 39.5723 76.3945 39.7363 76.6406 39.9941C76.8867 40.2402 77.0742 40.498 77.2031 40.7676C77.2617 40.9316 77.3438 41.0781 77.4492 41.207C77.5547 41.3359 77.6016 41.4824 77.5898 41.6465C77.6719 41.7168 77.7363 41.8105 77.7832 41.9277C77.8418 42.0332 77.8887 42.1504 77.9238 42.2793C77.959 42.4082 77.9883 42.543 78.0117 42.6836C78.0469 42.8125 78.0879 42.9297 78.1348 43.0352C78.2051 43.1875 78.2812 43.3105 78.3633 43.4043C78.4453 43.5098 78.5332 43.6035 78.627 43.6855C78.7207 43.7793 78.8145 43.873 78.9082 43.9668C79.002 44.0723 79.084 44.2012 79.1543 44.3535C79.2012 44.3418 79.2363 44.3242 79.2598 44.3008C79.2949 44.2891 79.3418 44.2891 79.4004 44.3008C79.5762 44.4297 79.7695 44.5293 79.9805 44.5996C80.2031 44.6699 80.4727 44.7285 80.7891 44.7754C81.0586 44.8223 81.3105 44.834 81.5449 44.8105C81.791 44.7988 82.043 44.7695 82.3008 44.7227C82.3828 44.7109 82.4824 44.6758 82.5996 44.6172C82.7285 44.5703 82.8516 44.5293 82.9688 44.4941C83.0977 44.459 83.209 44.4414 83.3027 44.4414C83.3965 44.4531 83.4434 44.5176 83.4434 44.6348C83.4434 44.7168 83.3906 44.8164 83.2852 44.9336C83.1797 45.0508 83.0859 45.1387 83.0039 45.1973C82.8047 45.3379 82.5762 45.4492 82.3184 45.5312C82.0605 45.6133 81.791 45.6777 81.5098 45.7246C81.2285 45.7832 80.9414 45.8242 80.6484 45.8477C80.3555 45.8711 80.0801 45.8887 79.8223 45.9004C79.6582 45.9004 79.5059 45.8711 79.3652 45.8125C79.2363 45.7656 79.1191 45.7305 79.0137 45.707C78.7793 45.6719 78.5684 45.6309 78.3809 45.584C78.2051 45.5371 78.0352 45.4668 77.8711 45.373C77.7305 45.291 77.6074 45.1738 77.502 45.0215C77.3965 44.8809 77.25 44.793 77.0625 44.7578C76.7578 44.4883 76.4531 44.2129 76.1484 43.9316C75.8438 43.6621 75.6035 43.3223 75.4277 42.9121C75.3691 42.8066 75.3047 42.707 75.2344 42.6133C75.1641 42.5078 75.1113 42.3965 75.0762 42.2793C75.041 42.1973 75.0176 42.1094 75.0059 42.0156C75.0059 41.9219 74.9941 41.8164 74.9707 41.6992C74.9473 41.5703 74.9121 41.4355 74.8652 41.2949C74.8184 41.1426 74.7715 41.002 74.7246 40.873C74.7129 40.8379 74.6953 40.8027 74.6719 40.7676C74.6484 40.7324 74.6309 40.6973 74.6191 40.6621C74.5957 40.5918 74.5723 40.5098 74.5488 40.416C74.5254 40.3105 74.4844 40.2285 74.4258 40.1699C74.3672 40.123 74.2676 40.0703 74.127 40.0117C73.998 39.9531 73.8867 39.9121 73.793 39.8887C73.6641 39.8652 73.5352 39.8711 73.4062 39.9062C73.2891 39.9414 73.1777 39.9648 73.0723 39.9766C72.9199 40 72.7734 40.0059 72.6328 39.9941C72.4922 39.9707 72.375 39.9766 72.2812 40.0117C72.1172 40.0703 71.9824 40.2227 71.877 40.4688C71.7715 40.7148 71.707 40.9727 71.6836 41.2422C71.6367 41.5117 71.5664 41.7754 71.4727 42.0332C71.3789 42.2793 71.3027 42.5195 71.2441 42.7539C71.1973 42.9062 71.1211 43.0293 71.0156 43.123C70.9102 43.2285 70.7637 43.2695 70.5762 43.2461C70.4824 43.2344 70.4062 43.2227 70.3477 43.2109C70.3008 43.2109 70.2363 43.1875 70.1543 43.1406C70.0957 43.1641 69.9902 43.2168 69.8379 43.2988C69.6973 43.3926 69.5977 43.457 69.5391 43.4922C69.1523 43.6094 68.9297 43.5801 68.8711 43.4043C68.8242 43.2285 68.8477 42.9473 68.9414 42.5605C69 42.3145 69.0879 42.0742 69.2051 41.8398C69.334 41.6055 69.4219 41.4062 69.4688 41.2422C69.4922 41.1367 69.498 41.043 69.4863 40.9609C69.4863 40.8672 69.4805 40.7793 69.4688 40.6973C69.457 40.6152 69.4512 40.5449 69.4512 40.4863C69.4512 40.416 69.4746 40.3516 69.5215 40.293C69.5332 40.1641 69.5684 40.0645 69.627 39.9941C69.6855 39.9121 69.7266 39.8066 69.75 39.6777C69.7734 39.5605 69.8027 39.4375 69.8379 39.3086C69.873 39.1797 69.8965 39.0566 69.9082 38.9395C69.9199 38.7988 69.9258 38.6699 69.9258 38.5527C69.9375 38.4238 69.9785 38.2773 70.0488 38.1133C70.1074 37.9609 70.166 37.8086 70.2246 37.6562C70.2949 37.4922 70.3418 37.334 70.3652 37.1816C70.3887 37.0645 70.4004 36.9473 70.4004 36.8301C70.4121 36.7012 70.4414 36.5781 70.4883 36.4609C70.5117 36.3672 70.5586 36.291 70.6289 36.2324C70.7109 36.1738 70.7637 36.0977 70.7871 36.0039C70.7988 35.9336 70.793 35.8691 70.7695 35.8105C70.7461 35.752 70.7461 35.6934 70.7695 35.6348C70.8398 35.4004 70.8633 35.2188 70.8398 35.0898C70.8164 34.9492 70.7754 34.8379 70.7168 34.7559C70.6699 34.6621 70.623 34.5742 70.5762 34.4922C70.541 34.4102 70.541 34.2988 70.5762 34.1582C70.6348 34.1465 70.6875 34.0996 70.7344 34.0176C70.7812 33.9238 70.8457 33.8652 70.9277 33.8418C70.9746 33.8301 71.0625 33.8242 71.1914 33.8242C71.3203 33.8125 71.4609 33.8066 71.6133 33.8066C71.7656 33.7949 71.9121 33.7949 72.0527 33.8066C72.1934 33.8066 72.3047 33.8066 72.3867 33.8066C72.4805 33.8184 72.5977 33.8184 72.7383 33.8066C72.8789 33.7832 73.0254 33.7715 73.1777 33.7715C73.3301 33.7598 73.4707 33.7539 73.5996 33.7539C73.7402 33.7539 73.8574 33.7773 73.9512 33.8242H76.2891ZM73.6172 38.3066C73.7109 38.3066 73.7988 38.2832 73.8809 38.2363C73.9746 38.1895 74.0625 38.1777 74.1445 38.2012C74.2617 38.2246 74.3789 38.2422 74.4961 38.2539C74.6133 38.2656 74.7422 38.2832 74.8828 38.3066C74.9414 38.3184 75 38.3125 75.0586 38.2891C75.1172 38.2656 75.1934 38.2598 75.2871 38.2715C75.4746 38.1309 75.6387 38.0254 75.7793 37.9551C75.9316 37.8848 76.0723 37.7441 76.2012 37.5332C76.2598 37.4277 76.3242 37.3281 76.3945 37.2344C76.4648 37.1289 76.5117 37.041 76.5352 36.9707C76.6172 36.7012 76.6055 36.4727 76.5 36.2852C76.3945 36.0859 76.2949 35.9102 76.2012 35.7578C76.084 35.582 75.9727 35.459 75.8672 35.3887C75.7617 35.3066 75.5859 35.2773 75.3398 35.3008C75.1406 35.3125 74.9355 35.3125 74.7246 35.3008C74.5137 35.2773 74.3086 35.2715 74.1094 35.2832C73.9219 35.2949 73.752 35.3301 73.5996 35.3887C73.4473 35.4473 73.3359 35.5527 73.2656 35.7051C73.207 35.8809 73.1367 36.0742 73.0547 36.2852C72.9727 36.4961 72.8965 36.7129 72.8262 36.9355C72.7559 37.1465 72.6973 37.3633 72.6504 37.5859C72.6035 37.8086 72.5801 38.0254 72.5801 38.2363C72.7559 38.2129 72.9316 38.2246 73.1074 38.2715C73.2832 38.3066 73.4531 38.3184 73.6172 38.3066Z" fill="white"/>
</svg>
